<svg width="537" height="304" viewBox="0 0 537 304" fill="none" xmlns="http://www.w3.org/2000/svg">
<path d="M185.271 219.397C181.907 231.475 172.457 246.422 165.978 257.412C166.472 262.565 187.374 264.845 187.279 273.35C185.999 276.338 166.788 266.272 164.047 264.802C160.458 262.881 146.26 252.274 145.124 252.307C137.169 252.561 142.44 258.605 141.31 263.336C140.284 267.637 121.864 290.854 117.7 293.871C104.608 303.348 82.9341 309.943 75.5545 291.069C62.8223 258.504 120.426 256.976 138.406 249.142C121.749 239.952 106.41 227.989 92.6713 214.853C86.6047 219.412 83.581 227.448 76.6087 232.787C40.1229 260.702 27.4147 212.535 63.0955 205.586C68.98 204.441 74.8549 207.214 80.5046 205.682C81.7553 203.105 65.6208 193.029 64.5522 185.961C64.3318 184.491 67.3603 183.384 67.4274 181.718C67.7245 174.161 66.0521 171.153 68.6925 162.763C83.8637 114.533 117.311 176.383 71.5053 186.478C71.8408 193.987 79.8864 195.663 82.0572 197.991C87.9944 204.37 93.7064 212.425 100.818 218.684L99.5382 199.059C97.7508 169.611 128.803 160.072 134.17 194.116C136.858 211.16 119.477 221.916 118.509 228.133C117.752 232.984 142.9 248.002 147.822 250.267C150.409 251.46 151.713 253.193 154.828 251.177C137.677 234.497 136.508 164.07 174.609 182.273C189.838 189.553 189.171 205.452 185.285 219.397H185.271Z" fill="#4C6E3D"/>
<path d="M45.2457 155.709C44.2968 160.532 60.8482 170.847 56.9188 176.939C48.1879 190.477 6.96284 210.62 5.44379 182.221C4.4902 164.406 39.6726 169.406 50.4928 171.46C47.1528 162.955 37.6648 158.923 36.0883 149.637C30.7979 151.035 27.3669 155.092 22.0958 156.696C-0.675514 163.626 -7.98322 145.231 13.4607 139.556C19.9442 137.842 21.9424 140.538 26.1689 140.615C28.3876 140.653 30.8794 137.459 31.718 137.827C32.9639 138.373 34.1283 145.461 38.6567 144.269C28.8428 109.783 71.769 114.285 57.513 140.854C55.6106 144.403 45.4277 154.761 45.2409 155.709H45.2457Z" fill="#4C6E3D"/>
<path d="M29.0871 129.733C26.5905 134.657 16.0242 131.309 12.2386 128.33C5.69762 123.182 1.6676 119.768 0 110.841C11.6588 97.7479 32.4318 123.134 29.0871 129.733Z" fill="#4C6E3D"/>
<path d="M140.859 23.7294C147.893 19.8982 144.065 5.11941 151.751 1.65219C164.521 -4.11373 168.714 12.2981 168.858 22.1394C173.42 18.9117 180.819 5.35407 186.804 6.10594C200.763 7.84912 189.679 27.5605 190.729 28.3172C196.733 27.9245 205.751 22.3022 211.487 24.941C213.62 25.9227 218.162 32.656 219.935 35.333C220.76 36.583 223.338 38.5656 223.75 39.7197C228.537 53.2294 213.495 62.6733 202.028 63.9472L202.651 69.1432C238.758 66.198 235.548 99.7495 200.38 94.0794C199.68 99.7878 203.887 96.0237 205.584 97.3167C206.59 98.0877 206.93 101.119 208.396 102.795C212.728 107.742 215.608 106.267 215.244 115.941C214.568 133.885 192.42 120.074 191.347 121.568C197.107 134.24 189.785 143.928 176.99 134.8C172.692 131.735 171.781 126.381 167.042 124.47C165.374 132.013 165.039 150.843 157.151 152.232C145.732 154.248 148.066 142.108 143.408 141.6C141.817 141.428 139.052 143.861 136.771 143.933C113.209 144.67 132.205 117.799 128.874 114.964C122.146 117.373 117.757 124.384 111.067 126.893C103.338 129.796 95.1437 131.304 92.6807 121.764C89.3742 108.964 110.737 102.436 113.703 91.2682C112.05 86.7618 77.8975 89.549 76.4935 76.4224C75.6118 68.1471 79.8239 65.0055 87.4862 63.5592C89.2784 60.8966 77.701 55.8203 82.0521 49.1157C85.2771 44.1543 95.6133 45.682 101.023 44.3363C101.479 39.8012 96.8257 40.7589 94.9808 38.5369C90.3661 32.9769 89.5419 24.5483 92.489 17.9203L103.103 18.7249L129.924 35.5964C117.369 10.5645 127.264 -13.5528 140.859 23.7341V23.7294ZM175.294 71.5808C175.974 68.8702 174.915 66.1309 172.519 64.6942C168.954 62.5536 168.834 56.189 163.707 53.67C143.49 43.7377 126.517 74.4925 140.653 88.9791C148.43 96.948 157.468 94.3907 166.874 90.5595C179.333 85.4832 174.101 82.1836 175.222 71.9687C175.236 71.8394 175.26 71.7101 175.289 71.5856L175.294 71.5808Z" fill="#FFFCFA"/>
<path d="M172.519 64.6944C174.915 66.1359 175.974 68.8704 175.293 71.581C175.26 71.7055 175.241 71.8348 175.226 71.9641C174.105 82.179 179.338 85.4786 166.879 90.5549C157.467 94.3861 148.43 96.9482 140.657 88.9745C126.516 74.4831 143.494 43.7283 163.711 53.6654C168.839 56.1844 168.958 62.549 172.524 64.6896L172.519 64.6944Z" fill="#D9932C"/>
<path d="M238.557 169.717C232.725 176.632 226.745 176.029 220.487 180.1C214.804 183.797 210.016 190.305 203.581 192.891C197.926 187.958 212.676 151.485 217.655 145.025C227.56 132.162 242.194 130.155 253.187 118.849C252.77 134.734 249.032 157.295 238.557 169.717Z" fill="#DC7C50"/>
<path d="M469.73 191.573C475.725 180.755 491.078 158.026 505.459 161.13C511.214 162.37 512.996 180.233 512.584 185.165L501.745 208.861C559.013 191.971 537.876 234.329 499.359 242.394C494.26 243.462 486.689 241.814 486.387 242.389C485.888 243.332 488.093 248.318 485.706 250.521C482.127 253.825 441.357 254.893 450.802 239.635C438.103 244.362 417.972 243.174 413.31 228.3C416.401 229.909 426.67 232.873 428.289 228.247C424.772 228.501 421.207 227.792 417.972 226.446C408.106 222.338 395.455 213.056 390.299 203.546C379.196 183.068 406.702 197.631 408.499 195.376C407.449 189.883 397.094 162.997 408.513 164.52C419.693 166.014 430.201 187.833 434.95 196.865C436.21 199.264 433.906 202.104 439.066 200.519C435.904 186.511 436.091 163.352 446.518 152.141C459.279 138.416 471.431 183.164 469.73 191.573ZM454.008 211.433C443.537 215.058 448.497 227.572 457.42 228.209C480.723 229.875 470.363 205.768 454.008 211.433Z" fill="#D9932C"/>
<path d="M289.228 222.97C287.747 214.675 286.324 203.718 275.451 206.687C277.487 199.556 279.347 191.812 269.475 192.765C259.522 193.728 261.329 218.315 256.091 225.086C253.298 219.397 248.156 210.207 240.326 213.507C237.686 214.618 239.411 219.363 236.277 218.051C237.853 212.271 241.562 203.086 234.719 199.547C224.033 194.02 219.543 215.676 221.752 219.435C222.327 220.412 229.688 220.752 225.543 224.248C225.092 224.627 219.749 221.648 220.214 232.413C220.77 245.31 229.218 242.14 233.488 244.683C235.754 246.033 236.943 255.918 243.086 257.627C243.862 257.843 250.585 252.134 251.333 249.888C252.967 244.96 249.589 233.414 254.783 230.167C258.042 228.132 257.668 234.252 259.149 235.521C267.827 242.954 268.8 228.601 273.39 231.475L267.803 248.892C280.53 253.365 261.894 260.213 263.672 265.031C271.934 273.445 278.709 263.317 287.675 263.039C291.192 262.929 296.55 268.043 298.275 264.179C299.08 262.368 296.507 259.72 296.804 258.441C297.019 257.527 300.978 254.471 302.247 251.426C303.081 249.429 306.407 239.242 306.124 238.265C303.35 228.649 291.422 241.014 290.378 232.313C290.023 232.461 285.059 231.302 283.185 232.222C282.5 230.723 287.565 223.903 289.228 222.97Z" fill="#9CB7D4"/>
<path d="M341.857 188.029C338.968 190.289 335.072 195.811 331.181 194.24C333.27 192.396 335.518 183.269 335.982 182.866C326.839 174.548 321.688 184.792 320.567 193.282L315.506 191.951C317.198 185.764 319.546 170.789 310.01 171.33C300.129 171.895 302.827 179.912 300.915 183.264C299.578 185.61 296.607 187.162 295.064 190.031C287.028 204.991 296.334 202.731 297.264 206.462C298.188 210.173 295.337 217.04 296.88 221.379C299.909 221.542 303.795 223.635 307.025 224.071C307.101 225.536 304.964 225.134 304.892 225.297C297.091 242.681 316.8 231.24 319.067 231.192C323.6 231.096 334.818 236.225 338.901 232.083C340.659 230.301 341.445 222.509 340.075 220.536C336.179 214.914 326.231 220.886 334.104 203.296C348.398 207.319 364.729 186.932 341.853 188.034L341.857 188.029Z" fill="#9CB7D4"/>
<path d="M369.641 171.848C368.975 175.281 364.834 182.465 365.05 183.03C365.28 183.633 373.158 192.455 373.795 192.565C382.387 194.073 384.525 181.9 385.282 181.497C386.207 181.004 401.052 185.855 402.787 174.209C403.951 166.403 382.876 167.518 383.14 161.815C383.298 158.371 395.929 155.876 392.407 147.864C391.363 145.484 387.922 144.34 387.817 144.062C387.457 143.133 391.176 141.907 392.067 140.293C396.677 131.927 392.316 129.398 384.165 130.48C381.808 133.368 381.204 137.07 379.8 140.178C379.565 140.7 379.584 141.342 379.354 141.869L383.964 144.914C385.191 146.935 378.511 146.705 376.326 146.495C375.76 146.442 375.199 146.155 374.634 146.049C364.077 155.306 371.423 162.653 369.636 171.848H369.641Z" fill="#9CB7D4"/>
<path d="M336.131 258.585C334.569 256.186 340.607 250.411 326.95 249.592C313.758 248.802 315.55 257.446 310.772 261.219C309.1 262.541 306.153 261.315 304.864 262.038C299.161 265.237 295.5 270.218 294.901 276.898C300.067 279.844 305.242 277.004 310.125 277.564C313.015 277.899 316.556 280.96 319.839 281.596C330.975 283.756 327.86 277.579 333.361 275.332C338.666 273.168 343.631 278.019 346.247 267.776C348.734 258.04 337.799 261.148 336.131 258.585Z" fill="#9CB7D4"/>
<path d="M369.564 144.708C371.093 137.362 358.619 138.871 352.951 139.642C347.488 140.379 344.215 144.182 342.988 149.67C342.149 153.424 345.858 153.51 346.424 155.349C346.946 157.054 345.279 159.439 345.868 161.379C348.518 170.147 354.561 166.867 360.833 164.099C361.514 156.69 368.29 150.829 369.564 144.708Z" fill="#9CB7D4"/>
<path d="M252.181 267.436C251.309 265.941 262.397 253.787 256.647 250.545L246.632 267.785L242.927 261.402C242.257 264.194 241.145 266.784 239.611 269.222C237.973 271.827 229.414 280.337 237.58 278.048C248.175 275.074 256.168 268.844 269.077 271.875C270.15 269.059 263.729 268.48 261.856 268.087C258.559 267.397 255.439 267.847 252.181 267.436Z" fill="#4C6E3D"/>
<path d="M341.857 188.03C344.105 186.272 350.147 180.037 352.097 178.739C354.369 177.226 358.361 177.7 359.841 174.707C346.208 169.856 347.191 177.135 339.207 183.523C338.512 184.084 336.227 182.652 335.982 182.867C335.517 183.274 333.27 192.402 331.181 194.241C335.072 195.812 338.968 190.285 341.857 188.03Z" fill="#4C6E3D"/>
<path d="M296.885 221.375C296.492 221.356 289.567 222.783 289.227 222.975C287.569 223.909 282.499 230.733 283.184 232.227C285.063 231.303 290.027 232.462 290.377 232.318C291.7 231.767 298.039 222.003 304.892 225.297C304.964 225.135 307.101 225.537 307.024 224.071C303.795 223.631 299.908 221.538 296.88 221.38L296.885 221.375Z" fill="#4C6E3D"/>
<path d="M374.639 146.044C372.933 145.723 371.27 145.067 369.564 144.708C368.289 150.833 361.513 156.69 360.833 164.099C364.585 162.442 364.901 160.349 365.587 159.932C367.681 158.663 367.944 169.817 369.645 171.842C371.428 162.648 364.087 155.296 374.643 146.044H374.639Z" fill="#9CB7D4"/>
<path d="M384.17 130.48C379.517 131.098 372.199 139.307 379.804 140.178C381.208 137.075 381.817 133.368 384.17 130.48Z" fill="#9CB7D4"/>
<path d="M379.359 141.863C378.788 143.156 376.699 144.67 376.33 146.489C378.515 146.7 385.195 146.93 383.968 144.909L379.359 141.863Z" fill="#9CB7D4"/>
<path d="M380.94 55.629C405.604 54.9202 430.484 86.2258 433.742 108.71C434.543 114.232 435.511 149.048 433.603 151.595C428.979 152.199 430.776 151.772 430.043 149.105C427.479 139.776 426.89 130.49 421.695 121.698C414.781 109.998 398.349 102.978 390.083 90.3203C383.154 79.7175 380.097 68.315 380.935 55.6194L380.94 55.629Z" fill="#DC7C50"/>
<path d="M318.985 79.3242C315.185 77.7007 312.362 58.5401 319.776 55.025C343.064 43.9912 331.87 84.8315 318.985 79.3242Z" fill="#92262A"/>
<path d="M291.144 103.035C278.67 108.446 286.558 77.3082 296.353 77.7248C304.614 78.0744 296.731 100.611 291.144 103.035Z" fill="#92262A"/>
<path d="M329.312 111.832C332.24 109.49 338.742 113.608 340.098 116.496C346.956 131.131 322.095 132.592 325.852 119.259C325.986 118.78 328.995 112.09 329.316 111.836L329.312 111.832Z" fill="#92262A"/>
<path d="M288.547 132.553C295.256 124.924 303.795 133.736 301.217 140.302C301.015 140.809 293.957 147.016 292.888 147.322C284.263 149.784 284.335 137.342 288.547 132.558V132.553Z" fill="#92262A"/>
<path d="M311.999 107.699C311.615 107.32 311.141 107.014 310.604 106.741C309.526 106.19 308.985 104.954 309.239 103.772C310.408 98.3218 313.125 85.0276 319.517 90.1135C326.772 95.8842 320.591 102.742 315.808 107.608C314.773 108.661 313.053 108.743 312.004 107.699H311.999Z" fill="#92262A"/>
<path d="M278.637 71.5997C276.969 69.9523 285.528 52.1325 288.916 52.3576C296.698 52.8748 290.138 77.6912 278.637 71.5997Z" fill="#92262A"/>
<path d="M260.825 70.8093C252.655 53.5211 277.377 44.1778 268.914 63.7264C267.146 67.8114 266.197 70.8333 260.825 70.8093Z" fill="#92262A"/>
</svg>
