<svg width="325" height="219" viewBox="0 0 325 219" fill="none" xmlns="http://www.w3.org/2000/svg">
<g clip-path="url(#clip0_1_14)">
<path d="M99.3439 133.774C97.2132 121.808 95.1652 106.001 79.5192 110.284C82.4498 99.997 85.1253 88.8256 70.9205 90.2004C56.5985 91.5891 59.1981 127.059 51.6613 136.828C47.6412 128.62 40.2423 115.362 28.975 120.122C25.1756 121.725 27.658 128.572 23.1483 126.679C25.4169 118.34 30.7541 105.089 20.9072 99.9832C5.53022 92.0105 -0.930894 123.252 2.24794 128.675C3.07541 130.085 13.6669 130.575 7.70231 135.618C7.05413 136.164 -0.634386 131.867 0.0344803 147.398C0.834361 166.003 12.9912 161.43 19.1351 165.098C22.3967 167.046 24.1068 181.306 32.9468 183.772C34.0639 184.083 43.7383 175.848 44.814 172.608C47.1654 165.499 42.3041 148.842 49.7788 144.158C54.4678 141.221 53.9299 150.051 56.0606 151.882C68.5484 162.604 69.9482 141.899 76.5541 146.044L68.514 171.171C86.8285 177.624 60.0118 187.503 62.57 194.453C74.4579 206.592 84.2082 191.98 97.1097 191.579C102.171 191.42 109.88 198.799 112.363 193.224C113.521 190.612 109.818 186.791 110.246 184.947C110.556 183.627 116.252 179.22 118.079 174.826C119.279 171.945 124.064 157.25 123.657 155.84C119.665 141.968 102.502 159.806 100.999 147.253C100.489 147.467 93.3448 145.795 90.6486 147.122C89.6625 144.959 96.9511 135.121 99.3439 133.774Z" fill="#9CB7D4"/>
<path d="M175.077 83.3608C170.919 86.6217 165.313 94.5875 159.714 92.3215C162.721 89.6616 165.955 76.4935 166.624 75.9132C153.467 63.9127 146.054 78.6905 144.441 90.9397L137.159 89.0191C139.593 80.093 142.972 58.4894 129.25 59.2701C115.031 60.0853 118.913 71.6505 116.162 76.4866C114.238 79.8719 109.963 82.1103 107.743 86.2487C96.1788 107.832 109.57 104.571 110.908 109.953C112.239 115.307 108.136 125.214 110.356 131.473C114.714 131.708 120.306 134.727 124.954 135.356C125.064 137.47 121.989 136.89 121.885 137.125C110.659 162.203 139.021 145.698 142.282 145.629C148.806 145.491 164.948 152.89 170.823 146.914C173.354 144.344 174.484 133.104 172.512 130.257C166.906 122.146 152.591 130.762 163.921 105.386C184.49 111.189 207.99 81.7787 175.071 83.3677L175.077 83.3608Z" fill="#9CB7D4"/>
<path d="M215.058 60.0162C214.099 64.9698 208.141 75.3329 208.452 76.1481C208.783 77.0186 220.119 89.7445 221.036 89.9034C233.4 92.0796 236.475 74.5176 237.565 73.9373C238.896 73.2257 260.258 80.2243 262.754 63.4222C264.43 52.161 234.103 53.7707 234.482 45.5424C234.71 40.575 252.887 36.9756 247.818 25.4173C246.315 21.9836 241.364 20.3324 241.212 19.9317C240.695 18.5914 246.046 16.8228 247.329 14.4946C253.962 2.42499 247.687 -1.22282 235.958 0.338553C232.565 4.50452 231.697 9.84497 229.676 14.3287C229.338 15.0818 229.366 16.0076 229.035 16.7675L235.668 21.1615C237.434 24.077 227.821 23.7453 224.677 23.4414C223.863 23.3654 223.056 22.9508 222.243 22.7988C207.052 36.1534 217.623 46.7514 215.051 60.0162H215.058Z" fill="#9CB7D4"/>
<path d="M166.837 185.147C164.589 181.686 173.278 173.354 153.625 172.173C134.642 171.033 137.221 183.503 130.346 188.947C127.94 190.854 123.699 189.085 121.844 190.128C113.638 194.743 108.37 201.928 107.508 211.566C114.942 215.815 122.389 211.718 129.415 212.526C133.573 213.01 138.669 217.425 143.393 218.344C159.418 221.459 154.936 212.547 162.852 209.307C170.485 206.184 177.629 213.183 181.394 198.405C184.973 184.36 169.237 188.843 166.837 185.147Z" fill="#9CB7D4"/>
<path d="M214.947 20.8713C217.147 10.2733 199.198 12.4496 191.041 13.5619C183.18 14.6258 178.47 20.1114 176.705 28.0288C175.498 33.4452 180.835 33.5696 181.649 36.2225C182.4 38.682 180.001 42.1226 180.849 44.9206C184.662 57.5705 193.357 52.838 202.384 48.8448C203.363 38.157 213.113 29.7007 214.947 20.8713Z" fill="#9CB7D4"/>
<path d="M46.0414 197.921C44.7864 195.766 60.7427 178.232 52.4681 173.554L38.0564 198.426L32.7262 189.216C31.7608 193.244 30.161 196.982 27.9545 200.498C25.5962 204.257 13.2808 216.534 25.0308 213.231C40.2768 208.941 51.7785 199.953 70.3551 204.326C71.8997 200.263 62.6597 199.428 59.9635 198.861C55.2194 197.866 50.7304 198.516 46.0414 197.921Z" fill="#4C6E3D"/>
<path d="M175.077 83.3608C178.311 80.8253 187.007 71.8301 189.813 69.9578C193.082 67.7747 198.826 68.4586 200.956 64.1407C181.339 57.1421 182.752 67.6434 171.264 76.8597C170.264 77.668 166.975 75.6023 166.624 75.9132C165.955 76.5004 162.721 89.6685 159.714 92.3214C165.313 94.5875 170.919 86.6148 175.077 83.3608Z" fill="#4C6E3D"/>
<path d="M110.363 131.466C109.797 131.439 99.8334 133.498 99.3438 133.774C96.958 135.121 89.6625 144.966 90.6486 147.122C93.3516 145.788 100.495 147.46 100.999 147.253C102.902 146.458 112.025 132.371 121.885 137.125C121.989 136.89 125.064 137.47 124.954 135.356C120.306 134.72 114.714 131.701 110.356 131.473L110.363 131.466Z" fill="#4C6E3D"/>
<path d="M222.25 22.7988C219.795 22.3359 217.402 21.3894 214.947 20.8713C213.113 29.7076 203.363 38.1569 202.384 48.8447C207.783 46.4543 208.238 43.4352 209.224 42.8342C212.238 41.0033 212.617 57.0938 215.065 60.0162C217.63 46.7514 207.066 36.1465 222.257 22.7988H222.25Z" fill="#9CB7D4"/>
<path d="M235.965 0.338501C229.269 1.22973 218.74 13.0713 229.683 14.3287C231.703 9.85183 232.579 4.50447 235.965 0.338501Z" fill="#9CB7D4"/>
<path d="M229.042 16.7675C228.221 18.6329 225.215 20.816 224.684 23.4414C227.828 23.7453 237.441 24.077 235.675 21.1615L229.042 16.7675Z" fill="#9CB7D4"/>
</g>
<defs>
<clipPath id="clip0_1_14">
<rect width="325" height="219" fill="white"/>
</clipPath>
</defs>
</svg>
