<svg width="88" height="80" viewBox="0 0 88 80" fill="none" xmlns="http://www.w3.org/2000/svg">
<g id="Layer_1" clip-path="url(#clip0_12_145)">
<g id="wciL82">
<path id="Vector" d="M84.95 53.4401L82.43 57.4501C78.83 61.4001 74.52 65.4501 70.44 68.9401C58.61 79.0401 41.7 81.2701 26.92 77.3301C25.49 76.9501 24 76.2601 22.55 76.0801L18.88 74.5801L12.91 70.9201C1.71 62.8001 -2.7 49.1101 1.65 35.9401C2.09 34.6101 3.03 33.2501 3.06 31.8601L5.88 24.9501L8.92 19.6301C13.92 13.6701 17.74 8.83012 24.65 5.15012C32.4 1.03012 40.64 -0.839881 49.72 0.360119L56.31 1.77012C57.43 2.30012 58.66 2.63012 59.77 3.18012C72.56 9.52012 81.94 17.0401 86.1 29.9801C88.6 37.7401 88.62 43.0301 86.02 50.8501L84.96 53.4401H84.95Z" fill="#4C6E3D"/>
</g>
<path id="Vector_2" d="M57.57 30.5701C56.04 33.0401 54.59 34.7901 52.4 35.0801L48.4 35.5201L46.44 36.9001L46.66 44.0301V44.1801C46.66 46.0701 45.35 47.0901 43.46 47.0901C42.37 47.0901 41.5 46.9401 41.5 46.9401L41.79 39.8801L41.28 33.9901V33.5501C41.28 30.2801 45.28 29.9901 45.28 29.9901L46.66 29.1201L51.83 29.4101C51.83 29.4101 53.58 27.8801 53.58 25.9201C53.58 22.6501 49.29 16.9701 43.61 16.9701C42.52 16.9701 41.43 17.2601 41.43 17.2601L40.63 18.2101L37.94 20.1001L37.72 23.5901C37.57 25.2601 37.06 26.2101 35.54 26.2101C33.87 26.2101 32.78 24.2501 32.78 22.5001C32.78 20.9701 33.51 16.8301 34.82 15.4401C37.07 13.0401 41.44 11.5801 44.79 11.5801C50.1 11.5801 53.52 15.2201 53.52 15.2201L54.61 15.9501L56.57 19.3701L57.59 20.7501C57.59 20.7501 58.9 25.2601 58.9 26.6401C58.9 27.6601 58.54 29.0401 57.59 30.5701H57.57ZM46.15 60.6901C46 61.6401 44.26 63.2401 42.37 63.2401C40.11 63.2401 40.04 61.4901 40.04 61.4901L39.6 58.3601L39.24 56.6101C39.24 56.6101 40.91 54.6501 42.3 54.6501C43.54 54.6501 45.43 55.3801 45.43 55.3801L45.87 56.9801L46.67 58.0701L46.16 60.6901H46.15Z" fill="white"/>
</g>
<defs>
<clipPath id="clip0_12_145">
<rect width="87.96" height="79.16" fill="white"/>
</clipPath>
</defs>
</svg>
