<svg width="15" height="24" viewBox="0 0 15 24" fill="none" xmlns="http://www.w3.org/2000/svg">
<g id="Layer_1" clip-path="url(#clip0_134_1478)">
<g id="ZEyEfj">
<path id="Vector" d="M11.212 1.62916C11.6539 1.62916 12.1167 1.64953 12.5989 1.68048C12.7767 1.69188 12.9732 1.74483 13.1611 1.75542C13.3032 1.76275 13.4135 1.88738 13.4042 2.03645C13.3708 2.56104 13.3995 3.1565 13.2784 3.62326C13.1619 4.06965 12.8722 4.17554 12.5267 4.17554C12.2137 4.17554 11.855 4.08838 11.5382 4.08838C11.4993 4.08838 11.4621 4.09001 11.4248 4.09245C9.06337 4.27492 8.89486 7.53487 9.0556 9.42144C9.07191 9.6088 9.13791 9.82303 9.26526 9.95907C9.32972 10.0283 9.64421 10.2002 9.71177 10.2002H12.8249C12.9941 10.2002 13.1161 10.3721 13.0671 10.5423C12.9328 11.005 12.7798 11.4807 12.6113 11.9165C12.4972 12.2114 12.4319 12.5494 12.0996 12.6105C11.2858 12.7596 10.246 12.6586 9.46095 12.8728C8.8739 13.0325 8.77372 13.5954 8.73956 14.1517C8.6091 16.2778 8.7349 18.8266 8.83196 20.9698C8.8374 21.0854 8.96553 22.3643 8.89874 22.3676L5.99065 22.1941C5.91067 22.1892 5.83612 22.146 5.79341 22.0751C5.71731 21.9481 5.6847 21.755 5.67305 21.6328C5.44553 19.2046 6.32145 16.505 6.03258 14.1542C5.94406 13.4308 5.69868 13.0626 4.97185 12.9942C4.31335 12.9323 3.51043 13.0276 2.87523 12.7791C2.737 12.7254 2.50715 12.6301 2.51104 12.4509L2.63217 10.4266C2.64072 10.2857 2.75254 10.1782 2.88377 10.1782C2.89231 10.1782 2.90163 10.1782 2.91017 10.1798C3.30853 10.2238 3.79852 10.2816 4.28074 10.2816C5.25916 10.2816 6.20808 10.0405 6.30359 8.94491C6.40299 7.79961 6.21973 6.68771 6.40765 5.50331C6.91782 2.28734 8.7217 1.62753 11.2128 1.62753M11.212 0C10.0286 0 8.50504 0.113227 7.21679 0.997862C5.95648 1.86295 5.19083 3.24936 4.87556 5.23776C4.7451 6.05967 4.76063 6.82782 4.77383 7.50555C4.7816 7.89492 4.78937 8.26555 4.76918 8.61664C4.66978 8.63619 4.5137 8.65411 4.27996 8.65411C3.91655 8.65411 3.51819 8.61012 3.16642 8.57102L3.07091 8.56043C3.00879 8.55392 2.94511 8.54984 2.88299 8.54984C1.93252 8.54984 1.14047 9.33021 1.08145 10.3256L0.961088 12.3507L0.959535 12.3824V12.4142C0.94944 12.8182 1.06592 13.812 2.33399 14.3073C3.01888 14.5745 3.72475 14.5875 4.29161 14.5973C4.36926 14.5989 4.44459 14.5997 4.5168 14.6022C4.5929 15.543 4.46245 16.6175 4.32423 17.7505C4.16426 19.0653 3.99886 20.4256 4.12699 21.7941C4.15572 22.098 4.23881 22.5427 4.47642 22.941C4.78471 23.4583 5.3174 23.7874 5.90213 23.8224L8.81022 23.9959L8.88787 24.0008L8.96553 23.9976C9.38951 23.9788 9.79253 23.7752 10.0729 23.4396C10.5232 22.8995 10.4852 22.2837 10.4549 21.7892C10.4386 21.5245 10.413 21.2264 10.3959 21.0292C10.3905 20.9624 10.3858 20.9095 10.3835 20.8785L10.371 20.6122C10.2794 18.5879 10.1754 16.299 10.2825 14.3814C10.5007 14.3602 10.7461 14.3505 10.9876 14.3399C11.438 14.3211 11.9039 14.3016 12.3667 14.2169C13.5276 14.0043 13.8972 12.9616 14.0184 12.6195C14.0293 12.5902 14.0394 12.56 14.0502 12.5307C14.2195 12.0925 14.3841 11.598 14.5526 11.0197C14.7188 10.4486 14.6155 9.82059 14.277 9.3408C13.9376 8.8602 13.3948 8.57347 12.8249 8.57347H10.5659C10.545 7.38581 10.7391 6.3741 11.0878 5.94237C11.1879 5.81855 11.2974 5.73791 11.5351 5.71917H11.5382C11.6018 5.71917 11.7315 5.73546 11.8464 5.75094C12.0476 5.77701 12.2759 5.80633 12.5267 5.80633C13.6503 5.80633 14.4913 5.15141 14.7771 4.05417C14.9114 3.53773 14.9261 3.01965 14.9386 2.56267C14.9425 2.41279 14.9463 2.27024 14.9541 2.14642C14.9867 1.63731 14.8267 1.14693 14.5037 0.764892C14.1838 0.386926 13.7233 0.155585 13.2411 0.129518C13.2224 0.127889 13.1588 0.1173 13.113 0.109154C12.9988 0.0896039 12.8567 0.0659811 12.6944 0.0553915C12.1128 0.0179208 11.6422 0.000814581 11.2128 0.000814581L11.212 0Z" fill="#FFFCFA"/>
</g>
</g>
<defs>
<clipPath id="clip0_134_1478">
<rect width="14" height="24" fill="white" transform="translate(0.958008)"/>
</clipPath>
</defs>
</svg>
