<svg width="479" height="468" viewBox="0 0 479 468" fill="none" xmlns="http://www.w3.org/2000/svg">
<path d="M222.643 367.356C218.6 381.87 207.244 399.831 199.459 413.039C200.052 419.231 225.171 421.97 225.055 432.191C223.518 435.782 200.432 423.685 197.138 421.919C192.825 419.611 175.762 406.864 174.398 406.904C164.838 407.209 171.173 414.472 169.814 420.158C168.581 425.325 146.446 453.226 141.442 456.851C125.709 468.24 99.6634 476.165 90.7953 453.485C75.4948 414.351 144.718 412.515 166.324 403.1C146.307 392.056 127.874 377.68 111.365 361.894C104.074 367.373 100.441 377.03 92.0621 383.447C48.2167 416.992 32.9451 359.109 75.8231 350.758C82.8946 349.383 89.9545 352.715 96.7438 350.874C98.2468 347.777 78.8578 335.669 77.5737 327.175C77.3088 325.408 80.9482 324.078 81.0288 322.076C81.3858 312.994 79.3761 309.38 82.549 299.298C100.781 241.339 140.975 315.665 85.9293 327.796C86.3324 336.82 96.001 338.834 98.6096 341.631C105.744 349.297 112.609 358.977 121.154 366.498L119.617 342.914C117.469 307.527 154.784 296.063 161.234 336.975C164.464 357.457 143.578 370.383 142.415 377.853C141.505 383.683 171.726 401.73 177.64 404.452C180.749 405.885 182.316 407.968 186.059 405.546C165.449 385.501 164.044 300.869 209.83 322.743C228.13 331.491 227.33 350.597 222.66 367.356H222.643Z" fill="#4C6E3D"/>
<path d="M54.3722 290.82C53.2321 296.615 73.122 309.012 68.4 316.332C57.908 332.601 8.36735 356.807 6.5419 322.68C5.39595 301.271 47.6751 307.279 60.6778 309.748C56.6641 299.527 45.2622 294.682 43.3677 283.523C37.0103 285.203 32.8872 290.078 26.5528 292.006C-0.811745 300.333 -9.5935 278.228 16.1759 271.409C23.9672 269.348 26.3685 272.588 31.4475 272.68C34.1137 272.727 37.1082 268.888 38.1159 269.331C39.6131 269.987 41.0125 278.504 46.4543 277.071C34.6608 235.63 86.2457 241.04 69.1141 272.968C66.8279 277.233 54.5911 289.681 54.3665 290.82H54.3722Z" fill="#4C6E3D"/>
<path d="M34.9543 259.605C31.9541 265.521 19.2565 261.499 14.7073 257.919C6.84689 251.733 2.00397 247.629 0 236.902C14.0105 221.168 38.9737 251.675 34.9543 259.605Z" fill="#4C6E3D"/>
<path d="M166.275 103.841C174.728 99.2371 170.127 81.4773 179.364 77.3107C194.71 70.3817 199.749 90.1039 199.922 101.93C205.404 98.0515 214.295 81.7592 221.487 82.6628C238.262 84.7576 224.942 108.445 226.204 109.354C233.419 108.882 244.257 102.126 251.149 105.297C253.712 106.477 259.171 114.568 261.302 117.785C262.292 119.287 265.39 121.67 265.886 123.057C271.638 139.292 253.562 150.64 239.782 152.171L240.531 158.415C283.921 154.876 280.063 195.195 237.801 188.381C236.96 195.241 242.016 190.718 244.055 192.272C245.264 193.198 245.673 196.841 247.435 198.855C252.641 204.8 256.102 203.028 255.664 214.653C254.852 236.217 228.236 219.619 226.946 221.415C233.868 236.643 225.069 248.285 209.694 237.316C204.528 233.633 203.434 227.199 197.739 224.902C195.735 233.967 195.332 256.595 185.854 258.264C172.131 260.687 174.935 246.098 169.338 245.488C167.426 245.281 164.104 248.204 161.363 248.291C133.048 249.177 155.875 216.886 151.872 213.479C143.787 216.374 138.513 224.799 130.474 227.814C121.185 231.302 111.338 233.115 108.378 221.651C104.405 206.268 130.076 198.424 133.641 185.003C131.654 179.588 90.6132 182.937 88.926 167.163C87.8664 157.218 92.9282 153.443 102.136 151.705C104.29 148.505 90.3771 142.405 95.6059 134.348C99.4813 128.386 111.903 130.222 118.404 128.605C118.951 123.155 113.359 124.306 111.142 121.635C105.597 114.954 104.606 104.825 108.148 96.8603L120.903 97.8271L153.134 118.102C138.046 88.0206 149.938 59.0386 166.275 103.847V103.841ZM207.655 161.345C208.473 158.087 207.2 154.795 204.321 153.069C200.037 150.497 199.893 142.848 193.731 139.821C169.436 127.885 149.039 164.844 166.027 182.252C175.373 191.829 186.234 188.756 197.538 184.152C212.51 178.051 206.221 174.086 207.569 161.811C207.586 161.655 207.615 161.5 207.65 161.35L207.655 161.345Z" fill="#FFFCFA"/>
<path d="M204.321 153.069C207.2 154.801 208.473 158.088 207.655 161.345C207.615 161.494 207.592 161.65 207.574 161.805C206.227 174.081 212.515 178.046 197.543 184.146C186.233 188.75 175.373 191.829 166.032 182.247C149.039 164.832 169.441 127.874 193.737 139.816C199.898 142.843 200.042 150.491 204.326 153.063L204.321 153.069Z" fill="#D9932C"/>
<path d="M342.206 417.084C335.197 425.394 328.011 424.669 320.49 429.561C313.661 434.004 307.908 441.825 300.174 444.933C293.379 439.005 311.104 395.175 317.087 387.412C328.99 371.954 346.576 369.543 359.786 355.955C359.285 375.044 354.794 402.156 342.206 417.084Z" fill="#DC7C50"/>
<path d="M397.263 246.646C404.467 233.645 422.917 206.332 440.198 210.061C447.114 211.552 449.256 233.018 448.761 238.945L435.735 267.421C504.556 247.123 479.155 298.026 432.868 307.717C426.74 309.001 417.642 307.021 417.279 307.712C416.68 308.845 419.329 314.836 416.462 317.483C412.16 321.454 363.166 322.738 374.516 304.402C359.256 310.083 335.065 308.655 329.462 290.78C333.176 292.714 345.516 296.276 347.463 290.717C343.236 291.022 338.952 290.17 335.065 288.553C323.208 283.616 308.005 272.462 301.809 261.033C288.467 236.425 321.521 253.926 323.68 251.215C322.419 244.614 309.975 212.306 323.697 214.136C337.132 215.931 349.76 242.151 355.467 253.005C356.982 255.888 354.212 259.301 360.414 257.396C356.613 240.563 356.838 212.732 369.368 199.259C384.703 182.766 399.307 236.54 397.263 246.646ZM378.369 270.511C365.786 274.868 371.747 289.906 382.469 290.671C410.473 292.674 398.023 263.703 378.369 270.511Z" fill="#D9932C"/>
<path d="M295.586 0.0142098C325.226 -0.837525 355.124 36.7827 359.04 63.8022C360.001 70.4377 361.165 112.276 358.873 115.338C353.316 116.063 355.475 115.551 354.594 112.345C351.513 101.135 350.805 89.9758 344.563 79.4097C336.253 65.3503 316.507 56.9135 306.574 41.7032C298.247 28.9617 294.573 15.2591 295.581 0.00270177L295.586 0.0142098Z" fill="#DC7C50"/>
</svg>
