<svg width="260" height="197" viewBox="0 0 260 197" fill="none" xmlns="http://www.w3.org/2000/svg">
<g clip-path="url(#clip0_134_1396)">
<path d="M25.0796 76.4735C25.7406 76.4735 26.1771 76.91 26.1771 77.4962L25.3665 84.6047C25.2916 85.1909 24.8551 85.7022 24.269 85.7022H20.0163V115.77C20.0163 116.431 19.6546 116.793 18.9937 116.793H5.9363C5.27533 116.793 4.91366 116.431 4.91366 115.77V85.7022H1.02264C0.51132 85.7022 0 85.2657 0 84.6796V77.571C0 76.91 0.51132 76.4735 1.02264 76.4735H5.05084C5.41251 67.7437 9.74002 63.6406 18.3951 63.6406H24.7803C25.4413 63.6406 25.803 64.0023 25.803 64.6633V71.7719C25.803 72.4328 25.4413 72.8693 24.7803 72.8693C21.9992 72.8693 20.4528 73.9668 20.0911 76.461H25.0796V76.4735Z" fill="white"/>
<path d="M44.6966 63.6406C45.2827 63.6406 45.7941 64.1519 45.7941 64.6633V115.708C45.7941 116.294 45.2827 116.805 44.6966 116.805H31.7889C31.2027 116.805 30.6914 116.294 30.6914 115.708V64.6633C30.6914 64.1519 31.2027 63.6406 31.7889 63.6406H44.6966Z" fill="white"/>
<path d="M94.8188 96.6398C94.8188 109.398 86.1638 117.903 73.2561 117.903C60.3484 117.903 51.6934 109.398 51.6934 96.7146C51.6934 84.0314 60.3484 75.4512 73.2561 75.4512C86.1638 75.4512 94.8188 83.9565 94.8188 96.6398ZM65.9978 96.7146C65.9978 101.479 68.9286 104.709 73.2561 104.709C77.5836 104.709 80.5143 101.479 80.5143 96.6398C80.5143 91.8009 77.5836 88.6457 73.2561 88.6457C68.9286 88.6457 65.9978 91.8758 65.9978 96.7146Z" fill="white"/>
<path d="M223.073 76.4734C223.659 76.4734 224.095 76.9099 224.095 77.496V87.0241C224.095 87.6102 223.659 88.0467 223.073 88.0467H221.164C218.383 88.0467 215.889 89.2938 214.929 91.1271V115.695C214.929 116.282 214.418 116.793 213.831 116.793H200.924C200.337 116.793 199.826 116.282 199.826 115.695V77.5584C199.826 77.0471 200.337 76.5358 200.924 76.5358H209.217C209.803 76.5358 210.165 77.0471 210.389 77.6332L211.487 80.8633C213.682 78.1445 217.286 76.4609 221.164 76.4609H223.073V76.4734Z" fill="white"/>
<path d="M232.277 104.047C232.426 103.611 232.863 103.536 233.224 103.748C236.08 105.432 239.161 106.754 241.655 106.754C243.201 106.903 244.224 106.018 244.224 104.92C244.224 101.179 228.161 102.351 228.161 88.5707C228.161 80.7263 234.833 75.4385 244.81 75.4385C249.574 75.4385 255.299 77.1221 259.19 79.6163C259.551 79.9156 259.776 80.2773 259.626 80.639L255.885 89.294C255.735 89.7305 255.299 89.8053 254.937 89.5933C252.081 87.76 249.001 86.5877 246.506 86.5877C244.96 86.4381 243.937 87.1739 243.937 88.3462C243.937 92.2372 260 90.8404 260 104.771C260 112.615 253.553 117.903 243.788 117.903C239.024 117.903 233.087 116.219 228.972 113.725C228.61 113.363 228.386 112.989 228.535 112.553L232.277 104.047Z" fill="white"/>
<path d="M98.7098 76.5977C99.2087 76.1488 99.8946 75.9617 100.556 76.0739C113.289 78.1067 107.053 97.699 109.946 106.055C111.892 111.667 118.302 111.343 120.996 106.454C123.54 101.852 123.316 95.554 123.403 90.2288C123.415 89.1936 124.176 88.3082 125.199 88.1336C126.471 87.9091 127.78 87.8966 129.04 88.1336C130.05 88.3331 130.786 89.2061 130.798 90.2412C130.836 95.5415 130.349 101.927 132.594 106.591C134.839 111.255 140.002 111.268 142.721 106.865C145.415 102.488 145.714 96.2149 145.839 90.977C145.864 90.129 145.377 89.3433 144.604 88.9816C142.783 88.1211 140.015 86.3003 139.94 85.4024C139.89 84.8412 140.364 83.3197 140.563 82.7211C142.87 75.8869 149.48 72.3201 152.274 81.3742C152.523 82.1848 152.648 83.4319 152.922 84.0929C153.197 84.7539 156.165 86.2879 156.95 86.6745C158.085 87.2232 159.27 87.6971 160.455 88.1087C161.64 88.5202 162.962 87.747 163.248 86.4874C165.481 77.2462 173.886 69.7261 183.851 72.2702C193.366 74.7021 195.374 86.0758 188.166 92.3115C183.988 95.9281 178.102 96.9258 172.602 96.9757C171.23 96.9757 170.17 98.2353 170.482 99.5697C171.392 103.436 173.799 106.99 177.391 108.786C180.908 110.557 185.746 110.707 189.388 109.222C190.086 108.936 191.109 108.162 191.683 107.988C192.256 107.813 193.055 108.973 193.366 109.41C193.99 110.32 194.651 111.604 194.751 112.714C194.888 114.211 194.751 114.174 193.541 114.847C188.977 117.416 182.217 117.828 177.216 116.443C168.349 113.974 163.959 106.229 162.849 97.6242C162.737 96.7637 162.101 96.0653 161.265 95.8533C159.495 95.4043 157.761 94.8556 156.09 94.1447C154.768 93.5835 153.259 94.4565 153.122 95.8907C152.523 101.815 151.151 108.15 147.285 112.627C142.309 118.389 133.567 119.1 128.491 113.064C127.98 112.452 127.518 111.417 127.082 110.956C126.982 110.844 126.957 110.657 126.745 110.719C123.428 115.994 116.768 118.451 110.757 116.718C98.9967 113.338 102.152 96.7762 101.404 87.9216C101.204 85.5396 100.169 84.28 99.1713 83.3945C95.6419 80.2643 97.4876 77.7451 98.7472 76.6102L98.7098 76.5977ZM178.064 78.4809C172.789 78.8301 169.708 84.0555 169.035 88.8195C168.998 89.044 168.86 90.0292 168.985 90.104C172.814 90.5904 178.339 90.1415 181.606 87.8842C186.47 84.5294 184.163 78.0693 178.064 78.4809Z" fill="white"/>
<path d="M27.9979 145.538L27.1998 146.922L26.8132 147.359L26.4765 148.157L25.7282 149.055C25.7282 149.055 24.955 149.828 24.5684 150.339C24.2067 150.776 24.0321 151.549 23.7203 151.549C23.3836 151.549 22.6603 150.938 22.6603 150.938L22.2986 150.676L22.2737 150.189L22.0991 149.129L21.6376 148.069L21.488 147.371C21.4131 147.034 21.1263 146.835 20.7896 146.835C20.5027 146.835 20.2034 146.959 19.8916 147.246C19.2182 147.895 18.5572 148.843 17.7092 149.878C16.8861 150.9 16.3249 152.522 15.5267 152.522C15.3771 152.522 15.2648 152.085 15.2648 152.085L15.0528 151.773L14.953 150.975L14.3918 149.067L13.7184 144.952L13.5438 143.33C13.5438 143.33 13.1821 142.295 13.1821 141.734C13.1821 141.497 13.1821 141.223 13.7184 141.223C13.9553 141.223 14.5664 142.507 14.5664 142.507L14.8533 143.043L14.9032 143.63L15.6764 147.072C15.8884 148.107 16.2999 148.955 16.4246 148.955C16.7614 148.955 18.8939 146.361 20.1785 144.428C20.6649 143.679 20.9018 143.019 21.488 142.931L22.1115 142.881L22.1864 143.368L22.6478 144.864L23.184 147.483C23.184 147.483 23.421 148.306 23.8326 148.306C24.0695 148.306 24.4561 147.383 24.4561 147.383C24.4561 147.383 24.8427 147.097 25.2044 146.71C25.7656 146.099 26.9254 144.552 27.549 143.517C27.8857 142.981 28.2224 142.744 28.4718 142.744C28.8335 142.744 29.0954 143.156 29.0954 143.667C29.0954 144.153 28.397 144.777 28.0104 145.488L27.9979 145.538Z" fill="#D9932C"/>
<path d="M43.1008 152.409C43.1008 153.282 42.5646 154.293 41.8412 154.293C41.5544 154.293 41.2551 153.956 41.2551 153.644C41.2551 152.534 41.6417 150.252 41.6417 150.252L41.492 149.454L41.4421 148.456L41.3424 147.845C41.1304 146.86 40.0329 145.962 38.923 145.962C38.7982 145.962 38.6112 145.937 38.4116 145.937C38.0001 145.937 37.4638 146.012 37.0772 146.348C36.304 147.047 35.7927 147.845 35.7927 147.845V148.668L35.431 150.239L35.219 153.457C35.1941 153.819 34.9322 154.13 34.5705 154.13C34.0093 154.13 33.8472 153.844 33.8472 153.02V152.023L33.9719 151.511L33.9469 150.065L34.0717 148.83L33.9719 148.269L34.1839 143.842C34.2338 143.068 34.2837 142.295 34.2837 141.472C34.2837 140.649 34.134 139.801 34.134 138.741V138.404C34.134 137.407 34.1839 136.172 35.007 136.172C35.3687 136.172 35.7303 136.82 35.7802 137.17L35.8301 137.706L35.7054 138.217L35.8301 138.965L35.8051 139.614C35.8051 139.614 35.6306 141.26 35.6306 142.545C35.6306 143.193 35.7054 144.191 35.7054 144.191L35.8301 144.914L36.5784 144.989L37.4015 144.453L38.1497 144.241L39.1225 143.929L39.8209 144.191C39.8209 144.191 41.4421 144.216 42.2652 146.423C42.6768 147.608 42.9636 149.279 43.0634 151.025L43.1133 152.36V152.409H43.1008Z" fill="#D9932C"/>
<path d="M55.0853 148.131C53.6761 148.131 51.9675 147.62 50.895 147.62C49.8225 147.62 49.2488 148.131 49.2488 148.705C49.2488 148.904 49.3236 149.141 49.4857 149.353C50.259 150.538 52.192 151.511 52.192 151.511L53.04 151.773L53.7135 151.823L54.0502 152.159L54.4867 152.521L54.5366 153.369L54.2747 153.631L54.0627 153.968C54.0627 153.968 53.726 154.117 53.5763 154.117C52.4165 154.117 50.7952 153.057 50.7952 153.057L49.8973 152.521L49.6853 152.084L48.2386 150.314C48.2386 150.314 47.877 149.615 47.877 149.154C47.877 148.692 48.089 147.919 48.089 147.919L48.1388 146.373C48.1388 146.061 48.4506 144.801 48.4506 144.801C48.4506 144.801 49.6354 143.442 50.4336 142.868C51.0197 142.482 51.6931 142.282 51.6931 142.282L52.2544 142.02L53.5638 141.896C55.5218 141.896 56.6567 143.617 56.6567 146.373C56.6567 147.296 55.9832 148.144 55.0853 148.144V148.131ZM53.8507 143.554C53.6761 143.479 53.4142 143.454 53.2022 143.454C52.9902 143.454 52.8156 143.479 52.8156 143.479L52.192 143.916L51.4188 143.966C51.4188 143.966 50.3338 144.689 50.3338 145.2C50.3338 145.487 50.5458 145.824 50.8451 146.048C50.9449 146.123 51.0197 146.148 51.1319 146.148C51.3689 146.148 51.5934 145.999 51.8802 145.999C51.955 145.999 52.0049 145.999 52.0922 146.023L52.8156 146.26L53.5139 146.186C54.9232 145.974 55.21 145.824 55.21 145.026C55.21 144.278 54.5615 143.816 53.8507 143.554Z" fill="#D9932C"/>
<path d="M67.6815 143.531C65.499 143.992 64.7009 145.252 64.7009 145.252L64.5762 146.025L64.0399 147.309C64.0399 147.309 63.9401 147.621 63.9401 148.369C63.9401 149.679 64.3766 150.789 64.3766 151.275C64.3766 151.849 64.0898 152.871 63.4538 152.871C63.1919 152.871 63.0422 152.46 62.9175 152.148L62.6805 151.475L62.3937 150.938L62.4436 149.392L62.3438 148.906L62.3688 147.933L62.2939 147.284L62.5059 146.075L62.3812 144.142L62.0944 142.67L61.9946 140.974V140.924C61.9946 140.537 62.2815 140.176 62.7678 140.176C63.0297 140.176 63.4413 140.488 63.4413 140.737V140.974L63.6159 141.597V142.059L63.6907 142.321C63.8653 142.757 64.202 143.144 64.5886 143.144H64.6884C65.948 142.969 66.2847 141.498 67.6192 141.498C68.5171 141.498 69.2903 141.834 69.2903 142.321C69.2903 142.832 68.567 143.356 67.694 143.531H67.6815Z" fill="#D9932C"/>
<path d="M79.5165 148.131C78.1072 148.131 76.3987 147.62 75.3261 147.62C74.2536 147.62 73.6799 148.131 73.6799 148.705C73.6799 148.904 73.7548 149.141 73.9169 149.353C74.6901 150.538 76.6231 151.511 76.6231 151.511L77.4712 151.773L78.1446 151.823L78.4814 152.159L78.9179 152.521L78.9677 153.369L78.7058 153.631L78.4938 153.968C78.4938 153.968 78.1571 154.117 78.0075 154.117C76.8476 154.117 75.2264 153.057 75.2264 153.057L74.3284 152.521L74.1164 152.084L72.6698 150.314C72.6698 150.314 72.3081 149.615 72.3081 149.154C72.3081 148.692 72.5201 147.919 72.5201 147.919L72.57 146.373C72.57 146.061 72.8818 144.801 72.8818 144.801C72.8818 144.801 74.0665 143.442 74.8647 142.868C75.4509 142.482 76.1243 142.282 76.1243 142.282L76.6855 142.02L77.995 141.896C79.953 141.896 81.0878 143.617 81.0878 146.373C81.0878 147.296 80.4144 148.144 79.5165 148.144V148.131ZM78.2818 143.554C78.1072 143.479 77.8453 143.454 77.6333 143.454C77.4213 143.454 77.2467 143.479 77.2467 143.479L76.6231 143.916L75.8499 143.966C75.8499 143.966 74.7649 144.689 74.7649 145.2C74.7649 145.487 74.9769 145.824 75.2763 146.048C75.376 146.123 75.4509 146.148 75.5631 146.148C75.8 146.148 76.0245 145.999 76.3114 145.999C76.3862 145.999 76.4361 145.999 76.5234 146.023L77.2467 146.26L77.9451 146.186C79.3543 145.974 79.6412 145.824 79.6412 145.026C79.6412 144.278 78.9927 143.816 78.2818 143.554Z" fill="#D9932C"/>
<path d="M104.983 148.956L104.908 150.165V150.315C104.908 150.776 104.983 151.525 104.983 151.525L104.521 151.936L104.184 152.323C104.184 152.323 103.212 152.298 103.212 151.762V151.737L103.262 150.938L103.137 150.14L103.287 148.756V146.598C103.287 146.312 102.875 144.466 101.403 144.466C100.431 144.466 99.2708 145.364 99.2708 145.364L98.8593 145.875L97.9364 146.598C97.9364 146.598 97.5997 147.322 97.3128 147.783C97.0759 148.195 97.001 149.068 97.001 149.629C97.001 150.914 97.3128 150.789 97.3128 151.861C97.3128 152.423 97.0759 153.358 96.39 153.358C96.0033 153.358 95.5918 152.709 95.5918 152.709L95.6916 151.525L95.5918 150.627L95.7664 149.217L95.6417 144.765L95.8537 143.817L95.8038 142.994L96.0408 142.707L96.2528 142.296C96.2528 142.296 97.3627 142.421 97.3378 142.707L97.2629 143.705V143.805C97.2629 144.017 97.3877 144.241 97.8241 144.241C98.2357 144.241 98.959 143.493 98.959 143.493L99.5826 143.206C99.5826 143.206 100.431 142.508 101.541 142.508C102.438 142.508 103.237 143.019 104.085 144.204C104.621 144.927 104.908 145.489 104.908 145.825V146.411L105.082 147.334L105.008 148.931L104.983 148.956Z" fill="#D9932C"/>
<path d="M118.851 152.584C118.776 152.609 118.701 152.634 118.589 152.634C118.352 152.634 118.152 152.559 118.152 152.559L117.117 151.786L115.059 152.222C114.261 152.397 113.513 152.459 112.902 152.459C111.954 152.459 111.518 151.636 110.944 150.863C110.433 150.214 110.021 149.479 110.021 149.042C110.021 146.673 111.717 144.64 111.717 144.64L112.341 143.717L112.802 143.505C112.802 143.505 113.451 143.044 114.087 143.044C114.548 143.044 115.221 143.405 115.658 143.405C115.783 143.405 115.895 143.38 115.97 143.305L116.456 142.794C116.456 142.794 116.693 142.694 116.893 142.694C117.354 142.694 117.978 144.104 118.102 145.189L118.227 146.299L118.763 148.718V149.853L119.15 150.776C119.15 150.776 119.15 152.472 118.838 152.596L118.851 152.584ZM116.743 147.284L116.207 146.411L115.97 145.924C115.97 145.924 115.047 145.276 114.087 145.276C112.802 145.276 111.33 146.66 111.33 148.207C111.33 148.668 111.717 149.491 111.717 149.491L112.415 150.027L112.852 150.414C112.852 150.414 113.5 150.751 113.775 150.751C115.658 150.751 116.918 149.778 116.918 148.132C116.918 147.77 116.743 147.284 116.743 147.284Z" fill="#D9932C"/>
<path d="M130.075 142.395C129.9 142.57 129.813 142.907 129.589 142.907H129.564L129.027 142.857L128.379 142.981L127.793 142.857L127.431 143.006L127.306 145.713L126.995 147.072L127.119 148.893L127.044 150.177L127.194 151.849L127.019 152.647L127.094 153.108L126.832 153.57L126.421 154.131L126.084 153.981H125.648C125.648 153.981 125.436 153.395 125.436 152.946C125.436 152.485 125.61 151.761 125.61 151.761L125.56 149.317L125.685 148.394L125.61 147.82L125.847 146.536L125.872 144.915L126.084 143.63L125.698 143.194L123.49 142.832C123.253 142.807 123.104 142.595 123.104 142.296C123.104 141.996 123.44 141.136 123.44 141.136C123.44 141.136 124.026 141.348 124.475 141.348H124.55C125.274 141.298 126.122 140.911 126.122 140.425L126.047 139.041L126.196 138.392L126.246 137.906L126.421 137.257C126.421 137.257 126.396 137.157 126.396 136.995C126.396 136.584 126.521 135.811 127.431 135.811C127.793 135.811 127.967 136.072 127.967 136.459C127.967 136.584 127.705 137.694 127.705 137.694L127.755 138.903L127.656 140.375L128.354 140.812L129.589 140.911C129.95 140.961 130.511 141.472 130.511 141.971C130.511 142.121 130.225 142.233 130.075 142.383V142.395Z" fill="#D9932C"/>
<path d="M141.436 146.437L141.461 147.11V147.16C141.461 147.746 140.999 147.958 140.463 149.293C139.952 150.527 139.328 151.4 139.328 151.4L138.63 151.837L137.932 152.398C137.932 152.398 137.395 152.348 137.233 152.348C135.437 152.348 133.118 149.492 133.118 146.811V146.736L133.143 145.551L133.118 144.778L133.38 144.292C133.38 144.292 133.405 143.344 134.228 143.344C134.539 143.344 134.814 143.493 134.814 143.805L134.739 147.384C134.739 147.596 135.362 149.006 135.362 149.006L135.699 149.392L136.186 150.066C136.186 150.066 136.647 150.452 137.221 150.452C138.48 150.452 138.767 148.956 138.767 148.956L139.54 148.183L139.902 146.848L139.927 144.479C139.927 144.329 140.264 143.631 140.675 143.631C140.7 143.631 140.75 143.656 140.775 143.656C141.087 143.705 141.112 143.992 141.286 144.217C141.436 144.429 141.648 144.728 141.648 144.728L141.723 145.526L141.436 146.424V146.437Z" fill="#D9932C"/>
<path d="M152.661 143.531C150.478 143.992 149.68 145.252 149.68 145.252L149.555 146.025L149.019 147.309C149.019 147.309 148.919 147.621 148.919 148.369C148.919 149.679 149.356 150.789 149.356 151.275C149.356 151.849 149.069 152.871 148.433 152.871C148.171 152.871 148.021 152.46 147.897 152.148L147.66 151.475L147.373 150.938L147.423 149.392L147.323 148.906L147.348 147.933L147.273 147.284L147.485 146.075L147.36 144.142L147.073 142.67L146.974 140.974V140.924C146.974 140.537 147.26 140.176 147.747 140.176C148.009 140.176 148.42 140.488 148.42 140.737V140.974L148.595 141.597V142.059L148.67 142.321C148.844 142.757 149.181 143.144 149.568 143.144H149.667C150.927 142.969 151.264 141.498 152.598 141.498C153.496 141.498 154.269 141.834 154.269 142.321C154.269 142.832 153.546 143.356 152.673 143.531H152.661Z" fill="#D9932C"/>
<path d="M164.495 148.131C163.086 148.131 161.378 147.62 160.305 147.62C159.233 147.62 158.659 148.131 158.659 148.705C158.659 148.904 158.734 149.141 158.896 149.353C159.669 150.538 161.602 151.511 161.602 151.511L162.45 151.773L163.124 151.823L163.46 152.159L163.897 152.521L163.947 153.369L163.685 153.631L163.473 153.968C163.473 153.968 163.136 154.117 162.986 154.117C161.827 154.117 160.205 153.057 160.205 153.057L159.307 152.521L159.095 152.084L157.649 150.314C157.649 150.314 157.287 149.615 157.287 149.154C157.287 148.692 157.499 147.919 157.499 147.919L157.549 146.373C157.549 146.061 157.861 144.801 157.861 144.801C157.861 144.801 159.046 143.442 159.844 142.868C160.43 142.482 161.103 142.282 161.103 142.282L161.665 142.02L162.974 141.896C164.932 141.896 166.067 143.617 166.067 146.373C166.067 147.296 165.393 148.144 164.495 148.144V148.131ZM163.261 143.554C163.086 143.479 162.824 143.454 162.612 143.454C162.4 143.454 162.226 143.479 162.226 143.479L161.602 143.916L160.829 143.966C160.829 143.966 159.744 144.689 159.744 145.2C159.744 145.487 159.956 145.824 160.255 146.048C160.355 146.123 160.43 146.148 160.542 146.148C160.779 146.148 161.004 145.999 161.29 145.999C161.365 145.999 161.415 145.999 161.502 146.023L162.226 146.26L162.924 146.186C164.333 145.974 164.62 145.824 164.62 145.026C164.62 144.278 163.972 143.816 163.261 143.554Z" fill="#D9932C"/>
<path d="M188.14 153.407L187.604 153.694L186.37 153.769C186.37 153.769 185.983 153.819 185.596 153.819C185.359 153.819 185.135 153.819 184.948 153.744L183.738 153.307C183.526 153.232 183.401 153.133 183.227 153.133C183.127 153.133 183.015 153.158 182.89 153.232C182.678 153.332 182.628 153.769 182.628 154.105C182.628 154.392 182.653 154.617 182.653 154.617C182.653 154.617 182.291 155.003 182.005 155.003C181.793 155.003 181.543 154.667 181.543 154.667L181.206 154.305L181.256 152.858C181.256 152.858 181.082 152.447 181.019 151.723L180.945 150.801L180.683 150.002L180.446 146.81L180.134 145.887L180.009 142.981L179.835 142.208L179.86 139.951L179.76 137.319V137.269C179.76 136.783 180.196 136.546 180.583 136.546C180.87 136.546 181.094 136.671 181.094 136.908L181.144 140.05L181.294 140.724L181.369 142.033L181.493 144.041L181.78 144.577L182.017 145.301L182.229 145.425C182.229 145.425 182.641 144.814 182.952 144.602C183.576 144.191 185.185 143.655 185.185 143.655C185.185 143.655 186.394 143.505 186.881 143.505C188.14 143.505 188.864 144.328 188.864 144.328L189.25 144.503L189.637 145.201L189.974 145.438L190.285 146.211C190.285 146.211 190.747 147.782 190.747 148.68C190.747 152.771 188.128 153.419 188.128 153.419L188.14 153.407ZM187.055 145.101C184.511 145.101 182.578 146.648 182.578 148.493C182.578 150.501 184.736 152.384 186.569 152.384C186.931 152.384 187.679 151.898 187.679 151.898L188.303 151.025L188.789 150.564C188.789 150.564 189.275 149.591 189.275 149.092C189.275 148.344 188.939 145.101 187.068 145.101H187.055Z" fill="#D9932C"/>
<path d="M201.585 143.531C199.403 143.992 198.605 145.252 198.605 145.252L198.48 146.025L197.944 147.309C197.944 147.309 197.844 147.621 197.844 148.369C197.844 149.679 198.28 150.789 198.28 151.275C198.28 151.849 197.994 152.871 197.358 152.871C197.096 152.871 196.946 152.46 196.821 152.148L196.584 151.475L196.298 150.938L196.347 149.392L196.248 148.906L196.273 147.933L196.198 147.284L196.41 146.075L196.285 144.142L195.998 142.67L195.898 140.974V140.924C195.898 140.537 196.185 140.176 196.672 140.176C196.934 140.176 197.345 140.488 197.345 140.737V140.974L197.52 141.597V142.059L197.595 142.321C197.769 142.757 198.106 143.144 198.492 143.144H198.592C199.852 142.969 200.189 141.498 201.523 141.498C202.421 141.498 203.194 141.834 203.194 142.321C203.194 142.832 202.471 143.356 201.598 143.531H201.585Z" fill="#D9932C"/>
<path d="M207.845 138.767H207.721C207.384 138.767 207.047 138.692 206.948 138.48L206.636 137.969L206.76 137.245L207.384 136.622L207.721 136.11L208.257 136.16C208.693 136.235 208.93 136.472 208.93 137.033C208.93 138.006 208.369 138.729 207.845 138.754V138.767ZM208.93 144.329L209.08 147.285L208.955 147.871C208.955 147.871 208.693 148.794 208.693 149.417C208.693 150.091 208.93 151.138 208.93 151.138L208.806 151.674C208.681 152.186 208.319 152.66 207.908 152.66C207.396 152.66 207.259 152.323 207.259 151.625C207.259 151.45 207.409 150.976 207.409 150.602L207.334 148.931C207.334 148.931 207.184 147.459 207.184 146.05C207.184 145.202 207.234 144.379 207.421 143.892L207.658 143.194L207.92 142.446C208.02 142.184 208.332 141.909 208.594 141.909C209.005 141.909 209.03 142.583 209.03 142.583L209.155 142.994L208.943 144.329H208.93Z" fill="#D9932C"/>
<path d="M224.669 148.956L224.595 150.165V150.315C224.595 150.776 224.669 151.525 224.669 151.525L224.208 151.936L223.871 152.323C223.871 152.323 222.898 152.298 222.898 151.762V151.737L222.948 150.938L222.824 150.14L222.973 148.756V146.598C222.973 146.312 222.562 144.466 221.09 144.466C220.117 144.466 218.958 145.364 218.958 145.364L218.546 145.875L217.623 146.598C217.623 146.598 217.286 147.322 217.012 147.783C216.775 148.195 216.7 149.068 216.7 149.629C216.7 150.914 217.012 150.789 217.012 151.861C217.012 152.423 216.775 153.358 216.089 153.358C215.703 153.358 215.291 152.709 215.291 152.709L215.391 151.525L215.291 150.627L215.466 149.217L215.341 144.765L215.553 143.817L215.503 142.994L215.74 142.707L215.952 142.296C215.952 142.296 217.062 142.421 217.037 142.707L216.962 143.705V143.805C216.962 144.017 217.087 144.241 217.523 144.241C217.935 144.241 218.658 143.493 218.658 143.493L219.282 143.206C219.282 143.206 220.13 142.508 221.24 142.508C222.138 142.508 222.936 143.019 223.784 144.204C224.32 144.927 224.607 145.489 224.607 145.825V146.411L224.782 147.334L224.707 148.931L224.669 148.956Z" fill="#D9932C"/>
<path d="M239.572 148.394C239.572 148.681 239.547 148.831 239.397 149.068L238.574 150.203C238.574 150.203 238.188 150.44 237.651 150.614C237.389 150.739 236.828 151.076 236.541 151.076H236.516L234.434 150.901H234.384C233.71 150.901 233.486 151.899 233.486 152.884V153.146L233.586 154.792C233.611 155.378 233.897 155.565 234.234 155.715L234.746 155.915C234.82 156.014 235.057 156.276 235.444 156.663C237.938 158.721 238.562 159.419 238.562 161.389C238.562 164.22 236.479 165.792 233.049 165.792C230.655 165.792 229.084 164.382 229.084 164.382L227.487 162.948L227.313 162.075C227.313 162.075 227.051 161.202 227.051 160.429C227.051 158.209 228.048 156.775 229.907 156.151L231.865 155.154L231.964 154.256L231.939 153.557L232.114 152.56L232.089 151.936L232.264 150.826V150.776C232.264 150.265 231.129 149.28 230.979 149.155L229.919 147.659L229.657 146.137L229.894 144.902L230.231 144.566L230.381 144.229L231.204 143.356C231.977 142.433 232.775 141.972 233.96 141.972C234.272 141.972 236.018 142.72 236.018 142.72L237.589 143.181C238.674 143.493 239.572 145.85 239.572 148.145V148.407V148.394ZM236.641 161.003V160.279C236.616 159.531 233.399 157.037 232.551 157.037C231.703 157.037 230.106 158.035 229.957 158.172L229.595 158.533C229.595 158.533 228.946 159.095 228.797 159.282L228.585 160.155C228.66 160.591 228.971 162.499 230.106 163.135C231.316 163.909 232.526 164.133 233.498 164.133C235.02 164.133 236.866 163.11 236.866 162.075C236.866 162 236.866 161.951 236.841 161.876L236.629 161.003H236.641ZM235.918 144.142L235.506 144.017L234.858 144.092L234.297 143.83L233.885 143.705C233.81 143.68 233.71 143.655 233.623 143.655C232.75 143.655 231.64 145.277 231.64 146.199C231.64 147.721 233.436 149.317 235.681 149.317C237.128 149.317 237.863 148.469 237.863 147.235C237.863 145.838 236.965 144.429 235.905 144.142H235.918Z" fill="#D9932C"/>
<path d="M251.046 145.102L249.985 143.817L249.424 143.555C249.424 143.555 247.416 143.705 247.416 145.052C247.416 145.463 247.628 145.775 248.003 145.975L249.499 146.673L249.861 147.159L250.447 147.446L250.883 148.606C250.883 148.606 251.12 149.691 251.12 149.99C251.12 151.3 250.634 151.998 250.634 151.998L250.397 152.647L249.013 153.42C249.013 153.42 248.264 154.031 247.055 154.031C245.97 154.031 244.411 153.545 243.089 152.921C242.677 152.684 242.166 152.148 242.166 151.562C242.166 151.3 242.727 151.025 242.727 151.025L243.313 151.15H243.9L245.034 151.774L245.658 151.799C245.658 151.799 246.768 152.21 247.204 152.21C248.102 152.21 249.724 151.075 249.724 149.916C249.724 149.429 249.337 148.943 248.614 148.319C246.868 146.798 245.907 146.848 245.907 145.588C245.907 144.042 246.419 143.218 246.419 143.218L247.242 142.445L247.915 142.296C247.915 142.296 249.05 142.009 249.561 142.009C250.646 142.009 251.981 143.144 251.981 143.755C251.981 145.089 251.033 145.089 251.033 145.089L251.046 145.102Z" fill="#D9932C"/>
<path d="M46.0939 171.915V172.476L45.9443 173.536L45.8694 177.066L45.6325 178.874L45.5327 181.244L45.5576 182.528L45.3456 183.177L45.2209 184.262C45.1212 184.985 44.7096 185.883 44.086 185.883C43.6994 185.883 43.4126 184.96 43.4126 184.262C43.4126 183.563 43.874 182.379 43.9239 181.743L43.9987 179.735L43.9489 178.986L44.3854 176.979L44.4602 173.586L44.6971 172.377L44.747 171.267C44.747 171.267 45.0089 170.543 45.0588 170.032C45.0837 169.795 45.0837 169.384 45.0837 169.084V168.523L45.3207 167.7L45.3955 167.139C45.4703 166.777 45.8071 166.652 46.1438 166.652C46.4805 166.652 46.5304 167.326 46.5304 167.887C46.5304 168.299 46.5055 168.635 46.5055 168.635L46.0939 171.953V171.915Z" fill="#D9932C"/>
<path d="M58.3778 179.01C56.9686 179.01 55.26 178.499 54.1875 178.499C53.1149 178.499 52.5413 179.01 52.5413 179.584C52.5413 179.796 52.6161 180.02 52.7782 180.232C53.5514 181.417 55.4845 182.39 55.4845 182.39L56.3325 182.652L57.006 182.702L57.3427 183.038L57.7792 183.4L57.8291 184.248L57.5672 184.51L57.3552 184.847C57.3552 184.847 57.0184 184.996 56.8688 184.996C55.709 184.996 54.0877 183.936 54.0877 183.936L53.1898 183.4L52.9778 182.963L51.5311 181.192C51.5311 181.192 51.1694 180.494 51.1694 180.033C51.1694 179.546 51.3814 178.798 51.3814 178.798L51.4313 177.252C51.4313 176.94 51.7431 175.68 51.7431 175.68C51.7431 175.68 52.9279 174.321 53.726 173.747C54.3122 173.361 54.9856 173.161 54.9856 173.161L55.5468 172.899L56.8563 172.774C58.8143 172.774 59.9492 174.495 59.9492 177.252C59.9492 178.174 59.2757 179.023 58.3778 179.023V179.01ZM57.1431 174.433C56.9686 174.358 56.7067 174.333 56.4946 174.333C56.2826 174.333 56.108 174.358 56.108 174.358L55.4845 174.795L54.7113 174.845C54.7113 174.845 53.6263 175.568 53.6263 176.079C53.6263 176.366 53.8383 176.69 54.1376 176.927C54.2374 177.002 54.3122 177.027 54.4244 177.027C54.6614 177.027 54.8859 176.877 55.1727 176.877C55.2475 176.877 55.2974 176.877 55.3847 176.902L56.108 177.139L56.8064 177.065C58.2157 176.865 58.5025 176.703 58.5025 175.905C58.5025 175.156 57.854 174.695 57.1431 174.433Z" fill="#D9932C"/>
<path d="M73.1065 183.463C73.0316 183.488 72.9568 183.513 72.8446 183.513C72.6076 183.513 72.4081 183.438 72.4081 183.438L71.373 182.665L69.3152 183.101C68.5171 183.276 67.7688 183.338 67.1577 183.338C66.2099 183.338 65.7734 182.515 65.1997 181.742C64.6884 181.094 64.2769 180.345 64.2769 179.921C64.2769 177.552 65.9729 175.519 65.9729 175.519L66.5965 174.596L67.0579 174.397C67.0579 174.397 67.7064 173.935 68.3425 173.935C68.8039 173.935 69.4774 174.297 69.9138 174.297C70.0386 174.297 70.1508 174.272 70.2256 174.197L70.712 173.686C70.712 173.686 70.949 173.586 71.1485 173.586C71.6099 173.586 72.2335 174.995 72.3582 176.08L72.4829 177.19L73.0192 179.61V180.744L73.4058 181.667C73.4058 181.667 73.4058 183.363 73.094 183.488L73.1065 183.463ZM70.9988 178.163L70.4626 177.29L70.2256 176.804C70.2256 176.804 69.3028 176.155 68.3425 176.155C67.0579 176.155 65.5863 177.539 65.5863 179.086C65.5863 179.547 65.9729 180.37 65.9729 180.37L66.6713 180.907L67.1078 181.293C67.1078 181.293 67.7563 181.63 68.0307 181.63C69.9138 181.63 71.1734 180.657 71.1734 179.011C71.1734 178.649 70.9988 178.163 70.9988 178.163Z" fill="#D9932C"/>
<path d="M84.5799 174.409C82.3975 174.871 81.5993 176.13 81.5993 176.13L81.4746 176.904L80.9384 178.188C80.9384 178.188 80.8386 178.5 80.8386 179.248C80.8386 180.558 81.2751 181.668 81.2751 182.154C81.2751 182.715 80.9882 183.75 80.3522 183.75C80.0903 183.75 79.9407 183.339 79.8159 183.027L79.579 182.354L79.2921 181.817L79.342 180.271L79.2423 179.785L79.2672 178.812L79.1924 178.163L79.4044 176.954L79.2797 175.021L78.9928 173.549L78.8931 171.853V171.803C78.8931 171.416 79.1799 171.055 79.6663 171.055C79.9282 171.055 80.3397 171.366 80.3397 171.628V171.865L80.5143 172.476V172.938L80.5892 173.2C80.7638 173.636 81.1005 174.023 81.4871 174.023H81.5868C82.8464 173.848 83.1832 172.377 84.5176 172.377C85.4155 172.377 86.1887 172.713 86.1887 173.2C86.1887 173.711 85.4654 174.222 84.5924 174.409H84.5799Z" fill="#D9932C"/>
<path d="M99.3957 179.833L99.3209 181.043V181.193C99.3209 181.654 99.3957 182.403 99.3957 182.403L98.9343 182.814L98.5976 183.201C98.5976 183.201 97.6248 183.176 97.6248 182.627V182.602L97.6747 181.804L97.55 181.006L97.6996 179.621V177.464C97.6996 177.177 97.2881 175.331 95.8165 175.331C94.8437 175.331 93.6839 176.229 93.6839 176.229L93.2723 176.741L92.3495 177.464C92.3495 177.464 92.0128 178.187 91.7259 178.649C91.489 179.06 91.4141 179.933 91.4141 180.507C91.4141 181.791 91.7259 181.667 91.7259 182.739C91.7259 183.3 91.489 184.236 90.803 184.236C90.4164 184.236 90.0049 183.587 90.0049 183.587L90.1047 182.403L90.0049 181.505L90.1795 180.095L90.0548 175.643L90.2668 174.695L90.2169 173.872L90.4538 173.585L90.6659 173.174C90.6659 173.174 91.7758 173.299 91.7509 173.585L91.676 174.583V174.683C91.676 174.882 91.8007 175.119 92.2372 175.119C92.6488 175.119 93.3721 174.371 93.3721 174.371L93.9957 174.084C93.9957 174.084 94.8437 173.386 95.9537 173.386C96.8516 173.386 97.6497 173.897 98.4978 175.082C99.0341 175.805 99.3209 176.366 99.3209 176.703V177.289L99.4955 178.212L99.4207 179.809L99.3957 179.833Z" fill="#D9932C"/>
<path d="M106.255 169.645H106.13C105.793 169.645 105.456 169.57 105.357 169.358L105.045 168.847L105.17 168.123L105.793 167.512L106.13 167.001L106.666 167.051C107.103 167.126 107.34 167.363 107.34 167.924C107.34 168.897 106.778 169.62 106.255 169.645ZM107.327 175.207L107.477 178.163L107.352 178.749C107.352 178.749 107.09 179.672 107.09 180.295C107.09 180.969 107.327 182.016 107.327 182.016L107.202 182.553C107.078 183.064 106.716 183.525 106.305 183.525C105.793 183.525 105.656 183.189 105.656 182.503C105.656 182.328 105.806 181.854 105.806 181.468L105.731 179.796C105.731 179.796 105.581 178.325 105.581 176.916C105.581 176.068 105.631 175.244 105.818 174.758L106.055 174.06L106.317 173.311C106.417 173.05 106.729 172.775 106.99 172.775C107.402 172.775 107.427 173.449 107.427 173.449L107.552 173.86L107.34 175.195L107.327 175.207Z" fill="#D9932C"/>
<path d="M123.066 179.833L122.991 181.043V181.193C122.991 181.654 123.066 182.403 123.066 182.403L122.604 182.814L122.268 183.201C122.268 183.201 121.295 183.176 121.295 182.627V182.602L121.345 181.804L121.22 181.006L121.37 179.621V177.464C121.37 177.177 120.958 175.331 119.487 175.331C118.514 175.331 117.354 176.229 117.354 176.229L116.942 176.741L116.02 177.464C116.02 177.464 115.683 178.187 115.409 178.649C115.172 179.06 115.097 179.933 115.097 180.507C115.097 181.791 115.409 181.667 115.409 182.739C115.409 183.3 115.172 184.236 114.486 184.236C114.099 184.236 113.688 183.587 113.688 183.587L113.787 182.403L113.688 181.505L113.862 180.095L113.737 175.643L113.949 174.695L113.9 173.872L114.136 173.585L114.348 173.174C114.348 173.174 115.458 173.299 115.433 173.585L115.359 174.583V174.683C115.359 174.882 115.483 175.119 115.92 175.119C116.331 175.119 117.055 174.371 117.055 174.371L117.678 174.084C117.678 174.084 118.526 173.386 119.636 173.386C120.534 173.386 121.332 173.897 122.18 175.082C122.717 175.805 123.003 176.366 123.003 176.703V177.289L123.178 178.212L123.103 179.809L123.066 179.833Z" fill="#D9932C"/>
<path d="M137.969 179.274C137.969 179.561 137.944 179.71 137.795 179.947L136.972 181.082C136.972 181.082 136.585 181.319 136.049 181.494C135.787 181.619 135.226 181.955 134.939 181.955H134.914L132.831 181.781H132.781C132.108 181.781 131.883 182.778 131.883 183.764V184.025L131.983 185.672C132.008 186.258 132.295 186.445 132.632 186.595L133.143 186.807C133.218 186.906 133.455 187.168 133.841 187.555C136.336 189.613 136.959 190.311 136.959 192.294C136.959 195.125 134.876 196.696 131.447 196.696C129.052 196.696 127.481 195.287 127.481 195.287L125.885 193.84L125.71 192.967C125.71 192.967 125.448 192.094 125.448 191.321C125.448 189.114 126.446 187.667 128.304 187.056L130.262 186.058L130.362 185.16L130.337 184.462L130.512 183.464L130.487 182.853L130.661 181.743V181.693C130.661 181.182 129.526 180.197 129.377 180.072L128.317 178.576L128.055 177.054L128.292 175.819L128.628 175.483L128.778 175.146L129.601 174.273C130.374 173.35 131.173 172.889 132.357 172.889C132.669 172.889 134.415 173.637 134.415 173.637L135.986 174.098C137.071 174.41 137.969 176.78 137.969 179.062V179.324V179.274ZM135.039 191.882V191.159C135.014 190.411 131.796 187.916 130.948 187.916C130.1 187.916 128.504 188.914 128.354 189.051L127.992 189.413C127.992 189.413 127.344 189.987 127.194 190.161L126.982 191.034C127.057 191.471 127.369 193.379 128.504 194.015C129.713 194.788 130.923 195.013 131.896 195.013C133.417 195.013 135.263 193.978 135.263 192.955C135.263 192.88 135.263 192.83 135.238 192.743L135.026 191.87L135.039 191.882ZM134.315 175.034L133.904 174.909L133.255 174.984L132.694 174.722L132.282 174.597C132.208 174.572 132.108 174.547 132.021 174.547C131.148 174.547 130.038 176.169 130.038 177.091C130.038 178.613 131.834 180.209 134.078 180.209C135.525 180.209 136.261 179.361 136.261 178.127C136.261 176.742 135.363 175.321 134.303 175.046L134.315 175.034Z" fill="#D9932C"/>
<path d="M158.347 173.274C158.173 173.448 158.085 173.785 157.861 173.785H157.836L157.3 173.735L156.651 173.86L156.065 173.735L155.703 173.885L155.579 176.591L155.267 177.95L155.392 179.771L155.317 181.056L155.467 182.727L155.292 183.525L155.367 183.986L155.105 184.448L154.693 185.021L154.357 184.872H153.92C153.92 184.872 153.708 184.286 153.708 183.849C153.708 183.388 153.883 182.664 153.883 182.664L153.833 180.22L153.958 179.297L153.883 178.736L154.12 177.451L154.145 175.83L154.357 174.546L153.97 174.109L151.763 173.747C151.526 173.722 151.376 173.51 151.376 173.211C151.376 172.912 151.713 172.051 151.713 172.051C151.713 172.051 152.299 172.251 152.748 172.251H152.823C153.546 172.201 154.394 171.814 154.394 171.328L154.319 169.931L154.469 169.283L154.519 168.796L154.693 168.148C154.693 168.148 154.668 168.048 154.668 167.886C154.668 167.474 154.793 166.701 155.703 166.701C156.065 166.701 156.24 166.963 156.24 167.35C156.24 167.474 155.978 168.584 155.978 168.584L156.028 169.794L155.928 171.266L156.626 171.702L157.861 171.802C158.223 171.852 158.784 172.363 158.784 172.862C158.784 173.012 158.497 173.124 158.347 173.274Z" fill="#D9932C"/>
<path d="M166.928 183.313C164.845 183.313 163.224 182.228 163.224 182.228L162.55 181.916L161.927 180.781C161.927 180.781 161.278 179.472 161.278 178.362C161.278 176.329 163.436 173.398 166.142 173.398C166.454 173.398 167.09 173.548 167.09 173.548L167.601 173.885L168.474 174.296L168.761 174.733C168.761 174.733 171.255 176.89 171.255 178.537C171.255 180.644 168.137 183.301 166.903 183.301L166.928 183.313ZM169.584 177.601L169.123 177.115L168.711 176.915L167.838 175.83L166.753 175.543L166.08 175.282C166.08 175.282 162.713 175.855 162.713 178.624C162.713 180.295 165.057 181.33 166.541 181.33C167.576 181.33 169.809 180.332 169.809 178.836C169.809 178.736 169.809 178.661 169.784 178.549L169.572 177.601H169.584Z" fill="#D9932C"/>
<path d="M187.879 171.915V172.476L187.729 173.536L187.654 177.066L187.417 178.874L187.317 181.244L187.342 182.528L187.13 183.177L187.006 184.262C186.906 184.985 186.494 185.883 185.871 185.883C185.484 185.883 185.197 184.96 185.197 184.262C185.197 183.563 185.659 182.379 185.709 181.743L185.783 179.735L185.734 178.986L186.17 176.979L186.245 173.586L186.482 172.377L186.532 171.267C186.532 171.267 186.794 170.543 186.843 170.032C186.868 169.795 186.868 169.384 186.868 169.084V168.523L187.105 167.7L187.18 167.139C187.255 166.777 187.592 166.652 187.928 166.652C188.265 166.652 188.315 167.326 188.315 167.887C188.315 168.299 188.29 168.635 188.29 168.635L187.879 171.953V171.915Z" fill="#D9932C"/>
<path d="M194.451 169.645H194.326C193.989 169.645 193.653 169.57 193.553 169.358L193.241 168.847L193.366 168.123L193.989 167.512L194.326 167.001L194.862 167.051C195.299 167.126 195.536 167.363 195.536 167.924C195.536 168.897 194.975 169.62 194.451 169.645ZM195.536 175.207L195.686 178.163L195.561 178.749C195.561 178.749 195.299 179.672 195.299 180.295C195.299 180.969 195.536 182.016 195.536 182.016L195.411 182.553C195.286 183.064 194.925 183.525 194.513 183.525C194.002 183.525 193.865 183.189 193.865 182.503C193.865 182.328 194.014 181.854 194.014 181.468L193.94 179.796C193.94 179.796 193.79 178.325 193.79 176.916C193.79 176.068 193.84 175.244 194.027 174.758L194.264 174.06L194.526 173.311C194.626 173.05 194.937 172.775 195.199 172.775C195.611 172.775 195.636 173.449 195.636 173.449L195.76 173.86L195.548 175.195L195.536 175.207Z" fill="#D9932C"/>
<path d="M210.465 170.006C210.153 170.006 209.791 169.594 209.791 169.594L209.355 169.395L208.893 168.696C208.893 168.696 208.582 168.36 208.382 168.36C206.973 168.36 205.576 171.777 205.576 175.481C205.576 176.067 205.651 176.329 206.224 176.566L207.222 176.927L208.893 177.002C209.23 177.002 209.517 177.314 209.517 177.651C209.517 178.299 208.719 178.474 208.719 178.474C208.719 178.474 208.282 179.01 207.995 179.01C207.534 179.01 206.885 178.885 206.374 178.885C205.239 178.885 204.903 179.06 204.903 180.893V181.33L204.977 184.21L205.052 185.233L204.715 185.445L204.379 185.807L203.917 185.757H203.506L203.406 185.196L203.194 184.684L203.481 183.375V182.427L203.655 181.816L203.556 181.23L203.655 179.895C203.68 179.771 203.68 179.609 203.68 179.509C203.68 178.761 203.394 178.611 202.982 178.611H201.747L200.563 178.05C200.251 177.9 200.076 177.563 200.076 177.276C200.076 177.039 200.176 176.603 200.388 176.603H200.413L201.136 176.728L201.573 176.653L202.396 176.803L203.481 176.778C203.743 176.778 203.967 176.516 203.967 176.266L203.942 175.393V175.343C203.942 174.807 204.254 173.847 204.254 173.847C204.254 173.847 204.329 171.939 204.641 170.766C204.815 170.093 205.414 169.07 205.414 169.07L205.9 167.985L206.337 167.699C206.337 167.699 207.472 166.9 208.195 166.9C209.455 166.9 211.076 167.848 211.076 169.033C211.076 169.469 210.926 170.031 210.452 170.031L210.465 170.006Z" fill="#D9932C"/>
<path d="M221.002 179.01C219.593 179.01 217.885 178.499 216.812 178.499C215.739 178.499 215.166 179.01 215.166 179.584C215.166 179.796 215.241 180.02 215.403 180.232C216.176 181.417 218.109 182.39 218.109 182.39L218.957 182.652L219.63 182.702L219.967 183.038L220.404 183.4L220.454 184.248L220.192 184.51L219.98 184.847C219.98 184.847 219.643 184.996 219.493 184.996C218.333 184.996 216.712 183.936 216.712 183.936L215.814 183.4L215.602 182.963L214.156 181.192C214.156 181.192 213.794 180.494 213.794 180.033C213.794 179.546 214.006 178.798 214.006 178.798L214.056 177.252C214.056 176.94 214.368 175.68 214.368 175.68C214.368 175.68 215.552 174.321 216.351 173.747C216.937 173.361 217.61 173.161 217.61 173.161L218.171 172.899L219.481 172.774C221.439 172.774 222.574 174.495 222.574 177.252C222.574 178.174 221.9 179.023 221.002 179.023V179.01ZM219.768 174.433C219.593 174.358 219.331 174.333 219.119 174.333C218.907 174.333 218.733 174.358 218.733 174.358L218.109 174.795L217.336 174.845C217.336 174.845 216.251 175.568 216.251 176.079C216.251 176.366 216.463 176.69 216.762 176.927C216.862 177.002 216.937 177.027 217.049 177.027C217.286 177.027 217.51 176.877 217.797 176.877C217.872 176.877 217.922 176.877 218.009 176.902L218.733 177.139L219.431 177.065C220.84 176.865 221.127 176.703 221.127 175.905C221.127 175.156 220.479 174.695 219.768 174.433Z" fill="#D9932C"/>
<path d="M119.362 5.86035C120.098 5.86035 120.459 6.4465 120.247 7.10747L106.903 55.2838C106.679 55.9448 105.955 56.4561 105.294 56.4561H92.5364C91.8754 56.4561 91.0024 55.9448 90.8528 55.2838L84.1807 29.4684L77.5086 55.2838C77.3589 55.9448 76.4859 56.4561 75.825 56.4561H63.0669C62.4059 56.4561 61.6701 55.9448 61.4581 55.2838L48.0765 7.10747C47.852 6.4465 48.2262 5.86035 48.962 5.86035H65.3866C66.1224 5.86035 66.933 6.4465 67.0702 7.10747L71.248 29.0319L76.8975 7.10747C77.122 6.37167 77.995 5.86035 78.8804 5.86035H89.4435C90.329 5.86035 91.202 6.37167 91.4265 7.10747L97.0759 29.0319L101.254 7.10747C101.403 6.4465 102.202 5.86035 102.937 5.86035H119.362Z" fill="white"/>
<path d="M140.214 7.55658C140.214 11.8841 136.984 14.8148 132.145 14.8148C127.306 14.8148 124.076 11.8841 124.076 7.55658C124.076 3.00459 127.306 -0.000976562 132.145 -0.000976562C136.984 -0.000976562 140.214 3.00459 140.214 7.55658ZM138.668 16.1368C139.254 16.1368 139.765 16.6481 139.765 17.1594V55.3712C139.765 55.9574 139.254 56.4687 138.668 56.4687H125.76C125.174 56.4687 124.662 55.9574 124.662 55.3712V17.1594C124.662 16.6481 125.174 16.1368 125.76 16.1368H138.668Z" fill="white"/>
<path d="M161.427 3.30371C162.013 3.30371 162.525 3.81503 162.525 4.32635V55.3711C162.525 55.9572 162.013 56.4685 161.427 56.4685H148.519C147.933 56.4685 147.422 55.9572 147.422 55.3711V4.32635C147.422 3.81503 147.933 3.30371 148.519 3.30371H161.427Z" fill="white"/>
<path d="M210.876 3.30371C211.462 3.30371 211.973 3.81503 211.973 4.32635V55.3711C211.973 55.9572 211.462 56.4685 210.876 56.4685H202.595C202.083 56.4685 201.709 56.032 201.422 55.3711L200.325 52.7272C197.544 55.6579 192.842 57.566 187.929 57.566C176.343 57.566 168.573 49.0606 168.573 36.3026C168.573 23.5445 176.343 15.114 187.929 15.114C191.371 15.114 194.676 16.1366 196.87 17.895V4.32635C196.87 3.81503 197.382 3.30371 197.968 3.30371H210.876ZM196.87 31.7506C195.985 29.3311 193.64 27.7224 191.071 27.7224C187.043 27.7224 184.324 31.1021 184.324 36.2277C184.324 41.3534 187.043 45.0324 191.071 45.0324C193.64 45.0324 195.985 43.4236 196.87 41.0042V31.763V31.7506Z" fill="white"/>
</g>
<defs>
<clipPath id="clip0_134_1396">
<rect width="260" height="196.671" fill="white"/>
</clipPath>
</defs>
</svg>
