<svg width="1728" height="290" viewBox="0 0 1728 290" fill="none" xmlns="http://www.w3.org/2000/svg">
<path d="M1883.89 156.363L1889.39 184.054L1896.13 165.671C1896.21 165.913 1899.75 165.137 1900.34 167.021C1901.51 170.884 1894.9 188.19 1903.24 186.116C1907.01 159.395 1914.17 135.852 1895.78 112.117L1918.18 129.493C1917.25 141.413 1914.55 155.611 1917.52 167.206L1903.63 354.99C1793.16 333.885 1680.27 319.35 1567.51 315.446C1327.74 307.149 1092.49 355.736 854.973 373.945C562.417 396.344 265.517 379.904 -22.8217 323.691L-16.9561 244.399L-1.2474 177.4C4.97519 165.305 -5.31695 145.332 -5.18498 143.548C-4.65577 134.429 -1.58724 79.8539 -0.246629 76.7905C1.20769 73.4995 5.41885 79.4282 6.16013 77.2644C7.31848 74.0459 11.4444 48.3896 15.7585 49.6528C17.8049 61.2745 21.9838 74.1867 22.7673 85.8566C23.2068 92.3559 20.8857 100.161 21.2254 106.701C22.3606 127.365 21.0903 148.465 25.2469 168.881C32.1723 130.262 39.2354 81.2689 53.7774 45.1016C54.553 43.1292 59.5731 28.3013 63.4319 31.1357L60.8372 168.351C64.2157 169.168 81.3019 120.869 82.8278 118.574C86.0415 113.761 87.3801 123.82 89.0818 121.114C99.7015 104.576 107.401 86.2642 121.766 72.1276L92.0436 183.216C104.918 155.186 111.342 120.07 129.626 96.8296L127.563 110.319L139.955 88.1532C147.046 108.833 134.844 130.399 129.899 151.416L158.918 123.164L155.678 166.965C162.383 158.823 162.005 138.403 174.112 135.806L161.832 185.263C166.274 186.111 182.368 159.074 186.777 168.227L181.894 248.63L229.405 115.775C229.353 116.48 229.3 117.184 229.252 117.841C227.866 137.233 227.402 155.939 222.888 175.052C240.987 161.522 222.159 196.051 220.572 206.365C218.72 218.312 220.226 230.035 220.066 242.013C224.389 245.779 226.155 235.005 227.244 232.065C240.519 197.315 249.613 157.534 250.56 120.503C262.105 145.147 264.387 174.535 259.676 200.903C274.99 197.504 265.895 143.02 278.832 175.037C283.954 156.865 270.685 142.431 268.536 124.995C293.488 153.039 296.178 199.827 293.777 234.91L311.383 200.527L302.985 270.191C331.113 226.485 316.443 172.721 291.782 130.916C328.856 150.274 336.211 193.584 340.37 230.993C350.739 198.199 336.178 171.113 329.858 140.011L389.697 218.923C373.666 182.902 344.792 149.612 358.05 108.535C360.757 110.576 360.273 113.184 362.935 115.174C361.697 118.812 365.326 121.488 366.604 123.848C378.007 145.177 393.351 164.958 406.168 185.495L420.396 95.3043C428.718 102.623 428.777 116.882 431.021 126.489C432.671 133.644 434.287 141.269 433.686 148.73C439.981 152.689 437.581 144.534 438.515 141.723L449.442 139.369L457.883 214.48C461.859 191.503 475.211 160.298 477.514 138.33C479.164 145.486 481.344 152.68 483.487 159.73C507.025 96.2372 489.575 219.515 484.49 233.252C501.424 221.713 495.284 202.566 499.564 189.241C503.843 175.916 510.997 164.975 515.127 153.669C517.009 148.521 519.399 145.677 520.494 139.386C530.354 142.286 518.144 159.368 518.564 165.488L531.887 160.195L526.729 186.059C530.31 187.409 557.627 123.251 547.386 168.706L561.54 166.59C546.672 182.294 537.707 203.958 537.796 225.678C537.893 249.239 551.179 253.621 554.651 274.128L572.929 157.992C571.316 166.7 573.4 173.226 573.35 181.105C573.281 207.581 580.448 233.129 581.563 259.314C583.205 252.167 599.74 214.589 585.324 222.869C598.231 198.334 595.053 169.919 595.553 142.861C595.703 135.603 595.088 128.855 594.976 121.86C594.714 106.406 590.293 90.2186 594.161 74.5974C594.917 71.5851 593.592 67.2388 598.758 70.7364C610.506 109.651 611.046 150.805 607.11 190.919L623.327 175.315C617.513 189.753 608.68 199.815 613.833 216.576L638.871 154.421C645.545 161.759 635.886 191.49 650.708 183.618C645.403 198.378 657.509 216.738 656.717 233.342C669.195 201.507 673.089 167.856 675.878 134.076C679.922 133.762 682.309 140.122 683.835 143.067C702.821 179.732 692.534 233.679 685.037 272.161L691.052 238.5C701.555 185.56 694.771 202.785 702.718 149.703C703.482 144.615 718.566 70.3474 723.103 77.7634C733.708 107.247 720.978 145.767 722.564 172.129C722.866 177.202 728.294 180.436 728.352 180.96C730.883 199.131 735.368 216.409 739.475 234.225L748.448 185.609L771.87 261.828C764.227 228.315 769.462 195.518 772.795 162.251C773.197 158.127 773.224 153.833 773.722 149.716C775.656 134.046 776.453 116.074 779.467 100.861C779.709 99.5575 782.697 82.7383 786.954 86.7351L802.507 269.333L812.905 143.174L817.345 141.426C830.549 150.191 817.2 263.859 827.255 283.767C826.271 257.78 834.859 233.351 829.66 207.382L840.258 223.885C844.281 208.133 842.31 190.9 831.824 178.135C831.577 172.311 838.715 180.58 840.551 176.704C843.377 170.587 832.249 94.4756 830.348 81.5431C858.92 103.86 851.004 152.601 861.786 180.351C866.468 192.357 884.796 205.844 887.834 221.079C897.989 195.113 880.531 167.908 879.855 139.725C879.682 131.593 882.941 84.2536 887.326 82.5954C903.164 89.1481 897.77 177.774 906.056 178.387L917.465 155.11C918.215 190.804 911.664 220.434 930.771 251.538L923.726 187.01L941.606 207.214C947.123 173.872 945.027 170.79 926.737 146.308C923.87 142.509 919.125 137.909 919.09 133.139C926.386 130.752 945.481 140.425 947.684 139.456L944.633 122.426L960.132 130.936L974.207 42.8108C988.076 75.3211 984.211 107.275 976.663 140.561C976.528 141.07 971.399 138.378 969.947 144.265C965.43 162.104 989.288 180.72 987.32 200.117C1007.47 160.824 1001.4 115.155 996.735 72.8463C1021.01 114.576 1017.03 179.516 1006.86 226.721C1016.76 210.744 1018.44 191.326 1019.45 173.086L1030.35 185.41L1034.58 172.082L1033.68 256.98C1042.65 233.9 1048.88 197.543 1047.45 173.033C1047.02 165.732 1038.29 156.731 1042.66 150.635C1043.88 153.086 1044.66 159.563 1048.53 158.433C1049.51 153.597 1048.48 147.242 1049.68 142.8C1067.69 176.277 1088.93 206.69 1086.16 246.182C1090.76 215.415 1094.55 182.512 1080.09 153.404L1087.6 153.96C1087.6 153.96 1088.42 153.36 1089.57 156.182C1096.76 173.613 1106.75 187.758 1106.19 207.778C1108.12 207.92 1109.84 174.864 1110.03 170.299C1110.14 168.23 1110.49 166.085 1110.49 164.055C1122.65 166.748 1118.53 152.33 1123.64 146.146C1124.66 149.384 1126.64 152.033 1128.37 154.898C1129.06 156.035 1129.94 157.847 1130.18 159.233C1128.7 167.338 1125.45 165.492 1125.35 166.24C1124.38 172.73 1122.5 249.862 1126.61 251.298C1137.7 238.194 1142.93 233.625 1141.07 215.644L1151.45 220.613L1144.21 187.555L1153 199.722C1155.74 181.657 1154.41 164.189 1148.28 146.931L1152.72 145.183L1167.6 162.002C1166.57 156.403 1173.63 149.231 1174.03 147.797C1178.92 159.582 1182.09 174.449 1187.29 186.541L1199.17 157.02C1212.71 158.542 1204.6 206.702 1207.29 206.901C1215.64 186.986 1214.3 173.103 1212.37 152.71C1212.2 151.093 1211.12 149.314 1210.71 146.31L1227.07 172.679C1228.12 172.143 1231.87 152.926 1231.99 149.961C1232.05 148.596 1232.39 147.159 1232.3 145.783L1241.19 142.239C1248.47 170.108 1245.16 197.194 1248.11 223.515C1248.46 226.562 1246.41 230.753 1252.08 228.01C1248.89 194.637 1261.25 152.55 1255.59 122.346C1254.37 115.884 1251.65 111.481 1248.17 106.079C1247.34 100.92 1255.11 107.253 1255.61 107.668C1279.13 126.967 1288.56 172.272 1295.1 199.755L1301.37 71.2134L1328.52 199.112L1339.81 119.183L1353.25 141.135C1355.61 132.106 1354.42 66.3115 1364.08 67.4503C1384.63 99.889 1373.41 141.022 1382.91 176.891L1394.32 153.614C1392.93 167.814 1389.61 181.304 1401.1 192.916C1411.11 170.15 1406.83 150.764 1407.02 127.27C1416.9 158.73 1427.59 189.731 1425.75 223.062C1435.27 187.939 1425.03 151.591 1413.06 118.277C1425.48 115.419 1426.82 136.524 1435.08 140.863L1427.78 94.1591C1430.07 82.8112 1449.78 122.834 1451.14 127.371C1458.56 151.381 1455.45 185.608 1468.98 206.293C1471.14 192.811 1473.35 179.38 1474.11 165.748C1485.45 168.994 1480.59 187.515 1483.71 195.818C1488.23 184.399 1484.75 170.641 1485.43 158.182C1486.1 145.724 1485.92 131.88 1489.26 120.704C1506.63 136.716 1507.29 159.186 1506.33 180.687C1514.15 163.329 1515.84 141.834 1511.63 123.397L1527.09 147.623C1529.19 136.214 1515.28 57.7249 1530.42 58.703C1536.2 59.1306 1554.73 157.598 1557.78 168.774C1580.29 124.984 1564.35 85.8059 1570.5 40.7097L1599.56 157.185C1620.54 136.174 1595.82 101.067 1590.45 76.7852C1608.51 83.3141 1617.92 102.797 1627.19 118.304L1634.56 47.5254L1672.71 172.037C1683.2 129.858 1665.86 89.2554 1652.69 49.9052C1654.4 41.8186 1672.45 60.4298 1675.63 60.0041L1685.37 0.919158C1714.37 36.5308 1677.6 79.7867 1701.73 114.378L1696.4 69.9427C1713.31 93.9931 1707.58 126.328 1702.05 153.249L1747.53 62.2081L1747.87 130.394L1769.76 96.3279L1755.63 170.807L1778.08 114.786L1779.13 158.904L1789.3 152.293L1771.45 204.453C1801.25 181.357 1794.33 145.207 1811.35 116.162L1811.77 139.275L1820.75 120.02L1826.18 148.743L1840.53 85.7971C1851.45 114.974 1834.91 144.762 1832.91 174.4C1842.87 172.635 1837.67 157.192 1849.18 172.441C1860.97 149.9 1867.49 122.722 1861.14 97.8013L1883.76 156.118L1883.89 156.363Z" fill="#4C6E3D"/>
</svg>
