<svg width="1343" height="272" viewBox="0 0 1343 272" fill="none" xmlns="http://www.w3.org/2000/svg">
    <g clip-path="url(#clip0_123_269)">
        <path
            d="M1009.62 46.6777C1008.77 49.8094 1009.98 48.5227 1010.31 49.4891C1010.67 50.5605 1009.38 52.5784 1008.87 53.5363C1008.68 50.4641 1008.66 47.1935 1004.76 47.4996C1000.34 47.8482 1001.41 54.6756 999.682 57.6515C999.538 53.1594 999.574 47.3579 996.322 43.8662C995.277 42.7439 994.892 42.4803 993.237 42.7013C990.889 43.0131 989.568 44.946 989.33 47.1595C988.908 51.0734 990.138 55.3757 990.223 59.301C989.77 57.7507 989.546 56.1069 989.059 54.5679C988.39 52.4593 985.668 46.142 983.231 45.9946C982.033 45.9209 979.783 47.2048 979.05 48.1202C976.407 51.4164 979.803 56.6992 980.764 60.1229C979.004 57.6458 975.089 49.7584 971.166 52.0285C970.625 52.3431 969.381 54.2505 969.316 54.84C968.979 57.8187 973.101 62.9145 975.007 65.06L965.066 56.7616C964.831 55.6676 967.081 55.251 967.123 55.1149C967.205 54.8542 964.877 50.8779 965.477 49.971C965.939 50.3791 965.962 50.7362 966.78 50.7929C967.052 50.824 966.987 50.6426 966.987 50.4499C966.987 50.1013 964.123 45.3258 963.695 44.2771C961.942 39.9664 959.576 32.9632 966.231 31.8635C971.848 30.9339 975.97 34.7487 979.121 38.8582C978.605 34.2612 979.412 27.7087 985.155 27.0597C991.77 26.3143 994.226 32.4757 995.574 37.7586C998.062 32.8498 1003.09 26.4702 1009.15 30.7639C1015.03 34.9301 1010.99 41.6952 1009.63 46.6777H1009.62Z"
            fill="#92262A" />
        <path
            d="M975.069 79.7381V79.8741C971.689 79.8033 960.491 79.2336 958.751 82.2746C957.338 84.746 959.42 84.6412 959.987 86.5259C960.142 87.0445 960.426 88.6628 959.987 89.0624C955.159 90.8168 944.326 93.4837 940.791 88.7195C935.428 81.4924 943.655 76.8076 949.292 74.1775C945.394 73.2082 941.17 73.5426 939.419 69.2404C935.612 59.8848 947.357 57.6402 953.955 57.6487C954.304 57.6487 957.312 57.5608 957.383 57.7167C957.261 59.6723 954.468 60.7634 954.23 62.6538C954.023 64.2863 955.032 65.5787 956.08 66.701C961.887 67.6391 967.939 67.9282 973.287 70.6093C973.267 71.1789 967.12 69.6173 966.499 69.5805C963.723 69.4133 959.256 70.3712 958.89 73.7637C958.664 75.8666 959.811 76.1812 961.426 76.9861C965.108 78.8198 970.97 79.9478 975.069 79.7296V79.7381Z"
            fill="#92262A" />
        <path
            d="M1024.16 84.814C1021.8 84.8509 1022.99 85.5849 1021.62 86.0497C1019.57 86.7441 1019.77 85.361 1020.46 84.0601C1021.38 82.286 1023.38 82.3455 1021.21 80.2879C1019.99 79.1315 1017.72 78.9927 1016 78.7801C1013.57 78.4797 1011.08 78.5647 1008.67 78.1623C1012.3 77.1108 1018.45 78.3465 1019.91 74.0471C1020.18 73.2507 1020.73 70.357 1020.46 69.657C1019.4 66.9163 1011.22 69.2574 1008.94 69.5209C1010.7 68.8407 1012.34 67.8289 1014.08 67.1204C1016.46 66.154 1018.03 66.4516 1019.91 63.898C1020.86 62.6056 1021.56 59.8565 1019.57 59.1649C1019.18 59.0289 1015.04 59.5532 1014.36 59.7148C1012.42 60.1711 1010.75 61.5201 1008.94 62.2513C1011.6 60.4091 1013.8 58.1333 1016.96 57.2434C1017.02 57.2264 1017.94 57.4531 1018.2 57.3794C1019.52 57.0082 1021.88 55.6024 1023.75 55.0469C1028.07 53.763 1034.08 52.2184 1037.32 56.4867C1041.43 61.9056 1036.73 67.0779 1031.97 69.657C1040.79 70.2238 1042.81 81.6199 1033.96 84.267C1030.37 85.344 1027.64 84.7602 1024.16 84.8169L1024.16 84.814Z"
            fill="#92262A" />
        <path
            d="M975.069 79.8737C975.808 79.8907 981.681 80.0353 981.789 80.3527C979.534 83.3626 976.604 85.8113 974.111 88.6511C971.811 91.2727 969.607 93.9254 968.077 97.0884C967.38 98.5281 967.992 99.846 965.814 100.175C963.035 100.594 960.428 98.4686 960.947 95.5806C961.037 95.0676 962.125 93.7951 961.907 93.112L961.632 92.976C959.222 95.9547 956.428 91.7517 959.233 90.3006C960.04 89.8811 960.346 90.3232 961.015 90.0257C961.519 89.8018 966.539 86.8316 966.431 86.5283C964.562 86.3781 963.298 88.0191 961.839 88.6539C961.312 88.8835 960.397 88.9175 959.989 89.0649C960.428 88.6624 960.145 87.0441 959.989 86.5283C959.423 84.6408 957.343 84.7485 958.754 82.2771C960.493 79.236 971.689 79.8057 975.072 79.8766L975.069 79.8737Z"
            fill="#92262A" />
        <path
            d="M1023.74 55.047C1021.87 55.6025 1019.52 57.0083 1018.19 57.3796C1017.94 57.4504 1017.02 57.2265 1016.96 57.2435C1013.79 58.1334 1011.59 60.4093 1008.94 62.2515C1010.75 61.5202 1012.42 60.1712 1014.35 59.7149C1015.04 59.5533 1019.17 59.0319 1019.56 59.1651C1021.56 59.8566 1020.86 62.6057 1019.91 63.8981C1018.03 66.4517 1016.45 66.1541 1014.08 67.1205C1012.34 67.8291 1010.7 68.8409 1008.94 69.5211C1011.21 69.2575 1019.4 66.9165 1020.46 69.6571C1020.72 70.3571 1020.18 73.2508 1019.91 74.0472C1018.44 78.3466 1012.3 77.1109 1008.66 78.1624C1011.08 78.562 1013.57 78.4798 1016 78.7802C1017.72 78.9928 1019.99 79.1317 1021.21 80.288C1023.37 82.3456 1021.38 82.2861 1020.45 84.0603C1019.77 85.3611 1019.57 86.7414 1021.62 86.0498C1022.99 85.585 1021.8 84.8538 1024.15 84.8141C1028.03 87.1297 1039.19 92.2878 1035.26 98.3274C1032.8 102.108 1027 102.324 1023.12 101.278C1021.97 100.966 1017.03 98.5399 1016.68 98.5343C1015.89 98.5229 1014.27 102.091 1011.33 101.553C1010.06 101.32 1009.86 98.5655 1009.34 97.3694C1007.92 94.0563 1005.73 90.9132 1003.31 88.2463C1000.89 85.5794 997.698 83.6096 995.766 80.4949L1004.68 78.4373C1002.32 78.2332 999.883 77.7599 997.823 76.5157L1005.16 71.0968C1002.36 72.4289 999.274 73.1403 996.177 73.2225L1004.2 65.335L998.577 67.3926V63.9633C997.064 67.4975 995.296 71.1309 992.542 73.8403L990.897 64.6491C990.33 68.3704 990.846 72.8172 988.704 76.0339L982.398 64.0993L982.33 69.5182C981.973 70.0539 980.208 68.8635 979.587 69.2433L985.758 76.6518C984.539 77.8733 982.837 77.6664 981.437 78.0915C979.157 78.7859 977.582 79.605 975.06 79.7382C970.961 79.9564 965.1 78.8284 961.417 76.9947C959.799 76.1898 958.652 75.8752 958.881 73.7723C959.25 70.377 963.717 69.4219 966.491 69.5891C967.111 69.6259 973.256 71.1875 973.278 70.6179C967.93 67.9368 961.879 67.6477 956.071 66.7096C955.023 65.5873 954.014 64.2949 954.221 62.6624C954.459 60.772 957.255 59.6809 957.374 57.7253C957.304 57.5694 954.295 57.6573 953.946 57.6573C951.779 54.4887 949.19 50.4472 951.34 46.6154C954.816 40.4171 962.216 47.1199 965.462 49.9767C964.859 50.8837 967.188 54.86 967.108 55.1207C967.066 55.2568 964.814 55.6734 965.052 56.7674L974.992 65.0658C973.089 62.9203 968.964 57.8245 969.301 54.8458C969.369 54.2563 970.61 52.3489 971.151 52.0343C975.075 49.7642 978.99 57.6516 980.749 60.1287C979.789 56.705 976.392 51.4222 979.035 48.126C979.772 47.2106 982.018 45.9267 983.216 46.0004C985.653 46.1478 988.375 52.4651 989.044 54.5737C989.531 56.1127 989.758 57.7565 990.208 59.3068C990.123 55.3843 988.896 51.0821 989.316 47.1653C989.554 44.949 990.877 43.0189 993.222 42.7071C994.877 42.4889 995.262 42.7497 996.307 43.872C999.56 47.3637 999.523 53.1652 999.667 57.6573C1001.4 54.6843 1000.32 47.854 1004.74 47.5054C1008.65 47.1993 1008.66 50.4671 1008.85 53.5421C1009.37 52.5842 1010.66 50.5691 1010.29 49.4949C1009.97 48.5285 1008.75 49.8152 1009.61 46.6835C1012.93 44.1526 1022.52 38.5778 1025.93 42.9112C1028.57 46.2725 1025.38 51.6035 1023.66 54.6389C1023.48 54.9705 1023.36 54.7183 1023.73 55.0499L1023.74 55.047Z"
            fill="#92262A" />
        <path
            d="M1003.31 88.2433C1003.14 93.7274 1001.94 102.612 997.761 106.487C995.718 108.377 992.678 109.939 989.944 110.466C989.82 110.548 989.633 110.959 989.602 111.084C988.879 114.04 989.25 122.743 989.327 126.173C989.655 140.868 991.486 156.124 996.251 170L991.52 169.932C985.497 150.561 984.451 129.942 985.349 109.712C981.069 109.584 979.125 108.471 977.123 104.775C974.46 99.8633 974.508 94.1128 974.105 88.6571C976.598 85.8172 979.528 83.3685 981.783 80.3587C981.675 80.0384 975.805 79.8939 975.063 79.8797V79.7436C977.581 79.6104 979.159 78.7942 981.44 78.097C982.839 77.669 984.542 77.8788 985.76 76.6573L979.59 69.2488C980.21 68.869 981.975 70.0593 982.332 69.5237L982.4 64.1048L988.706 76.0394C990.851 72.8226 990.333 68.3759 990.899 64.6546L992.545 73.8458C995.296 71.1363 997.064 67.5029 998.579 63.9688V67.3981L1004.2 65.3405L996.18 73.2279C999.276 73.1457 1002.37 72.4344 1005.16 71.1023L997.826 76.5212C999.885 77.7654 1002.32 78.2387 1004.68 78.4428L995.769 80.5004C997.701 83.6123 1000.85 85.5395 1003.31 88.2518L1003.31 88.2433Z"
            fill="#093F2D" />
        <path
            d="M992.412 88.7909C992.701 88.6804 995.658 93.6175 995.772 93.9349C997.347 98.3306 994.924 107.278 989.259 107.448C989.423 104.285 988.752 100.595 989.191 97.5031C989.63 94.411 991.497 91.6052 992.412 88.7937V88.7909Z"
            fill="#093F2D" />
        <path
            d="M989.669 78.0918C991.052 81.1612 991.672 82.9524 990.423 86.2542C989.893 87.6542 988.675 89.0288 988.091 90.3693C987.865 90.8937 985.505 98.4722 985.142 98.2568C984.505 95.3461 983.459 92.4326 983.703 89.4086C984.012 85.5513 987.315 81.0818 989.666 78.0918H989.669Z"
            fill="#093F2D" />
        <path
            d="M981.992 82.7565C982.162 82.7394 982.658 82.7139 982.746 82.8245C981.159 85.6898 980.196 89.1163 980.553 92.4266C980.74 94.1753 982.593 98.1912 982.06 99.6962C981.836 100.328 979.899 98.2763 979.593 97.9135C977.978 95.9863 977.043 93.4582 977.125 90.9188C977.153 90.0459 978.199 85.0351 978.632 84.4711C978.819 84.2274 981.644 82.7876 981.992 82.7565Z"
            fill="#093F2D" />
        <path
            d="M993.921 82.4814C997.106 84.3803 999.771 89.4563 997.349 92.7694C996.692 92.7694 993.822 83.7313 993.921 82.4814Z"
            fill="#093F2D" />
        <path
            d="M1000.78 90.5762C1002.02 91.7608 1000.53 98.543 999.406 98.8065C999.353 98.8207 998.418 98.4239 998.378 98.3276C997.865 97.0976 999.797 91.775 1000.78 90.5762Z"
            fill="#093F2D" />
        <path
            d="M978.975 102.783C980.726 104.027 983.289 103.503 982.881 106.419C982.403 107.53 978.21 104.025 978.975 102.783Z"
            fill="#093F2D" />
    </g>
    <g clip-path="url(#clip1_123_269)">
        <path
            d="M52.0397 72.5267C57.6431 69.477 54.5933 57.7129 60.7158 54.9529C70.8882 50.3632 74.2281 63.4272 74.3426 71.2611C77.9765 68.6917 83.87 57.8997 88.6374 58.4982C99.7565 59.8858 90.9277 75.5764 91.7636 76.1787C96.5463 75.8661 103.73 71.3907 108.299 73.4912C109.998 74.2727 113.616 79.6325 115.028 81.7635C115.685 82.7584 117.739 84.3366 118.067 85.2553C121.88 96.0093 109.898 103.527 100.764 104.541L101.26 108.677C130.022 106.332 127.464 133.04 99.4511 128.527C98.8938 133.071 102.245 130.074 103.596 131.104C104.398 131.717 104.669 134.13 105.837 135.465C109.288 139.402 111.582 138.228 111.292 145.929C110.753 160.213 93.111 149.219 92.256 150.408C96.8441 160.495 91.0116 168.207 80.8201 160.941C77.3963 158.501 76.671 154.239 72.896 152.718C71.5677 158.722 71.3005 173.711 65.0176 174.817C55.9216 176.422 57.7805 166.758 54.0704 166.354C52.8031 166.217 50.6007 168.153 48.7838 168.211C30.0154 168.798 45.1461 147.408 42.4933 145.151C37.1342 147.069 33.6378 152.65 28.3092 154.647C22.1523 156.957 15.6252 158.158 13.6632 150.564C11.0295 140.375 28.0458 135.179 30.4086 126.289C29.0917 122.702 1.88768 124.92 0.769291 114.471C0.0669567 107.884 3.42213 105.383 9.52557 104.232C10.9531 102.112 1.73118 98.0716 5.19705 92.7347C7.76592 88.7854 15.9993 90.0014 20.3087 88.9302C20.6713 85.3201 16.965 86.0826 15.4954 84.3137C11.8196 79.8879 11.1631 73.1786 13.5106 67.9026L21.9653 68.5431L43.3292 81.9731C33.3286 62.0472 41.2108 42.8495 52.0397 72.5305V72.5267ZM79.4689 110.617C80.0109 108.46 79.1674 106.279 77.2589 105.135C74.419 103.431 74.3236 98.3652 70.2393 96.36C54.1353 88.4537 40.6153 112.935 51.8756 124.467C58.0706 130.81 65.2695 128.774 72.7624 125.725C82.6867 121.684 78.5185 119.057 79.4117 110.926C79.4231 110.823 79.4422 110.72 79.4651 110.621L79.4689 110.617Z"
            fill="#FFFCFA" />
        <path
            d="M77.2589 105.136C79.1674 106.283 80.011 108.46 79.469 110.618C79.4422 110.717 79.427 110.82 79.4155 110.923C78.5223 119.054 82.6905 121.68 72.7662 125.721C65.2696 128.771 58.0707 130.81 51.8794 124.463C40.6154 112.928 54.1391 88.4465 70.2432 96.3566C74.3274 98.3618 74.4228 103.428 77.2627 105.132L77.2589 105.136Z"
            fill="#D9932C" />
    </g>
    <g clip-path="url(#clip2_123_269)">
        <path
            d="M1278.86 139.677C1281.23 130.235 1288.33 109.833 1299.94 109.249C1304.58 109.014 1309.58 122.215 1310.27 126.046L1306.81 146.259C1347.09 121.718 1339.58 158.211 1311.82 172.213C1308.14 174.067 1302.03 174.365 1301.91 174.863C1301.73 175.681 1304.42 179.016 1303.05 181.178C1300.99 184.419 1270.09 193.569 1274.19 180.049C1265.46 186.236 1249.85 189.452 1243.27 179.108C1245.95 179.698 1254.4 179.849 1254.69 176.005C1252.06 176.917 1249.19 177.108 1246.45 176.747C1238.08 175.645 1226.54 171.183 1220.67 165.015C1208.03 151.734 1231.98 157.168 1232.9 155.088C1230.98 151.131 1217.6 132.83 1226.63 131.651C1235.47 130.5 1247.93 144.921 1253.39 150.809C1254.84 152.373 1253.66 155.002 1257.27 152.742C1252.01 142.751 1247.44 125.124 1253.12 114.477C1260.06 101.443 1278.45 132.942 1278.86 139.677ZM1270.9 157.98C1263.64 162.874 1269.98 171.364 1276.92 170.023C1295.04 166.522 1282.23 150.332 1270.9 157.98Z"
            fill="#D9932C" />
    </g>
    <g clip-path="url(#clip3_123_269)">
        <path
            d="M725.039 142.607C720.573 137.311 715.054 130.095 708.519 136.686C707.04 130.77 705.183 124.49 698.533 129.234C691.829 134.018 703.225 150.781 702.273 157.76C697.942 154.86 690.496 150.433 686.267 156.007C684.841 157.886 688.022 160.555 685.247 160.911C683.996 156.146 682.865 148.078 676.529 148.376C666.635 148.841 672.335 166.11 675.456 167.878C676.268 168.336 681.658 165.547 680.138 169.744C679.973 170.199 674.937 170.278 679.694 177.752C685.392 186.706 690.115 180.97 694.206 181.022C696.378 181.051 701.289 187.599 706.374 186.287C707.016 186.121 709.465 179.287 709.075 177.38C708.215 173.198 701.059 166.368 703.429 161.917C704.917 159.126 707.166 163.638 708.744 163.932C717.99 165.65 712.783 155.03 717.239 155.185L720.414 169.888C731.331 167.832 720.853 180.383 724.102 183.081C733.454 185.67 734.123 175.668 740.404 171.778C742.868 170.251 748.792 171.687 748.433 168.224C748.264 166.604 745.339 165.778 745.026 164.745C744.803 164.005 746.371 160.199 746.024 157.507C745.798 155.742 743.983 147.12 743.38 146.54C737.447 140.836 734.023 154.552 729.701 148.786C729.509 149.038 725.491 150.257 724.533 151.683C723.428 150.898 724.237 143.957 725.039 142.607Z"
            fill="#9CB7D4" />
        <path
            d="M748.214 96.0503C747.082 98.8498 746.574 104.386 743.152 104.87C743.885 102.697 741.735 95.2716 741.902 94.7937C731.96 92.6358 732.497 102.051 735.187 108.559L731.031 109.695C729.694 104.592 725.212 92.9624 718.633 97.2748C711.817 101.746 717.037 106.344 717.051 109.518C717.062 111.74 715.581 114.068 715.66 116.746C716.078 130.708 721.786 125.266 723.983 127.54C726.169 129.802 726.958 135.866 729.842 138.32C732.07 137.189 735.702 137.078 738.185 136.059C738.842 137.071 737.152 137.664 737.168 137.81C738.75 153.401 748.105 137.138 749.702 136.17C752.896 134.235 763.006 133.268 764.216 128.637C764.738 126.644 762.095 120.772 760.307 119.932C755.216 117.533 750.575 125.882 748.96 110.114C760.81 107.092 764.078 85.8505 748.213 96.0557L748.214 96.0503Z"
            fill="#9CB7D4" />
        <path
            d="M761.379 73.0865C762.316 75.8058 762.316 82.6258 762.702 82.9394C763.114 83.2744 772.36 86.3114 772.86 86.1273C779.608 83.6632 776.128 74.1148 776.503 73.5166C776.96 72.7845 789.544 70.1252 785.993 61.1177C783.615 55.0799 769.04 64.5534 766.884 60.3835C765.581 57.8666 773.565 50.8881 767.759 46.6336C766.036 45.369 763.111 45.9709 762.922 45.8166C762.283 45.303 764.432 42.8987 764.404 41.3825C764.253 33.5268 760.103 33.5221 754.734 37.6495C754.239 40.6766 755.33 43.5612 755.607 46.3525C755.654 46.8209 755.931 47.27 755.984 47.7398L760.524 48.0101C762.23 48.944 757.37 51.5312 755.725 52.281C755.3 52.4764 754.782 52.5027 754.336 52.6605C750.611 63.5995 758.871 65.8052 761.376 73.0885L761.379 73.0865Z"
            fill="#9CB7D4" />
        <path
            d="M773.134 148.649C771.034 147.583 772.966 140.985 762.888 146.026C753.153 150.896 757.985 156.313 756.128 160.967C755.479 162.597 752.873 162.938 752.251 163.984C749.498 168.61 748.934 173.664 751.253 178.668C756.149 178.637 758.673 174.484 762.386 172.872C764.585 171.921 768.369 172.641 770.972 171.743C779.804 168.695 775.043 165.579 778.043 161.714C780.937 157.988 786.473 159.398 784.128 151.027C781.899 143.07 775.377 149.786 773.134 148.649Z"
            fill="#9CB7D4" />
        <path
            d="M750.171 53.797C748.241 47.9365 739.964 54.1474 736.237 57.0309C732.644 59.8057 731.872 63.8611 733.253 68.2742C734.199 71.293 736.88 69.8269 738.039 70.9035C739.112 71.9024 738.903 74.2873 740.121 75.4256C745.616 80.5781 748.578 75.7538 751.914 71.1996C749.354 65.6441 751.777 58.6799 750.171 53.797Z"
            fill="#9CB7D4" />
        <path
            d="M716.896 189.524C715.66 188.819 718.573 175.598 713.138 175.657L713.082 192.058L707.816 189.038C708.485 191.302 708.757 193.605 708.665 195.972C708.567 198.502 705.961 208.086 710.844 203.093C717.179 196.612 720.319 188.884 730.774 185.727C730.382 183.279 725.563 185.511 724.065 186.003C721.43 186.87 719.39 188.475 716.896 189.524Z"
            fill="#4C6E3D" />
        <path
            d="M748.214 96.0505C749.095 93.8735 750.842 86.9452 751.699 85.218C752.697 83.205 755.739 81.8988 755.565 79.1577C743.846 81.3177 747.54 86.0964 744.471 93.933C744.206 94.6181 741.987 94.5398 741.901 94.7939C741.737 95.2752 743.886 102.7 743.152 104.87C746.573 104.386 747.08 98.8466 748.214 96.0505Z"
            fill="#4C6E3D" />
        <path
            d="M729.843 138.315C729.555 138.463 725.202 142.33 725.038 142.607C724.24 143.955 723.429 150.902 724.532 151.684C725.492 150.252 729.509 149.033 729.7 148.786C730.417 147.85 730.925 138.286 737.167 137.81C737.151 137.664 738.841 137.071 738.184 136.059C735.699 137.075 732.067 137.185 729.841 138.32L729.843 138.315Z"
            fill="#4C6E3D" />
        <path
            d="M754.339 52.6586C752.99 53.1327 751.535 53.3503 750.17 53.7971C751.779 58.6834 749.354 65.6442 751.914 71.1997C753.909 68.4747 753.274 66.8543 753.592 66.2754C754.564 64.5094 759.337 72.3428 761.383 73.0846C758.875 65.8033 750.616 63.5922 754.343 52.6567L754.339 52.6586Z"
            fill="#9CB7D4" />
        <path
            d="M754.737 37.6473C751.672 40.0033 749.827 48.8615 755.61 46.3503C755.336 43.5624 754.246 40.6724 754.737 37.6473Z"
            fill="#9CB7D4" />
        <path
            d="M755.987 47.7382C756.112 48.8937 755.244 50.8317 755.729 52.2794C757.374 51.5296 762.234 48.9424 760.528 48.0085L755.987 47.7382Z"
            fill="#9CB7D4" />
    </g>
    <g clip-path="url(#clip4_123_269)">
        <path
            d="M321.052 56.5193C323.662 58.8939 327.316 59.7372 328.963 63.431C328.056 57.1456 327.307 48.6405 332.705 44.128C333.819 43.196 338.419 40.6989 339.719 40.5854C340.753 40.4959 342.126 41.6872 342.508 42.5703C342.733 43.0864 343.526 49.1991 343.522 49.9041C343.517 51.2378 341.447 56.8818 340.796 58.3571C340.338 59.4002 338.983 60.5141 338.597 61.6813C337.792 64.1158 338.397 69.9922 340.575 71.7265C340.975 76.8806 344.886 81.9677 345.193 86.2944C345.267 87.3201 343.528 89.8692 342.838 90.372C336.88 94.7088 333.159 82.2627 330.808 78.742C328.646 75.4991 322.116 70.6473 318.426 69.344C314.518 67.9637 309.734 68.8989 306.318 66.2892C302.521 63.3853 299.817 55.824 301.191 51.1434C305.691 49.896 313.317 48.2698 317.155 51.7362C318.579 53.0232 319.431 55.045 321.051 56.5144L321.052 56.5193Z"
            fill="#9CB7D4" />
        <path
            d="M332.162 36.7853C330.051 30.9526 333.827 22.4111 338.004 18.2259C339.406 16.8229 342.078 13.6117 343.082 17.2223C343.679 19.3723 344.692 26.8497 344.059 28.8446C343.714 29.9249 342.271 31.4355 341.948 32.4996C341.535 33.8567 341.887 35.9889 341.363 37.4094C339.537 42.3676 333.903 41.5907 332.167 36.784L332.162 36.7853Z"
            fill="#9CB7D4" />
        <path
            d="M332.704 44.1301C327.308 48.6395 328.06 57.1464 328.962 63.4332C327.315 59.7393 323.661 58.8961 321.051 56.5214C320.051 53.8015 318.851 50.7935 319.206 47.8644C319.326 46.8647 322.236 40.3648 322.885 39.8676C325.123 38.1573 331.445 41.8238 332.701 44.1284L332.704 44.1301Z"
            fill="#9CB7D4" />
        <path
            d="M340.795 58.3601C342.109 62.3308 340.253 67.5967 340.573 71.7295C338.392 69.9934 337.791 64.1188 338.596 61.6843C338.982 60.5171 340.337 59.4033 340.795 58.3601Z"
            fill="#4C6E3D" />
        <path
            d="M341.973 128.393C342.346 130.438 342.512 133.948 339.79 134.445C336.807 134.989 330.229 130.113 328.515 127.84C326.861 125.647 325.578 121.942 325.029 119.268C324.64 117.37 323.531 111.548 326.271 111.924C327.31 112.068 333.546 115.841 335.169 116.314C337.121 118.255 336.841 120.627 338.061 122.667C339.557 125.176 341.158 123.933 341.973 128.393Z"
            fill="#9CB7D4" />
        <path
            d="M370.544 141.887C371.049 141.891 372.559 141.212 373.206 141.174L375.239 161.188L377.66 157.807C378.996 160.643 382.107 160.284 384.3 158.642C382.261 164.588 376.267 182.414 373.307 165.509C371.985 157.956 371.885 149.517 370.543 141.89L370.544 141.887Z"
            fill="#4C6E3D" />
        <path
            d="M358.175 247.4C359.137 243.633 360.217 239.839 361.075 236.045C361.735 233.12 365.071 219.307 364.883 217.439C364.695 215.57 361.959 210.494 361.219 208.2C359.63 203.273 358.557 198.08 356.736 193.242C356.062 191.454 351.197 182.279 351.249 181.639C351.261 181.498 351.628 180.891 351.878 180.879C359.665 187.065 365.38 195.608 366.384 205.75C367.506 200.907 367.683 195.951 367.779 190.997C356.556 179.278 350.68 163.856 340.935 151.132C338.259 147.638 329.72 139.512 341.866 145.295C356.192 152.114 362.397 164.09 367.509 178.471C368.027 178.757 367.936 177.64 367.936 177.405C367.938 175.699 367.322 172.35 367.041 170.514C365.749 162.074 363.714 153.624 361.274 145.442C358.757 145.941 351.969 140.88 350.867 140.745C350.74 140.729 349.415 141.35 348.368 141.177C344.265 140.498 341.859 137.855 339.79 134.444C342.512 133.947 342.344 130.441 341.972 128.392C344.268 128.932 345.172 131.062 346.635 132.49C347.584 133.417 349.118 133.895 349.965 135.162C350.87 136.515 350.965 138.56 351.256 139.094C351.497 139.533 359.32 142.68 360.481 142.919L350.877 118.161C352.713 119.483 354.007 120.169 355.672 121.866C356.724 125.756 359.063 129.269 360.564 133.031C369.2 154.685 373.22 179.6 370.926 202.742C371.476 203.178 371.327 202.809 371.51 202.705C373.04 201.836 380.65 193.621 381.909 191.839C384.654 187.946 387.802 178.17 390.215 175.829C391.282 174.792 392.656 173.602 392.974 175.921C393.44 179.332 386.746 196.289 384.434 199.482C381.748 203.187 371.32 210.606 370.32 212.887C369.553 214.636 369.363 221.263 368.943 223.714C367.718 230.87 366.426 238.786 365.048 245.553C363.434 253.5 360.918 266.725 358.267 274.345C358 275.112 357.412 277.051 356.563 277.297C355.98 277.466 350.364 276.066 350.474 274.53C353.212 265.541 355.855 256.498 358.176 247.392L358.175 247.4Z"
            fill="#4C6E3D" />
        <path
            d="M317.266 20.2176C317.136 21.5039 317.264 23.4902 316.783 24.6229C315.552 27.5234 313.01 28.4575 310.413 26.5671C309.917 26.207 307.491 23.4286 307.289 22.8883C306.507 20.7957 307.405 14.3026 308.19 12.0743C308.584 10.9651 313.187 2.85621 313.791 2.37383C314.776 1.5857 315.521 1.56339 316.327 2.52605C316.56 6.75257 320.13 10.6688 318.93 14.8987C318.173 17.5627 317.653 16.4272 317.266 20.2176Z"
            fill="#4C6E3D" />
        <path
            d="M310.414 26.5719C313.012 28.4623 315.554 27.5282 316.784 24.6278C317.447 27.8397 316.237 30.9616 315.746 34.0548C315.514 35.512 315.677 37.1447 315.323 38.684C315.196 39.2316 314.139 40.25 314.125 40.4311C313.963 42.743 316.998 46.4532 317.374 48.1177C317.662 49.3988 316.717 49.8032 315.72 49.038C314.428 48.0494 312.089 41.678 311.673 40.1419C310.476 35.7251 310.357 31.1081 310.413 26.575L310.414 26.5719Z"
            fill="#4C6E3D" />
        <path
            d="M348.613 102.61C349.686 104.542 355.167 114.274 356.038 115.237C357.494 116.847 358.815 115.742 359.809 116.008C362.617 116.757 365.106 118.45 367.613 119.856C368.176 118.425 368.447 117.002 369.493 115.788C370.984 114.054 373.48 113.2 375.038 111.213C376.5 109.351 379.109 105.066 380.523 102.852C382.315 99.6342 393.64 101.176 394.927 103.391C396.717 106.473 391.85 104.938 390.75 105.105C378.964 106.891 377.196 132.713 373.204 141.179C372.557 141.217 371.05 141.897 370.543 141.892C362.591 141.825 361.373 127.686 355.673 121.874C354.009 120.177 352.713 119.494 350.879 118.168C344.402 113.495 339.32 112.005 332.508 108.594C325.7 105.186 325.535 105.601 322.345 98.602C321.807 97.4192 319.261 95.4314 321.298 94.2468C329.003 89.7707 342.264 98.3439 348.615 102.615L348.613 102.61Z"
            fill="#9CB7D4" />
        <path
            d="M348.698 87.8536C349.223 87.3586 350.574 86.5429 351.284 85.9744C353.135 84.4851 357.026 80.83 359.39 81.1873C360.336 81.3302 363.651 85.6955 364.076 86.7055C366.335 92.0525 364.555 97.9629 366.056 103.406C367.144 100.568 368.199 94.2308 370.997 92.5764C371.791 92.1055 380.77 89.7516 381.642 89.7241C383.992 89.6497 384.618 93.7004 384.494 95.4961C384.355 97.5254 381.691 101.029 380.525 102.856C379.114 105.073 376.504 109.357 375.04 111.217C373.481 113.204 370.983 114.061 369.495 115.792C369.106 114.47 365.575 115.302 365.221 114.917C363.944 113.525 365.127 104.346 360.797 105.05C355.125 105.97 359.926 112.464 359.812 116.009C358.818 115.744 357.497 116.848 356.041 115.239C355.17 114.275 349.689 104.543 348.617 102.612C345.214 96.4813 342.903 93.3044 348.703 87.8523L348.698 87.8536Z"
            fill="#75899F" />
        <path
            d="M384.3 158.644C382.107 160.285 378.996 160.644 377.66 157.808C375.547 153.319 377.841 146.838 380.755 143.195C382.209 141.373 390.718 132.641 391.285 138.59C391.332 139.065 390.635 147.608 390.496 148.07C389.836 150.267 388.214 150.832 387.256 152.385C386.127 154.213 386.237 157.192 384.3 158.644Z"
            fill="#9CB7D4" />
        <path
            d="M369.491 115.792C368.445 117.005 368.174 118.428 367.611 119.859C365.101 118.451 362.612 116.759 359.807 116.011C359.92 112.466 355.12 105.973 360.792 105.052C365.124 104.35 363.94 113.524 365.216 114.919C365.57 115.304 369.103 114.469 369.489 115.795L369.491 115.792Z"
            fill="#4C6E3D" />
        <path
            d="M353.688 70.1133C352.579 72.0349 350.987 73.0324 348.825 72.3681C348.706 72.3322 347.262 71.3344 347.078 71.1702C345.895 70.1131 345.299 68.5311 344.173 67.4327C343.962 60.8954 344.485 50.7513 350.839 46.6345C354.139 44.4934 353.909 49.9 354.401 51.5045C355.291 54.3949 356.84 56.2846 356.098 59.6069C355.806 60.9106 354.338 62.4564 354.166 63.9285C353.895 66.2355 355.161 67.5625 353.686 70.1164L353.688 70.1133Z"
            fill="#9CB7D4" />
        <path
            d="M344.176 67.4349C345.301 68.5364 345.897 70.1184 347.081 71.1724L347.5 74.5069L347.923 74.7509L348.828 72.3703C350.989 73.0377 352.58 72.0402 353.692 70.1155C354.386 73.4155 352.666 76.885 352.106 80.1639C351.955 81.0516 352.398 82.8494 352.271 83.4465C352.089 84.3164 350.612 84.8166 351.283 85.969C350.574 86.5424 349.223 87.358 348.697 87.8483C348.464 85.7806 346.756 84.3011 346.073 82.4921C344.359 77.9453 344.332 72.2584 344.178 67.4319L344.176 67.4349Z"
            fill="#4C6E3D" />
    </g>
    <defs>
        <clipPath id="clip0_123_269">
            <rect width="101" height="143" fill="white" transform="translate(938.674 27)" />
        </clipPath>
        <clipPath id="clip1_123_269">
            <rect width="121" height="121" fill="white" transform="translate(0.673828 54)" />
        </clipPath>
        <clipPath id="clip2_123_269">
            <rect width="118" height="81" fill="white" transform="translate(1207.67 124.541) rotate(-15)" />
        </clipPath>
        <clipPath id="clip3_123_269">
            <rect width="186.023" height="124.815" fill="white"
                transform="translate(637.674 105.01) rotate(-29.9994)" />
        </clipPath>
        <clipPath id="clip4_123_269">
            <rect width="174.999" height="220.548" fill="white" transform="translate(314.947) rotate(30)" />
        </clipPath>
    </defs>
</svg>