<svg width="1728" height="246" viewBox="0 0 1728 246" fill="none" xmlns="http://www.w3.org/2000/svg">
<path d="M-34.2753 152.846L-39.674 179.989L-46.277 161.97C-46.3544 162.207 -49.8293 161.446 -50.4048 163.293C-51.549 167.079 -45.0713 184.044 -53.2455 182.011C-56.9399 155.818 -63.9647 132.739 -45.935 109.473L-67.8917 126.506C-66.9798 138.191 -64.336 152.108 -67.246 163.474L-53.6291 347.55C54.6573 326.861 165.32 312.613 275.85 308.786C510.883 300.654 741.494 348.281 974.317 366.131C1261.1 388.087 1552.13 371.971 1834.78 316.868L1829.03 239.143L1813.63 173.467C1807.53 161.61 1817.62 142.032 1817.49 140.283C1816.97 131.345 1813.96 77.8475 1812.65 74.8446C1811.22 71.6186 1807.09 77.4301 1806.37 75.3092C1805.23 72.1542 1801.19 47.0046 1796.96 48.2428C1794.95 59.635 1790.85 72.2922 1790.09 83.7316C1789.66 90.1026 1791.93 97.754 1791.6 104.164C1790.49 124.42 1791.73 145.104 1787.66 165.116C1780.87 127.26 1773.94 79.2345 1759.69 43.7815C1758.93 41.8481 1754.01 27.313 1750.22 30.0914L1752.77 164.597C1749.46 165.397 1732.71 118.052 1731.21 115.803C1728.06 111.085 1726.75 120.945 1725.08 118.292C1714.67 102.081 1707.12 84.1312 1693.04 70.2737L1722.18 179.168C1709.56 151.691 1703.26 117.269 1685.34 94.4879L1687.36 107.711L1675.21 85.9828C1668.26 106.255 1680.22 127.395 1685.07 147.997L1656.62 120.303L1659.8 163.238C1653.23 155.257 1653.6 135.24 1641.73 132.694L1653.77 181.175C1649.41 182.006 1633.64 155.503 1629.32 164.475L1634.1 243.29L1587.53 113.06C1587.58 113.75 1587.63 114.44 1587.68 115.084C1589.04 134.094 1589.49 152.429 1593.92 171.166C1576.18 157.903 1594.63 191.749 1596.19 201.86C1598 213.571 1596.53 225.063 1596.68 236.804C1592.45 240.495 1590.72 229.935 1589.65 227.052C1576.64 192.988 1567.72 153.994 1566.79 117.694C1555.48 141.851 1553.24 170.658 1557.86 196.506C1542.85 193.174 1551.76 139.766 1539.08 171.15C1534.06 153.338 1547.07 139.188 1549.17 122.097C1524.71 149.587 1522.08 195.451 1524.43 229.841L1507.17 196.137L1515.4 264.425C1487.83 221.582 1502.21 168.881 1526.38 127.901C1490.04 146.877 1482.83 189.331 1478.76 226.001C1468.59 193.855 1482.87 167.304 1489.06 136.816L1430.4 214.17C1446.12 178.86 1474.42 146.228 1461.43 105.962C1458.77 107.963 1459.25 110.519 1456.64 112.47C1457.85 116.036 1454.29 118.659 1453.04 120.973C1441.86 141.881 1426.82 161.27 1414.26 181.402L1400.31 92.9927C1392.15 100.167 1392.1 114.145 1389.9 123.561C1388.28 130.575 1386.69 138.05 1387.28 145.363C1381.11 149.244 1383.47 141.25 1382.55 138.495L1371.84 136.187L1363.56 209.814C1359.67 187.291 1346.58 156.703 1344.32 135.169C1342.7 142.183 1340.57 149.235 1338.47 156.146C1315.39 93.9072 1332.5 214.75 1337.48 228.216C1320.88 216.905 1326.9 198.136 1322.71 185.074C1318.51 172.013 1311.5 161.288 1307.45 150.204C1305.61 145.159 1303.26 142.371 1302.19 136.204C1292.52 139.047 1304.49 155.791 1304.08 161.79L1291.02 156.602L1296.08 181.954C1292.57 183.278 1265.79 120.388 1275.83 164.944L1261.95 162.87C1276.53 178.265 1285.32 199.5 1285.23 220.791C1285.13 243.887 1272.11 248.182 1268.71 268.284L1250.79 154.442C1252.37 162.978 1250.33 169.375 1250.38 177.099C1250.45 203.052 1243.42 228.095 1242.33 253.763C1240.72 246.757 1224.51 209.921 1238.64 218.038C1225.99 193.987 1229.1 166.133 1228.61 139.61C1228.47 132.496 1229.07 125.881 1229.18 119.024C1229.44 103.875 1233.77 88.0075 1229.98 72.6948C1229.24 69.742 1230.54 65.4815 1225.47 68.91C1213.96 107.056 1213.43 147.397 1217.28 186.719L1201.39 171.423C1207.09 185.576 1215.75 195.439 1210.69 211.869L1186.15 150.941C1179.61 158.135 1189.08 187.279 1174.55 179.562C1179.75 194.03 1167.88 212.028 1168.66 228.304C1156.43 197.097 1152.61 164.111 1149.87 130.999C1145.91 130.69 1143.57 136.925 1142.08 139.812C1123.46 175.753 1133.55 228.634 1140.9 266.356L1140.53 304.418C1130.24 252.524 1131.36 198.35 1123.57 146.317C1122.82 141.329 1108.03 68.5287 1103.58 75.7983C1093.19 104.7 1105.67 142.459 1104.11 168.3C1103.81 173.273 1098.49 176.443 1098.44 176.956C1095.96 194.769 1091.56 211.705 1087.53 229.169L1078.74 181.514L1055.78 256.227C1063.27 223.376 1058.14 191.227 1054.87 158.617C1054.48 154.574 1054.45 150.366 1053.96 146.33C1052.07 130.97 1051.29 113.352 1048.33 98.44C1048.09 97.162 1045.17 80.6749 1040.99 84.5927L1025.75 263.585L1015.55 139.917L1011.2 138.203C998.259 146.795 1011.34 258.219 1001.49 277.733C1002.45 252.26 994.034 228.313 999.13 202.857L988.742 219.034C984.798 203.593 986.73 186.7 997.009 174.187C997.251 168.478 990.254 176.584 988.454 172.784C985.684 166.789 996.592 92.1804 998.456 79.5032C970.448 101.379 978.208 149.158 967.638 176.36C963.049 188.128 945.083 201.349 942.105 216.283C932.151 190.83 949.264 164.162 949.927 136.536C950.097 128.565 946.901 82.1602 942.603 80.5348C927.078 86.9581 932.365 173.833 924.243 174.434L913.06 151.617C912.325 186.606 918.746 215.651 900.016 246.141L906.922 182.887L889.396 202.692C883.987 170.009 886.042 166.988 903.97 142.989C906.781 139.265 911.433 134.756 911.467 130.08C904.314 127.741 885.597 137.223 883.438 136.272L886.428 119.578L871.235 127.92L857.438 41.536C843.843 73.4042 847.632 104.727 855.031 137.355C855.163 137.855 860.19 135.215 861.614 140.986C866.041 158.473 842.655 176.722 844.584 195.735C824.832 157.218 830.779 112.451 835.355 70.9782C811.556 111.884 815.458 175.541 825.433 221.814C815.728 206.152 814.083 187.118 813.092 169.238L802.401 181.319L798.254 168.254L799.14 251.475C790.345 228.852 784.242 193.212 785.646 169.186C786.066 162.029 794.624 153.206 790.337 147.231C789.138 149.633 788.373 155.982 784.587 154.874C783.62 150.134 784.631 143.905 783.454 139.55C765.798 172.366 744.977 202.178 747.698 240.89C743.188 210.732 739.473 178.478 753.647 149.945L746.281 150.49C746.281 150.49 745.478 149.902 744.353 152.668C737.308 169.754 727.509 183.62 728.058 203.245C726.17 203.384 724.485 170.981 724.296 166.506C724.194 164.478 723.848 162.375 723.843 160.386C711.932 163.025 715.966 148.892 710.96 142.831C709.96 146.005 708.016 148.601 706.325 151.41C705.647 152.524 704.782 154.3 704.55 155.659C705.992 163.603 709.182 161.794 709.284 162.527C710.229 168.889 712.071 244.497 708.045 245.906C697.172 233.06 691.844 221.126 693.674 203.5L683.695 215.827L690.793 183.421L682.18 195.348C679.493 177.64 680.79 160.517 686.803 143.6L682.451 141.886L667.86 158.373C668.879 152.884 661.949 145.855 661.56 144.449C656.765 156.001 653.665 170.575 648.559 182.427L636.923 153.49C623.645 154.981 631.6 202.19 628.955 202.386C620.769 182.864 622.089 169.255 623.981 149.265C624.149 147.679 625.207 145.935 625.606 142.991L609.572 168.839C608.536 168.314 604.863 149.476 604.743 146.57C604.692 145.232 604.35 143.823 604.44 142.474L595.732 139C588.59 166.319 591.836 192.87 588.949 218.671C588.6 221.658 590.614 225.766 585.05 223.078C588.185 190.364 576.064 149.108 581.613 119.501C582.806 113.166 585.478 108.85 588.885 103.555C589.697 98.4974 582.085 104.705 581.593 105.112C558.541 124.03 549.292 168.44 542.882 195.381L536.742 69.3776L510.123 194.75L499.057 116.4L485.883 137.919C483.566 129.067 484.73 64.5725 475.269 65.6888C455.117 97.4868 466.124 137.807 456.808 172.968L445.624 150.151C446.986 164.07 450.243 177.294 438.979 188.677C429.161 166.36 433.358 147.357 433.174 124.328C423.491 155.166 413.014 185.554 414.814 218.227C405.478 183.798 415.519 148.167 427.251 115.512C415.08 112.71 413.761 133.398 405.672 137.652L412.826 91.8702C410.579 80.7464 391.261 119.978 389.928 124.426C382.649 147.961 385.7 181.513 372.435 201.789C370.318 188.574 368.157 175.408 367.405 162.045C356.293 165.227 361.055 183.383 358.001 191.521C353.565 180.328 356.983 166.841 356.317 154.629C355.651 142.417 355.834 128.846 352.555 117.891C335.532 133.587 334.882 155.613 335.824 176.689C328.156 159.674 326.502 138.604 330.625 120.531L315.479 144.278C313.418 133.094 327.05 56.1555 312.212 57.1143C306.546 57.5334 288.381 154.056 285.393 165.012C263.321 122.086 278.949 83.6819 272.925 39.4764L244.433 153.651C223.871 133.055 248.103 98.6419 253.369 74.8394C235.658 81.2393 226.436 100.337 217.353 115.538L210.131 46.1575L172.726 168.21C162.451 126.864 179.448 87.0632 192.357 48.4903C190.679 40.5634 172.989 58.8069 169.872 58.3897L160.318 0.471697C131.897 35.38 167.936 77.7815 144.284 111.689L149.513 68.132C132.93 91.7074 138.551 123.403 143.969 149.793L99.3849 60.5502L99.0592 127.389L77.5977 93.9961L91.4496 167.004L69.4406 112.09L68.4142 155.336L58.4391 148.856L75.9427 199.986C46.7306 177.345 53.51 141.91 36.828 113.438L36.415 136.095L27.6121 117.22L22.2884 145.376L8.22833 83.6733C-2.47507 112.274 13.7387 141.474 15.6978 170.526C5.93179 168.796 11.0314 153.658 -0.254619 168.606C-11.812 146.511 -18.1982 119.868 -11.9815 95.4404L-34.1506 152.605L-34.2753 152.846Z" fill="#314727"/>
</svg>
