<svg width="593" height="580" viewBox="0 0 593 580" fill="none" xmlns="http://www.w3.org/2000/svg">
<path d="M275.836 455.125C270.828 473.107 256.759 495.36 247.113 511.723C247.848 519.395 278.968 522.788 278.825 535.451C276.921 539.9 248.319 524.913 244.238 522.724C238.894 519.865 217.755 504.072 216.064 504.122C204.221 504.5 212.069 513.498 210.385 520.542C208.859 526.945 181.434 561.511 175.234 566.003C155.743 580.113 123.475 589.931 112.488 561.832C93.5316 513.348 179.294 511.074 206.062 499.409C181.263 485.727 158.426 467.916 137.972 448.359C128.939 455.147 124.438 467.111 114.057 475.061C59.7361 516.621 40.8157 444.908 93.9382 434.562C102.699 432.858 111.446 436.987 119.857 434.705C121.719 430.869 97.6981 415.868 96.1071 405.344C95.7789 403.155 100.288 401.508 100.388 399.027C100.83 387.776 98.3401 383.298 102.271 370.806C124.859 299.001 174.656 391.084 106.459 406.114C106.958 417.294 118.937 419.789 122.169 423.254C131.008 432.751 139.513 444.744 150.1 454.063L148.195 424.844C145.534 381.002 191.765 366.799 199.755 417.486C203.758 442.862 177.881 458.876 176.44 468.13C175.313 475.353 212.754 497.712 220.081 501.085C223.934 502.86 225.874 505.441 230.511 502.44C204.978 477.606 203.237 372.753 259.962 399.854C282.635 410.691 281.643 434.363 275.858 455.125H275.836Z" fill="#4C6E3D"/>
<path d="M67.3627 360.304C65.9501 367.484 90.5922 382.842 84.742 391.911C71.7432 412.067 10.3662 442.056 8.10465 399.775C6.68491 373.252 59.0655 380.695 75.1749 383.754C70.2022 371.091 56.0761 365.088 53.7289 351.263C45.8526 353.345 40.7444 359.384 32.8966 361.773C-1.00594 372.09 -11.8858 344.703 20.0405 336.254C29.6933 333.702 32.6683 337.716 38.9608 337.83C42.264 337.887 45.9739 333.132 47.2224 333.681C49.0773 334.493 50.811 345.046 57.553 343.27C42.9418 291.928 106.851 298.63 85.6267 338.187C82.7944 343.47 67.6338 358.892 67.3556 360.304H67.3627Z" fill="#4C6E3D"/>
<path d="M43.3056 321.631C39.5886 328.961 23.8573 323.977 18.2212 319.542C8.48277 311.877 2.48276 306.794 0 293.503C17.3579 274.01 48.2854 311.806 43.3056 321.631Z" fill="#4C6E3D"/>
<path d="M206.001 128.651C216.474 122.947 210.774 100.944 222.217 95.7823C241.23 87.1978 247.473 111.632 247.687 126.284C254.479 121.479 265.494 101.294 274.405 102.413C295.188 105.008 278.686 134.355 280.248 135.482C289.188 134.897 302.614 126.527 311.154 130.455C314.329 131.917 321.093 141.942 323.732 145.927C324.959 147.788 328.798 150.74 329.411 152.458C336.538 172.572 314.144 186.632 297.071 188.529L297.999 196.265C351.756 191.88 346.976 241.832 294.617 233.39C293.575 241.889 299.839 236.285 302.365 238.21C303.863 239.358 304.37 243.871 306.553 246.367C313.002 253.732 317.29 251.536 316.748 265.939C315.742 292.655 282.767 272.092 281.169 274.316C289.744 293.182 278.843 307.606 259.794 294.016C253.394 289.453 252.039 281.482 244.983 278.637C242.5 289.867 242.001 317.902 230.258 319.969C213.257 322.971 216.731 304.897 209.796 304.141C207.428 303.884 203.311 307.506 199.915 307.613C164.836 308.711 193.116 268.705 188.158 264.484C178.141 268.07 171.606 278.509 161.647 282.245C150.139 286.566 137.939 288.811 134.272 274.609C129.349 255.55 161.154 245.832 165.57 229.205C163.109 222.496 112.262 226.645 110.172 207.102C108.859 194.782 115.13 190.104 126.538 187.951C129.207 183.987 111.97 176.429 118.448 166.447C123.249 159.061 138.638 161.335 146.693 159.332C147.371 152.579 140.443 154.005 137.696 150.697C130.826 142.419 129.599 129.871 133.987 120.003L149.789 121.201L189.72 146.319C171.028 109.051 185.761 73.1447 206.001 128.659V128.651ZM257.268 199.894C258.282 195.858 256.705 191.78 253.138 189.641C247.83 186.454 247.651 176.978 240.018 173.228C209.918 158.44 184.648 204.229 205.694 225.797C217.273 237.661 230.729 233.854 244.733 228.15C263.283 220.592 255.492 215.68 257.161 200.471C257.183 200.279 257.219 200.086 257.261 199.901L257.268 199.894Z" fill="#FFFCFA"/>
<path d="M253.138 189.641C256.705 191.787 258.282 195.858 257.268 199.894C257.218 200.079 257.19 200.272 257.169 200.464C255.499 215.672 263.29 220.585 244.74 228.143C230.729 233.847 217.273 237.661 205.701 225.79C184.648 204.215 209.925 158.426 240.025 173.221C247.658 176.971 247.837 186.447 253.145 189.634L253.138 189.641Z" fill="#D9932C"/>
<path d="M423.966 516.734C415.284 527.03 406.38 526.132 397.063 532.192C388.601 537.696 381.474 547.386 371.893 551.236C363.474 543.892 385.434 489.591 392.846 479.972C407.593 460.821 429.381 457.834 445.748 441C445.127 464.65 439.562 498.239 423.966 516.734Z" fill="#DC7C50"/>
<path d="M492.178 305.574C501.103 289.468 523.961 255.629 545.372 260.249C553.94 262.096 556.594 288.69 555.98 296.034L539.842 331.313C625.105 306.166 593.636 369.23 536.289 381.237C528.698 382.827 517.426 380.375 516.977 381.23C516.235 382.635 519.517 390.057 515.964 393.337C510.634 398.256 449.935 399.846 463.997 377.13C445.091 384.168 415.119 382.399 408.178 360.254C412.779 362.649 428.068 367.063 430.48 360.175C425.243 360.553 419.935 359.498 415.119 357.494C400.43 351.377 381.595 337.559 373.918 323.399C357.388 292.911 398.339 314.594 401.015 311.235C399.452 303.057 384.035 263.03 401.036 265.297C417.681 267.522 433.326 300.006 440.396 313.453C442.273 317.025 438.841 321.253 446.525 318.893C441.816 298.038 442.094 263.557 457.619 246.866C476.618 226.432 494.71 293.054 492.178 305.574ZM468.77 335.142C453.181 340.539 460.565 359.17 473.849 360.118C508.544 362.6 493.119 326.707 468.77 335.142Z" fill="#D9932C"/>
<path d="M366.209 0.0176048C402.929 -1.03763 439.971 45.5709 444.822 79.046C446.014 87.2668 447.455 139.102 444.615 142.895C437.731 143.793 440.406 143.159 439.315 139.187C435.498 125.298 434.62 111.473 426.887 98.3824C416.592 80.964 392.128 70.5114 379.821 51.667C369.505 35.8813 364.953 18.9049 366.202 0.00334729L366.209 0.0176048Z" fill="#DC7C50"/>
</svg>
