<svg width="23" height="23" viewBox="0 0 23 23" fill="none" xmlns="http://www.w3.org/2000/svg">
<g id="1YL1lS">
<g id="Group">
<path id="Vector" d="M7.79109 0.016343C10.4128 -0.0240826 13.3503 0.00735952 15.9676 0.145854C22.8343 0.509684 22.9257 7.11327 22.4205 12.4981C22.2719 14.0844 21.9235 17.7205 21.2474 19.0298C19.5268 22.3619 12.7277 22.2242 9.5503 22.1965C4.07802 22.1486 2.24229 22.0183 0.963743 16.2008C0.210433 12.7751 0.159172 7.11327 1.11975 3.73324C1.95107 0.807635 5.11364 0.0567685 7.79109 0.016343ZM6.97166 1.94853C5.25182 2.09002 3.27494 2.72036 2.84851 4.60614C2.01348 8.30058 1.98004 15.1025 3.70434 18.5215C4.5572 20.2119 5.88552 20.1752 7.54295 20.268C9.75311 20.3931 12.1683 20.4185 14.3777 20.1917C15.8264 20.0427 18.5648 19.5269 19.4548 18.2707C20.035 17.451 20.373 13.9781 20.4986 12.8095C20.8269 9.76039 21.318 4.4377 18.2267 2.61481C16.7818 1.76288 13.3733 2.03163 11.6267 2.00393C10.0949 1.97923 8.51394 1.82127 6.97166 1.94853Z" fill="#FFFCFA"/>
<path id="Vector_2" d="M7.90448 14.9997C5.60369 12.795 5.68318 8.28608 8.374 6.4295C10.1978 5.17107 14.1598 5.03557 15.4413 7.14293C17.2131 10.0558 16.8751 13.9951 13.5744 15.5634C12.0388 16.2933 9.18823 16.2304 7.90448 14.9997ZM10.9682 7.6228C8.34131 7.84963 7.52188 10.7154 8.72614 12.8152C9.74021 14.5827 12.6688 14.4248 13.8552 12.9223C14.8091 11.7148 14.6286 9.52954 13.7913 8.29207C13.2193 7.44687 11.8798 7.54345 10.9682 7.62205V7.6228Z" fill="#FFFCFA"/>
<path id="Vector_3" d="M16.9206 4.03892C17.5275 3.98502 18.4101 4.51729 18.5423 5.14089C19.0274 7.42943 15.0447 7.19661 16.1338 4.74338C16.2794 4.41548 16.5365 4.07336 16.9213 4.03967L16.9206 4.03892Z" fill="#FFFCFA"/>
</g>
</g>
</svg>
