<svg width="451" height="412" viewBox="0 0 451 412" fill="none" xmlns="http://www.w3.org/2000/svg">
<g clip-path="url(#clip0_123_624)">
<path d="M287.255 81.2349C288.392 86.9642 292.426 91.6833 290.982 98.2206C295.961 88.9617 303.335 76.9048 314.961 76.211C317.361 76.0667 325.941 77.2705 327.782 78.3982C329.247 79.2973 329.902 82.2338 329.542 83.7857C329.332 84.6934 324.372 93.61 323.673 94.5445C322.354 96.3146 314.044 101.789 311.726 103.113C310.089 104.05 307.19 104.2 305.528 105.374C302.06 107.821 297.082 116.238 298.273 120.69C293.734 127.944 293.932 138.564 290.082 144.624C289.171 146.062 284.347 147.744 282.935 147.735C270.737 147.643 278.033 127.415 278.369 120.415C278.683 113.971 274.766 101.086 271.139 95.7205C267.296 90.0373 260.008 86.5736 258.029 79.738C255.833 72.1358 259.676 59.4104 266.111 54.5328C273.328 57.301 285.078 62.6419 286.776 71.0335C287.405 74.1482 286.549 77.6777 287.258 81.2271L287.255 81.2349Z" fill="#9CB7D4"/>
<path d="M321.463 65.9025C324.394 56.0621 337.826 48.4095 347.505 46.9494C350.752 46.4621 357.469 44.8181 355.252 50.6119C353.93 54.0612 347.919 65.0104 345.113 67.042C343.591 68.1413 340.183 68.7309 338.707 69.83C336.821 71.2294 335.191 74.4141 333.096 75.7891C325.785 80.5911 319.051 74.0121 321.471 65.9056L321.463 65.9025Z" fill="#9CB7D4"/>
<path d="M314.955 76.2126C303.335 76.904 295.963 88.9664 290.977 98.2222C292.421 91.6849 288.386 86.9658 287.25 81.2365C288.596 76.632 289.959 71.4476 293.314 67.8979C294.458 66.6862 304.728 60.8984 306.081 60.8753C310.743 60.8012 315.549 71.9035 314.953 76.2072L314.955 76.2126Z" fill="#9CB7D4"/>
<path d="M311.72 103.116C309.561 109.694 301.909 114.877 298.267 120.693C297.073 116.235 302.054 107.824 305.522 105.376C307.184 104.203 310.083 104.053 311.72 103.116Z" fill="#4C6E3D"/>
<path d="M244.363 197.488C242.847 200.578 239.614 205.412 235.502 203.395C230.996 201.183 227.039 188.22 226.994 183.507C226.951 178.961 228.891 172.767 230.791 168.667C232.142 165.758 236.396 156.917 239.671 160.115C240.913 161.329 245.5 172.489 247.196 174.715C247.883 179.219 245.176 182.101 244.791 186.017C244.313 190.829 247.668 190.751 244.363 197.488Z" fill="#9CB7D4"/>
<path d="M269.111 243.568C269.779 244.068 272.457 244.652 273.355 245.238L256.364 273.877L262.914 271.76C261.902 276.849 266.395 279.433 270.93 279.407C262.365 285.315 236.842 303.142 249.54 277.728C255.214 266.373 263.387 255.042 269.106 243.571L269.111 243.568Z" fill="#4C6E3D"/>
<path d="M148.803 371.833C153.791 367.766 158.961 363.779 163.837 359.574C167.595 356.331 185.63 341.229 187.219 338.557C188.808 335.885 190.161 326.436 191.434 322.654C194.169 314.533 197.851 306.565 200.19 298.332C201.051 295.289 203.606 278.289 204.306 277.489C204.461 277.313 205.546 276.866 205.89 277.096C210.167 292.994 209.365 309.989 200.721 324.476C206.98 319.135 212.093 312.711 217.097 306.213C213.693 279.57 221.049 253.26 220.602 226.732C220.48 219.449 217.111 200.23 227.586 219.88C239.943 243.057 236.414 265.103 229.066 289.276C229.473 290.166 230.452 288.589 230.682 288.276C232.363 286.008 234.84 280.944 236.273 278.224C242.861 265.718 248.469 252.469 253.274 239.177C249.431 237.365 245.379 223.947 244.044 222.683C243.891 222.537 241.516 222.06 240.292 220.799C235.499 215.857 234.899 209.971 235.502 203.395C239.614 205.411 242.841 200.58 244.363 197.487C246.887 200.465 245.995 204.19 246.535 207.53C246.887 209.698 248.458 211.844 248.339 214.364C248.212 217.056 246.325 219.871 246.187 220.869C246.075 221.69 253.39 233.578 254.701 235.039L266.285 192.633C267.426 196.2 268.474 198.387 269.02 202.284C266.593 208.497 266.248 215.476 264.543 221.959C254.726 259.281 235.555 296.399 209.726 324.942C210.028 326.065 210.194 325.427 210.541 325.469C213.432 325.818 231.646 322.372 235.075 321.24C242.561 318.76 256.372 308.846 261.887 308.105C264.329 307.775 267.327 307.544 265.47 310.944C262.732 315.942 237.134 331.924 230.914 333.898C223.692 336.186 202.511 335.798 198.935 337.85C196.192 339.423 189.417 348.055 186.446 350.905C177.773 359.225 168.264 368.488 159.769 376.14C149.799 385.128 133.434 400.255 122.406 407.787C121.296 408.547 118.605 410.547 117.233 410.039C116.29 409.69 110.193 402.3 111.852 400.363C124.343 391.095 136.76 381.659 148.812 371.823L148.803 371.833Z" fill="#4C6E3D"/>
<path d="M317.943 29.1901C316.504 30.7743 314.719 33.5441 312.964 34.5782C308.472 37.2277 304.169 35.969 302.572 30.8965C302.267 29.9297 301.772 23.8438 302.035 22.9257C303.053 19.3705 310.64 11.6128 313.877 9.41931C315.493 8.33032 329.601 2.06813 330.879 2.01994C332.966 1.9409 333.98 2.64434 334.104 4.71837C330.255 10.5732 331.153 19.2998 325.393 23.7486C321.764 26.5497 322.188 24.526 317.943 29.1901Z" fill="#4C6E3D"/>
<path d="M302.569 30.9047C304.166 35.9773 308.469 37.2359 312.961 34.5864C310.682 39.5135 305.998 42.4776 302.301 46.1121C300.557 47.8226 299.169 50.1568 297.182 51.8571C296.474 52.461 294.065 52.7764 293.868 53.0036C291.376 55.9206 291.765 63.8465 290.627 66.4316C289.75 68.4207 288.095 68.0289 287.52 66.0286C286.773 63.441 289.931 52.6595 290.888 50.2047C293.643 43.1483 298.029 36.8864 302.564 30.907L302.569 30.9047Z" fill="#4C6E3D"/>
<path d="M278.577 169.707C278.104 173.333 275.821 191.681 276.031 193.82C276.385 197.396 279.23 197.225 280.292 198.557C283.292 202.318 284.94 207.021 286.893 211.36C289.051 210.009 290.811 208.381 293.398 207.796C297.089 206.954 301.252 208.274 305.282 207.163C309.06 206.123 316.749 202.989 320.811 201.433C326.363 198.914 339.919 212.111 339.451 216.327C338.802 222.191 333.834 215.357 332.206 214.497C314.761 205.275 286.993 237.903 273.348 245.244C272.45 244.657 269.775 244.079 269.104 243.574C258.587 235.658 270.881 215.641 269.014 202.295C268.469 198.398 267.415 196.214 266.28 192.644C262.258 180.049 256.961 173.064 251.251 161.821C245.544 150.584 244.916 150.973 247.559 138.519C248.006 136.415 246.574 131.264 250.452 131.692C265.111 133.317 274.324 157.778 278.573 169.715L278.577 169.707Z" fill="#9CB7D4"/>
<path d="M293.213 150.148C294.398 150.005 296.999 150.249 298.505 150.192C302.434 150.031 311.21 148.996 314.005 151.798C315.123 152.919 315.24 161.992 314.811 163.754C312.555 173.095 304.369 179.21 301.009 187.932C305.251 185.224 312.892 177.828 318.244 178.38C319.764 178.534 334.033 184.239 335.22 185.06C338.421 187.274 335.268 193.282 333.336 195.55C331.153 198.114 324.159 200.155 320.808 201.44C316.749 203.001 309.06 206.135 305.279 207.169C301.249 208.28 297.081 206.963 293.396 207.802C294.18 205.66 288.661 203.291 288.57 202.431C288.239 199.321 298.847 188.268 292.391 184.944C283.936 180.586 283.935 193.954 280.295 198.561C279.233 197.229 276.388 197.4 276.035 193.824C275.824 191.685 278.107 173.337 278.58 169.711C280.084 158.202 280.135 151.699 293.221 150.151L293.213 150.148Z" fill="#75899F"/>
<path d="M270.929 279.41C266.395 279.435 261.901 276.851 262.914 271.762C264.52 263.707 273.952 257.339 281.416 255.357C285.144 254.364 305.064 251.115 299.964 259.591C299.558 260.269 290.223 270.955 289.583 271.433C286.541 273.708 283.827 272.864 281.024 273.987C277.722 275.309 274.936 279.383 270.929 279.41Z" fill="#9CB7D4"/>
<path d="M293.393 207.798C290.806 208.383 289.046 210.011 286.888 211.362C284.933 207.017 283.285 202.314 280.287 198.559C283.927 193.952 283.928 180.584 292.383 184.942C298.841 188.272 288.236 199.317 288.562 202.429C288.653 203.289 294.178 205.656 293.388 207.8L293.393 207.798Z" fill="#4C6E3D"/>
<path d="M317.314 131.448C313.946 132.914 310.846 132.675 308.622 129.662C308.498 129.498 307.56 126.749 307.475 126.349C306.941 123.777 307.705 121.085 307.287 118.515C313.441 109.607 324.12 96.6192 336.629 97.393C343.129 97.7917 337.501 104.761 336.578 107.381C334.917 112.104 335.119 116.144 330.861 119.835C329.19 121.283 325.714 121.896 324.037 123.686C321.406 126.49 321.784 129.502 317.308 131.45L317.314 131.448Z" fill="#9CB7D4"/>
<path d="M307.29 118.521C307.702 121.094 306.938 123.786 307.478 126.355L304.753 131.205L305.076 131.946L308.624 129.669C310.843 132.683 313.943 132.922 317.316 131.454C314.992 136.529 309.289 139.455 305.316 143.267C304.241 144.301 303.061 147.129 302.305 147.799C301.207 148.778 298.749 147.99 298.508 150.185C296.999 150.25 294.398 150.006 293.216 150.141C294.941 147.159 294.124 143.509 294.995 140.429C297.189 132.691 302.75 125.095 307.295 118.519L307.29 118.521Z" fill="#4C6E3D"/>
</g>
<defs>
<clipPath id="clip0_123_624">
<rect width="289.684" height="365.084" fill="white" transform="translate(334.754) rotate(66.4804)"/>
</clipPath>
</defs>
</svg>
