<svg width="279" height="37" viewBox="0 0 279 37" fill="#d9932c" xmlns="http://www.w3.org/2000/svg">
    <g clip-path="url(#clip0_1_1240)">
        <path
            d="M45.1073 3.7739C45.5726 3.7739 45.8053 4.14834 45.6598 4.57204L37.2162 35.5417C37.0804 35.9654 36.6151 36.3004 36.1983 36.3004H28.1327C27.7158 36.3004 27.1632 35.9752 27.0663 35.5417L22.8493 18.9483L18.6323 35.5417C18.5354 35.9654 17.9828 36.3004 17.566 36.3004H9.50036C9.0835 36.3004 8.61818 35.9752 8.48246 35.5417L0.0387843 4.57204C-0.096935 4.14834 0.135727 3.7739 0.591356 3.7739H10.9739C11.4392 3.7739 11.9433 4.14834 12.0402 4.57204L14.6868 18.6626L18.2542 4.57204C18.39 4.09907 18.9522 3.7739 19.5048 3.7739H26.1841C26.7367 3.7739 27.299 4.09907 27.4347 4.57204L31.0022 18.6626L33.6487 4.57204C33.7456 4.14834 34.2497 3.7739 34.7151 3.7739H45.0976H45.1073Z"
            fill="#FFFCFA" />
        <path
            d="M58.2914 4.85779C58.2914 7.63649 56.2556 9.52836 53.1923 9.52836C50.1289 9.52836 48.0931 7.64634 48.0931 4.85779C48.0931 1.93129 50.1289 0 53.1923 0C56.2556 0 58.2914 1.93129 58.2914 4.85779ZM57.322 10.3659C57.6904 10.3659 58.02 10.6911 58.02 11.0261V35.5811C58.02 35.9555 57.7001 36.2906 57.322 36.2906H49.1595C48.7911 36.2906 48.4615 35.9654 48.4615 35.5811V11.0261C48.4615 10.7009 48.7814 10.3659 49.1595 10.3659H57.322Z"
            fill="#FFFCFA" />
        <path
            d="M71.7082 2.11851C72.0766 2.11851 72.4062 2.44367 72.4062 2.77869V35.5811C72.4062 35.9555 72.0863 36.2905 71.7082 36.2905H63.5457C63.1773 36.2905 62.8477 35.9654 62.8477 35.5811V2.77869C62.8477 2.45353 63.1676 2.11851 63.5457 2.11851H71.7082Z"
            fill="#FFFCFA" />
        <path
            d="M102.972 2.11851C103.341 2.11851 103.67 2.44367 103.67 2.77869V35.5811C103.67 35.9555 103.35 36.2905 102.972 36.2905H97.7373C97.4173 36.2905 97.1847 36.0048 96.9908 35.5811L96.2928 33.8863C94.5285 35.7683 91.562 37 88.4599 37C81.131 37 76.2161 31.5313 76.2161 23.3332C76.2161 15.135 81.131 9.71558 88.4599 9.71558C90.6411 9.71558 92.7253 10.3758 94.1213 11.5089V2.77869C94.1213 2.45353 94.4412 2.11851 94.8193 2.11851H102.982H102.972ZM94.1213 20.4067C93.5687 18.8498 92.0855 17.8152 90.4569 17.8152C87.9073 17.8152 86.1914 19.983 86.1914 23.2839C86.1914 26.5848 87.9073 28.9398 90.4569 28.9398C92.0758 28.9398 93.559 27.9052 94.1213 26.3483V20.4067Z"
            fill="#FFFCFA" />
        <path
            d="M130.465 10.3659C130.882 10.3659 131.163 10.6517 131.163 11.0261L130.649 15.5981C130.601 15.9726 130.329 16.3076 129.951 16.3076H127.266V35.6304C127.266 36.0541 127.033 36.2905 126.616 36.2905H118.367C117.95 36.2905 117.717 36.0541 117.717 35.6304V16.3076H115.255C114.935 16.3076 114.605 16.0218 114.605 15.6474V11.0754C114.605 10.6517 114.925 10.3659 115.255 10.3659H117.804C118.037 4.75925 120.771 2.11851 126.248 2.11851H130.281C130.698 2.11851 130.93 2.35499 130.93 2.77869V7.35073C130.93 7.77443 130.698 8.06018 130.281 8.06018C128.516 8.06018 127.547 8.76964 127.314 10.3659H130.465Z"
            fill="#FFFCFA" />
        <path
            d="M142.864 2.11851C143.232 2.11851 143.562 2.44367 143.562 2.77869V35.5811C143.562 35.9555 143.242 36.2905 142.864 36.2905H134.701C134.333 36.2905 134.003 35.9654 134.003 35.5811V2.77869C134.003 2.45353 134.323 2.11851 134.701 2.11851H142.864Z"
            fill="#FFFCFA" />
        <path
            d="M174.564 23.3332C174.564 31.5313 169.096 37 160.934 37C152.771 37 147.304 31.5313 147.304 23.3824C147.304 15.2336 152.771 9.71558 160.934 9.71558C169.096 9.71558 174.564 15.1843 174.564 23.3332ZM156.339 23.3726C156.339 26.437 158.19 28.5063 160.934 28.5063C163.677 28.5063 165.529 26.437 165.529 23.3233C165.529 20.2096 163.677 18.1896 160.934 18.1896C158.19 18.1896 156.339 20.2589 156.339 23.3726Z"
            fill="#FFFCFA" />
        <path
            d="M255.656 10.3659C256.025 10.3659 256.306 10.6517 256.306 11.0261V17.155C256.306 17.5294 256.025 17.8152 255.656 17.8152H254.454C252.69 17.8152 251.119 18.6133 250.509 19.7957V35.5811C250.509 35.9555 250.189 36.2905 249.811 36.2905H241.648C241.28 36.2905 240.95 35.9654 240.95 35.5811V11.0754C240.95 10.7502 241.27 10.4152 241.648 10.4152H246.893C247.261 10.4152 247.494 10.7403 247.639 11.1246L248.337 13.1939C249.733 11.4498 252.002 10.3659 254.454 10.3659H255.656Z"
            fill="#FFFCFA" />
        <path
            d="M261.473 28.0924C261.57 27.8067 261.841 27.7672 262.074 27.9052C263.887 28.9891 265.826 29.8365 267.406 29.8365C268.375 29.935 269.025 29.3635 269.025 28.6541C269.025 26.2498 258.875 27.0085 258.875 18.1403C258.875 13.0953 263.092 9.70573 269.403 9.70573C272.418 9.70573 276.034 10.7896 278.496 12.3957C278.729 12.583 278.864 12.8194 278.777 13.0559L276.412 18.6133C276.315 18.8991 276.043 18.9385 275.811 18.8005C273.998 17.6181 272.059 16.8692 270.479 16.8692C269.509 16.7707 268.86 17.2437 268.86 18.0024C268.86 20.4953 279.01 19.6085 279.01 28.5555C279.01 33.6005 274.928 36.9901 268.763 36.9901C265.748 36.9901 261.996 35.9063 259.398 34.3001C259.166 34.0637 259.03 33.8272 259.117 33.5414L261.483 28.0727L261.473 28.0924Z"
            fill="#FFFCFA" />
        <path
            d="M177.026 10.4447C177.346 10.159 177.773 10.0407 178.19 10.0999C186.236 11.4104 182.3 24.0032 184.123 29.3635C185.354 32.9699 189.406 32.763 191.112 29.6197C192.721 26.6636 192.576 22.6138 192.634 19.1947C192.644 18.5246 193.119 17.963 193.768 17.8447C194.573 17.6969 195.407 17.6969 196.202 17.8447C196.841 17.9728 197.307 18.5345 197.316 19.2045C197.336 22.6138 197.035 26.7228 198.451 29.7182C199.866 32.7137 203.133 32.7236 204.849 29.8956C206.565 27.0676 206.739 23.0474 206.817 19.6873C206.826 19.1355 206.526 18.6429 206.041 18.4064C204.888 17.8546 203.143 16.682 203.084 16.1007C203.055 15.7459 203.356 14.7606 203.482 14.3763C204.936 9.98162 209.124 7.68574 210.888 13.5092C211.043 14.0314 211.121 14.8296 211.296 15.2631C211.47 15.6967 213.341 16.6722 213.835 16.9185C214.553 17.2732 215.299 17.5688 216.055 17.8349C216.812 18.1009 217.636 17.6082 217.82 16.7904C219.235 10.8487 224.548 6.0205 230.849 7.65618C236.859 9.21304 238.129 16.5244 233.573 20.5347C230.936 22.8602 227.204 23.5007 223.733 23.5302C222.87 23.5302 222.192 24.3382 222.395 25.1955C222.967 27.6786 224.499 29.9646 226.758 31.1174C229.017 32.2703 232.041 32.3491 234.339 31.4032C234.785 31.216 235.424 30.7233 235.793 30.6051C236.161 30.4868 236.665 31.2357 236.85 31.5214C237.247 32.1028 237.664 32.9305 237.732 33.6498C237.819 34.6056 237.732 34.5859 236.966 35.0194C234.077 36.6748 229.802 36.9409 226.641 36.0442C221.038 34.4578 218.256 29.4817 217.558 23.9539C217.49 23.4021 217.083 22.9489 216.559 22.8208C215.445 22.535 214.339 22.1803 213.283 21.727C212.439 21.3624 211.499 21.9241 211.402 22.8503C211.024 26.6538 210.161 30.7331 207.709 33.6104C204.558 37.3153 199.032 37.7686 195.824 33.8961C195.494 33.502 195.203 32.8418 194.932 32.5462C194.864 32.4772 194.854 32.359 194.718 32.3885C192.624 35.7782 188.407 37.3547 184.607 36.2511C177.172 34.0735 179.169 23.4317 178.694 17.7462C178.568 16.2189 177.918 15.4011 177.278 14.8296C175.049 12.8194 176.212 11.1936 177.007 10.4644L177.026 10.4447ZM227.194 11.6567C223.859 11.8833 221.911 15.2434 221.484 18.298C221.465 18.4458 221.368 19.0764 221.455 19.1257C223.879 19.4311 227.369 19.1454 229.433 17.6969C232.506 15.539 231.052 11.3907 227.194 11.6567Z"
            fill="#FFFCFA" />
    </g>
    <defs>
        <clipPath id="clip0_1_1240">
            <rect width="279" height="37" fill="white" />
        </clipPath>
    </defs>
</svg>