<svg width="24" height="19" viewBox="0 0 24 19" fill="none" xmlns="http://www.w3.org/2000/svg">
<g id="t2bMTR">
<path id="Vector" d="M7.95951 0.609248C12.5357 0.516197 17.1095 0.714228 21.6833 0.659352C21.8145 0.659352 21.9386 0.616405 22.0913 0.628335C22.6853 0.673667 22.819 1.11983 22.8619 1.6328C22.9096 2.20065 22.8905 2.80667 22.9192 3.37929C23.1172 7.50453 23.3128 11.6322 23.2102 15.7693C23.1864 16.7619 23.4751 17.5516 22.2344 17.7305C20.2422 18.0169 17.9732 18.0383 15.9523 18.1123C11.6362 18.2674 7.29623 18.2817 2.97773 18.3747C2.55542 18.3843 1.95417 18.5394 1.64162 18.1719C1.44597 17.9429 1.42927 17.5206 1.39587 17.2271C0.816095 12.4243 0.498769 7.58326 0.0526034 2.76611C0.0430598 2.47264 0.102708 2.43924 0.0359021 2.141C-0.0309034 1.84276 -0.0261316 1.55407 0.24109 1.35604C0.508312 1.15801 1.60583 1.0578 1.98996 1.01008C3.95595 0.764332 5.9792 0.649808 7.95951 0.609248ZM20.7647 2.31756C19.5383 2.30563 18.3096 2.33187 17.0832 2.31756C12.9747 2.27461 8.859 2.06942 4.75046 2.37482C4.21124 2.41538 3.67203 2.47503 3.1352 2.53468C5.6404 4.1905 8.10028 5.93699 10.7367 7.38285C10.918 7.48306 12.0036 8.08192 12.1062 8.07476C15.2365 6.56209 18.1879 4.64859 20.7623 2.31517L20.7647 2.31756ZM2.64132 13.2832C2.6771 13.2808 2.68903 13.2426 2.70574 13.2164C2.95626 12.8203 3.16383 12.2668 3.39288 11.8373C4.32577 10.0909 5.44476 8.45174 6.454 6.75058L1.76807 3.62504L2.64132 13.2832ZM21.3182 4.06166L17.8873 6.66469C18.9609 7.83617 19.9988 9.04583 20.9532 10.3175C21.1154 10.5346 21.323 10.9045 21.4995 11.081C21.5258 11.1073 21.5258 11.1454 21.5807 11.1287L21.3182 4.05927V4.06166ZM3.10657 16.7452C3.99413 16.6974 4.8793 16.707 5.76924 16.6879C9.54137 16.6092 13.3206 16.5925 17.0832 16.4231C17.4125 16.4087 17.7441 16.4064 18.0734 16.3944C19.1661 16.2584 20.3639 16.3229 21.4471 16.1606C21.5067 16.1511 21.5735 16.1272 21.5807 16.0604V14.2877C20.2159 11.8135 18.3955 9.63515 16.4891 7.56418C15.5634 8.09862 14.6472 8.64738 13.6976 9.13649C13.3684 9.30589 12.3901 9.85226 12.0824 9.84988C11.8175 9.84988 11.7292 9.73535 11.536 9.63753C10.2858 9.00765 9.0618 8.3396 7.86884 7.60951C6.31323 10.1577 4.54766 12.6366 3.54558 15.4759C3.42628 15.8147 3.34516 16.1916 3.21871 16.5161C3.1853 16.5996 3.13043 16.6593 3.10895 16.7404L3.10657 16.7452Z" fill="#FFFCFA"/>
</g>
</svg>
