<svg width="143" height="8" viewBox="0 0 143 8" fill="none" xmlns="http://www.w3.org/2000/svg">
<g id="Layer_1" clip-path="url(#clip0_134_883)">
<path id="Vector" d="M142.973 5.65034C143.054 5.44014 143 4.95791 142.8 5.04446L142.652 5.86054L142.973 5.63797V5.65034Z" fill="#DEA147"/>
<path id="Vector_2" d="M141.569 4.12988C141.328 4.52556 141.047 5.21798 141.207 5.97223C141.448 5.18089 141.502 5.51474 141.769 4.57501C141.983 4.4761 142.131 4.83467 142.09 5.14379C142.157 4.93359 142.412 5.32926 142.519 4.80994C142.251 4.17934 141.903 4.15461 141.555 4.67393C141.475 4.48846 141.555 4.27826 141.569 4.12988Z" fill="#DEA147"/>
<path id="Vector_3" d="M121.299 2.85645L121.433 2.95536C121.433 2.95536 121.353 2.86881 121.299 2.85645Z" fill="#DEA147"/>
<path id="Vector_4" d="M108.735 2.39869C108.829 2.37396 108.87 2.29977 108.87 2.22559C108.776 2.27504 108.709 2.3245 108.735 2.39869Z" fill="#DEA147"/>
<path id="Vector_5" d="M106.595 1.50875C106.595 1.50875 106.675 1.54585 106.716 1.55821C106.662 1.48402 106.622 1.44693 106.595 1.50875Z" fill="#DEA147"/>
<path id="Vector_6" d="M121.299 2.85634L120.964 2.59668C120.938 2.8687 121.138 2.79452 121.299 2.85634Z" fill="#DEA147"/>
<path id="Vector_7" d="M138.772 6.10864C138.839 6.07154 138.906 5.99736 138.96 5.89844C138.906 5.93553 138.853 5.96026 138.786 5.98499C138.786 6.03445 138.786 6.07154 138.786 6.10864H138.772Z" fill="#DEA147"/>
<path id="Vector_8" d="M126.838 2.18834H126.945C126.972 2.08942 126.998 1.97814 127.025 1.85449L126.838 2.18834Z" fill="#DEA147"/>
<path id="Vector_9" d="M131.092 2.0651C130.999 2.04037 130.958 2.7328 130.932 3.02955C130.985 2.74516 131.052 2.60915 131.146 2.54732C131.146 2.41131 131.146 2.26294 131.106 2.05273L131.092 2.0651Z" fill="#DEA147"/>
<path id="Vector_10" d="M137.822 3.28935L137.943 3.19043C137.943 3.19043 137.863 3.25225 137.822 3.28935Z" fill="#DEA147"/>
<path id="Vector_11" d="M123.802 2.04026C123.802 1.94135 123.774 1.84243 123.761 1.79297C123.761 1.87952 123.774 1.96608 123.802 2.04026Z" fill="#DEA147"/>
<path id="Vector_12" d="M4.95284 7.25841C4.95284 7.25841 4.95284 7.17186 4.95284 7.13477C4.92327 7.20895 4.92327 7.25841 4.95284 7.25841Z" fill="#DEA147"/>
<path id="Vector_13" d="M0.0136719 3.82079L0.0807864 3.7837C0.0807864 3.64769 0.0942093 3.52404 0.0942093 3.40039L0.0136719 3.83316V3.82079Z" fill="#DEA147"/>
<path id="Vector_14" d="M102.674 0.61831C102.674 0.61831 102.674 0.61831 102.687 0.630675C102.796 0.556487 102.728 0.568851 102.674 0.61831Z" fill="#DEA147"/>
<path id="Vector_15" d="M66.6429 1.125C67.0577 1.74324 65.974 1.92871 66.5894 2.60877C66.5359 2.33675 67.1514 1.52067 66.6429 1.125Z" fill="#DEA147"/>
<path id="Vector_16" d="M138.665 6.00879C138.665 6.00879 138.545 6.02115 138.491 6.00879C138.571 6.03352 138.625 6.03352 138.665 6.00879Z" fill="#DEA147"/>
<path id="Vector_17" d="M66.5898 2.60938L66.6592 2.68356C66.6314 2.65883 66.6176 2.6341 66.5898 2.60938Z" fill="#DEA147"/>
<path id="Vector_18" d="M93.6299 1.02637C93.6433 1.15001 93.6836 1.23657 93.7238 1.33549C93.7238 1.2613 93.697 1.17474 93.6299 1.02637Z" fill="#DEA147"/>
<path id="Vector_19" d="M100.36 2.01591L100.199 1.91699C100.266 1.97882 100.32 2.00355 100.36 2.01591Z" fill="#DEA147"/>
<path id="Vector_20" d="M90.1373 2.01502C90.0437 1.96556 90.0169 1.86664 89.8965 1.95319C89.8965 1.99029 89.9232 2.01502 89.9366 2.03975C89.9768 1.94083 90.0437 1.90373 90.1507 2.01502H90.1373Z" fill="#DEA147"/>
<path id="Vector_21" d="M86.4854 2.01562C86.4854 2.01562 86.5255 2.11454 86.5523 2.15164C86.5924 2.13927 86.6325 2.12691 86.6727 2.11454L86.4854 2.01562Z" fill="#DEA147"/>
<path id="Vector_22" d="M16.0148 6.92455C15.9345 6.72671 15.881 6.51651 15.8409 6.29395C15.8944 6.78854 15.3592 6.96164 16.0148 6.92455Z" fill="#DEA147"/>
<path id="Vector_23" d="M138.772 5.71289C138.746 5.886 138.719 5.97255 138.665 6.00965C138.705 6.00965 138.746 5.98492 138.786 5.97255C138.786 5.87363 138.786 5.77471 138.786 5.71289H138.772Z" fill="#DEA147"/>
<path id="Vector_24" d="M89.9767 7.49345L89.4014 7.39453C89.5619 7.45636 89.776 7.49345 89.9767 7.49345Z" fill="#DEA147"/>
<path id="Vector_25" d="M42.1323 6.8252L41.998 6.91175C41.998 6.91175 42.092 6.91175 42.1323 6.8252Z" fill="#DEA147"/>
<path id="Vector_26" d="M87.6888 7.49297C87.5818 7.24567 87.4747 7.10966 87.3677 7.01074C87.3409 7.0602 87.3142 7.10966 87.3008 7.19621L87.6888 7.49297Z" fill="#DEA147"/>
<path id="Vector_27" d="M12.0274 7.95015C12.5759 7.97488 12.2816 7.05989 12.402 6.5282C13.0576 6.26854 12.7097 7.1959 12.9238 7.66576C13.3386 7.41847 13.6463 6.59003 13.954 6.61476C13.9808 6.76313 14.0343 6.82496 13.954 7.01043C14.3822 6.28091 15.2384 6.97334 15.7469 6.05834C15.787 6.1449 15.8004 6.21908 15.8138 6.28091C15.7335 5.82341 15.7201 5.35355 15.7335 5.03207C15.9743 5.0197 16.1884 4.45092 16.282 5.0568C16.1349 5.04443 16.1215 5.27936 16.0412 5.46483L16.2954 5.20517C16.5229 6.05834 15.9476 5.50193 15.9476 6.13253C16.456 5.84814 17.0447 5.14335 17.4327 5.39065C17.513 6.23145 16.5229 5.67503 17.0447 6.41692L16.4426 6.09544C16.8975 7.41847 16.0813 6.00888 16.4961 7.41847C17.2855 7.66576 17.3792 6.9857 18.1685 7.23299C18.3425 6.76313 18.115 6.54057 18.289 6.07071C19.3995 5.2299 19.172 8.18508 19.9882 7.05989C20.2022 6.50347 20.2825 5.4401 20.8712 5.99652L20.6705 6.94861C21.4331 7.04752 21.112 5.58848 21.9014 6.21908C21.7543 6.59003 21.2994 6.5282 21.4198 6.65185C21.9416 7.4061 21.781 6.1078 22.1824 6.1078L22.2627 6.94861C23.0788 6.81259 23.9752 6.20672 24.8717 6.05834C24.8182 6.30564 24.671 6.57766 24.8717 6.82496C26.0089 6.40456 27.2934 6.92388 28.3905 7.43083L28.8052 6.70131C28.8989 6.70131 28.9792 7.03516 28.8855 7.17117C29.3137 7.4432 28.9123 6.71367 29.113 6.42929C29.3538 6.37983 29.4341 6.84969 29.2735 7.05989C30.0228 6.44165 31.4142 5.73686 32.2036 6.51584L32.0431 6.72604C32.6585 7.02279 32.7388 5.24227 33.3141 5.90997L33.2071 6.03361C34.545 6.34273 36.0302 5.6874 37.047 6.7755C37.2477 5.72449 38.3716 7.24536 38.4652 5.78632C39.2279 6.50347 39.0138 6.7755 40.0842 7.25772C40.3651 7.31955 40.5123 6.34273 40.8735 6.19436V6.96097L41.3686 6.15726L41.6228 7.07225L41.9573 6.87442C41.8235 6.82496 41.6763 6.5282 41.6897 6.318C42.2115 5.97179 42.9607 6.84969 42.9741 7.24536L44.205 6.60239C44.1783 6.91151 43.9776 7.01043 43.8037 7.20827C44.4593 6.42929 43.9241 8.01198 44.5261 7.29482C44.4459 7.12171 44.5663 6.83732 44.5797 6.68895C44.874 7.14644 45.5697 7.15881 46.0648 6.96097L45.9711 7.48029C46.8809 7.6163 47.8978 7.23299 48.928 7.23299C48.5534 6.9857 48.647 6.08307 48.9414 5.98415L49.0618 6.78786C49.2625 6.29327 48.7541 6.47874 49.1421 5.87287C49.5301 5.97179 49.3963 6.78786 49.1822 7.04752L49.6505 6.76313C49.6773 6.99806 49.5702 7.13408 49.5435 7.43083C49.7308 6.93624 50.3462 8.23454 50.6272 7.36901L50.654 7.60394C51.6842 7.60394 52.1391 7.33191 52.982 7.29482C52.9954 6.60239 53.3299 6.75077 53.5707 6.19436C54.1861 6.41692 54.8685 6.96097 55.6044 6.89915C56.1262 6.55293 55.7515 6.30564 55.9924 5.8976C56.0325 6.5282 56.7684 6.46638 56.3804 6.92388C57.2634 6.82496 57.5176 6.80023 58.6415 6.28091C58.5211 6.02125 58.3873 5.90997 58.4542 5.6874C58.6549 5.58848 58.9225 5.94706 58.8823 6.25618L58.8288 6.318C60.0865 5.36592 61.7456 8.16035 62.749 6.84969L62.6955 6.91151L63.7391 6.21908C64.2208 6.33037 63.4581 6.68895 63.806 7.08462C64.9299 6.02125 65.5855 7.233 66.5087 6.5282C67.2311 8.39528 69.0508 6.39219 70.0141 7.59157L69.9606 7.14644C70.2148 6.71368 70.2683 7.39374 70.4422 7.50502C70.4155 7.15881 70.1746 7.10935 70.3218 6.87442C72.4358 6.34273 74.6835 7.51738 76.8644 7.91306C77.6538 8.03671 77.3193 5.63794 78.3094 6.68895L78.0284 7.50502C79.6339 6.5282 81.3064 7.54211 82.8718 6.71367C82.7781 6.89915 82.7781 7.14644 82.6176 7.14644C82.952 7.73995 83.8485 7.17117 83.8485 6.68895C84.0893 6.7384 83.902 7.12171 84.0492 7.36901C84.3837 7.71522 84.8787 6.61476 85.066 7.1959C85.0928 7.29482 84.9723 7.39374 84.9054 7.43083C85.1195 7.14644 85.9089 7.50502 85.7082 6.82496C86.2969 7.14644 86.8321 6.51584 87.3004 6.92388C87.6081 6.15726 88.3038 7.29482 88.4109 6.20672C88.3707 7.31955 89.4411 7.10935 89.8157 6.57766C89.6953 6.91151 90.1368 6.92388 89.9897 7.39374C90.4178 7.38137 90.8058 7.17117 90.7255 6.59003C91.5015 7.92542 92.2909 5.51429 92.7324 7.23299C93.9901 6.62712 95.1541 6.21908 96.2914 5.95942C96.2513 7.07225 95.0337 6.07071 95.0872 7.24536C96.1576 6.78786 96.7864 5.82341 97.8568 6.09544C98.1378 6.24381 97.6962 6.57766 97.6026 6.7755C98.6729 6.318 99.6764 6.87442 100.64 6.26854C100.64 6.36746 100.533 6.49111 100.439 6.5653C100.626 6.5282 100.881 6.72604 100.854 6.21908L100.666 6.3551C100.359 5.61321 101.416 4.82187 101.442 4.42619C101.121 5.88524 102.392 4.79714 101.884 6.62712C102.004 6.5282 102.165 6.29327 102.138 5.94706C102.326 6.04598 102.379 6.24381 102.192 6.62712C102.861 6.3551 102.633 5.81105 103.235 5.82341C103.235 6.07071 103.115 6.16963 103.048 6.45401C103.356 5.97179 103.663 5.50193 104.185 5.69976C104.159 5.84814 104.212 6.04598 104.065 6.03361C104.948 5.95942 105.577 4.76004 106.553 5.21754C106.272 6.28091 106.888 5.56375 106.941 6.49111L107.463 6.21908L107.249 5.77395C107.704 5.78632 108.119 5.11862 108.507 5.41538L108.172 5.79868L109.029 5.62558L108.547 5.27936C109.015 4.8095 108.493 4.11707 109.109 4.36437C108.989 4.46329 109.564 4.36437 109.805 4.92078C110.032 4.62403 110.26 4.31491 110.607 4.54984C110.701 4.8466 110.541 5.57612 110.594 5.76159C110.822 4.99497 111.664 5.55139 111.959 4.72295C111.865 4.92078 111.865 5.40301 111.892 5.50193L112.079 4.87133C112.293 5.06916 112.32 5.16808 112.293 5.55139C112.935 5.66267 112.093 4.37673 112.855 4.88369C112.802 4.93315 112.828 5.03207 112.695 5.11862C113.457 5.37828 114.166 4.72295 114.862 5.03207C115.063 5.95942 114.247 5.25463 114.488 6.04598C115.491 5.87287 116.575 4.93315 117.551 5.15571L117.364 5.0568C117.498 3.74613 118.087 5.69976 118.582 5.08153C118.461 5.18044 118.421 5.81105 118.461 5.66267C119.13 5.87287 119.826 5.34119 120.843 4.93315L120.722 5.267C121.11 5.56375 121.766 5.4401 122.181 5.58848C122.301 5.25463 122.555 5.30409 122.408 4.82187C123.719 6.7384 124.91 3.79559 126.074 5.39065C125.94 5.39065 125.74 5.6874 125.847 5.6874L126.837 5.37828C126.757 4.8095 126.703 5.03207 126.502 4.58694C126.623 4.25309 126.904 3.98106 127.158 3.98106C126.716 4.36437 127.158 4.89605 127.359 5.21754C127.332 5.04443 127.399 4.8466 127.372 4.67349C127.894 5.6874 127.452 3.52357 128.161 4.20363L128.121 4.50038C128.389 4.35201 128.63 3.95633 128.911 4.03052C129.031 4.68585 128.63 4.33964 128.616 4.88369C129.018 4.8466 129.406 3.63485 129.767 4.29018C129.593 4.47565 129.352 4.47565 129.178 4.66112C129.58 5.4401 129.62 5.24227 129.914 5.36592H129.887L130.57 5.69976L130.396 5.48956C130.904 3.77086 131.413 5.18044 132.095 4.04289C131.439 5.10626 131.988 4.66112 131.934 5.41538C132.108 5.62558 132.376 5.86051 132.296 6.07071C132.617 5.46483 132.831 6.55293 133.286 5.66267C133.312 5.90997 133.634 5.6874 133.553 6.29327C133.968 6.1078 133.46 5.87287 133.486 5.57612C134.129 4.74768 134.998 6.57766 135.908 5.4401C136.697 4.97024 136.845 4.16653 137.594 3.7585C137.848 4.1418 137.393 4.63639 137.393 4.63639C137.795 4.99497 138.102 4.92078 138.477 4.64876C138.397 4.85896 138.477 5.03207 138.597 5.30409C138.905 5.24227 138.798 4.42619 139.199 4.78477C139.133 5.0568 139.039 5.48956 138.892 5.74922C139.253 5.52666 139.601 5.08153 139.975 4.85896C140.069 5.27936 139.748 5.50193 139.628 5.77395C140.042 5.58848 140.711 5.39065 140.832 4.72295L140.564 4.48802C140.711 4.45092 140.644 5.0568 140.524 5.18044C140.163 5.69976 140.016 4.94551 139.989 4.71058L140.256 4.56221C139.989 3.15262 139.199 4.78477 138.664 4.71058L138.892 3.68431L138.343 4.53748C138.223 4.26545 138.142 3.69667 138.41 3.53593C138.035 3.02898 138.076 3.90687 137.741 3.33809C137.701 3.25154 137.728 3.20208 137.754 3.16499L137.38 3.47411C137.447 3.26391 137.313 2.74459 137.54 2.89296C136.871 2.29945 136.47 3.65958 136.216 2.89296L136.269 2.83114C135.346 3.17735 136.176 3.58539 135.48 4.47565L135.012 2.60857L134.918 3.36282C134.824 3.33809 134.637 3.27627 134.664 2.97952C134.303 3.49884 134.731 3.31336 134.517 3.79559C134.062 3.10316 133.246 4.11707 133.139 2.91769C132.978 3.48647 133.58 3.36282 133.085 3.7585C132.951 2.4602 132.523 3.98106 132.095 3.38755C132.229 2.71986 132.617 3.07843 132.202 2.47256C131.948 3.59775 131.386 2.22527 131.025 2.43547C131.011 3.33809 130.249 2.80641 129.66 3.11553C129.7 2.81877 128.536 2.62094 127.987 2.29945V2.15108C127.894 3.05371 127.332 2.89296 126.904 3.07843C126.917 2.53439 126.997 2.32418 127.225 2.07689H126.837C126.743 2.37364 126.623 2.52202 126.368 2.6333L126.462 1.95324C125.94 1.99034 125.419 2.75695 124.75 2.29945C124.709 2.93006 125.285 4.06762 124.576 4.48802C124.549 4.1418 124.522 3.56066 124.709 3.42465C124.643 3.47411 124.495 3.70904 124.375 3.56066L124.656 2.97952C124.348 2.73222 124.495 3.46174 124.255 3.41228C124.255 2.93006 124.081 3.06607 124.107 2.6704C124.174 2.62094 124.321 2.86823 124.415 2.6704C124.134 2.58384 123.813 2.29945 123.693 1.92851C123.719 2.20054 123.693 2.58384 123.492 2.64567C122.97 2.68276 123.318 2.05216 123.01 1.80486C122.89 2.13871 122.555 1.80486 122.542 2.52202C122.395 2.52202 122.368 2.17581 122.301 1.97797C122.034 2.29945 121.043 2.06452 121.351 2.8435L121.418 2.89296C121.418 2.89296 121.391 2.90533 121.378 2.93006C120.495 3.65958 119.545 2.52202 118.675 2.83114V2.58384C118.153 2.86823 117.511 2.74459 117.137 3.27627C116.976 3.27627 116.775 2.83114 116.842 2.53438C116.441 2.71986 116.401 2.99188 115.825 2.58384C116.227 2.16344 115.692 2.20054 116.24 2.27473C115.718 2.06452 115.598 1.66885 115.049 2.33655C115.237 1.70595 114.661 1.5452 114.407 1.73068L114.768 2.17581C114.488 2.26236 114.247 2.2129 114.006 2.16344L114.14 1.335C113.083 0.333458 112.226 3.04134 111.41 1.35973C111.129 1.94088 111.986 1.76777 111.731 2.43547C111.236 2.32418 110.728 1.14953 110.581 1.13717C109.912 0.679671 109.952 2.33655 109.256 2.02743C109.35 2.32418 109.43 3.10316 108.908 3.37519C108.413 3.26391 108.306 2.13871 108.614 1.90378C108.734 1.87905 108.788 1.97797 108.788 2.07689C108.948 1.96561 109.149 1.84196 108.962 1.52047L108.895 1.81723C108.654 1.52047 107.985 1.5452 108.132 1.06298C107.758 1.34737 107.972 1.5452 108.253 1.69358C107.624 1.27318 107.276 1.68122 106.634 1.39683C106.741 1.55757 106.834 1.90378 106.727 1.90378C105.777 1.5452 106.313 2.4602 105.67 2.58384C105.309 2.13871 105.804 1.52047 105.149 1.89142C104.761 1.5823 105.068 1.11244 105.216 0.877507C104.627 1.44629 104.118 0.506564 103.784 0.407646L104.092 0.172716C103.904 0.308728 103.757 0.308728 103.597 0.308728L103.771 0.889872C103.583 0.790954 103.436 0.790954 103.436 0.543659C103.249 0.926966 103.583 1.52047 103.209 2.03979C102.968 1.74304 102.473 2.36128 102.392 1.5823C103.155 1.84196 102.312 0.803319 102.954 0.679671C102.834 0.778589 102.673 0.766224 102.499 0.667306C102.473 0.580753 102.526 0.506564 102.58 0.457105C101.844 -0.235321 102.245 1.335 101.483 1.32264C101.576 0.877507 101.309 0.4942 101.188 0.580753C101.496 0.580753 101.335 1.31027 101.054 1.64412C100.573 1.29791 100.533 1.90378 100.278 1.85432L100.573 2.01507C100.479 2.44783 100.238 2.39837 99.8905 2.53438C99.8637 2.18817 100.198 2.29945 100.078 2.15108C99.7032 2.91769 99.2349 1.34737 98.6997 1.86669C98.4589 1.56993 98.6729 1.03825 98.4589 0.840413C97.8702 1.40919 97.83 0.23454 97.2012 0.7044C97.3751 1.29791 97.4153 1.14953 96.9738 1.73068L97.9906 1.31027L97.335 2.16344C97.6427 2.16344 97.9772 1.7925 98.1645 1.89142C97.8568 2.37364 97.8836 2.22527 98.0307 2.71986C97.616 1.82959 97.2012 3.23918 96.7195 2.6333V1.17426C96.0104 0.518929 95.4351 1.92851 94.4985 1.55757L94.8063 1.81723C94.6859 2.39837 94.2176 1.90378 93.9232 2.13871C93.95 1.65649 93.7627 1.47102 93.6289 1.17426C93.6423 1.53284 92.9331 1.13717 92.8529 2.11398L92.4247 1.47102C91.6621 1.21136 91.5551 2.85587 90.8192 2.69513C91.0466 2.16344 90.7122 1.81723 91.1938 1.43392C90.953 1.43392 90.7255 1.335 90.7255 1.68122C90.5784 1.3721 90.0432 2.33655 89.8157 1.87905C89.7087 2.08925 89.6819 2.60857 89.401 2.55911C89.3742 2.4602 89.401 2.32418 89.401 2.32418C89.401 2.55911 88.9728 2.65803 89.2136 3.18972C88.4644 1.66885 87.0997 3.301 86.4441 1.99034C85.9089 2.15108 85.2667 2.31182 84.785 2.34891C84.8118 2.20054 84.785 2.10162 84.8787 2.15108C84.2097 1.69358 84.4639 3.5483 83.7013 3.04134C83.3133 2.25 84.1027 2.60857 83.8618 2.31182C83.7548 0.704401 82.9387 2.53439 82.4302 1.59466L82.5507 1.49575C82.1627 0.951696 81.6007 2.10162 80.9585 1.99034C80.9585 1.99034 80.9853 1.85432 80.9585 1.74304C80.517 2.55911 79.6874 2.83114 79.072 3.06607C79.2593 2.43547 79.353 2.73222 79.2325 2.08925C78.9516 2.17581 79.3128 3.11553 78.7643 3.28864C78.5903 2.94242 78.1889 2.64567 78.1354 1.96561L78.6572 1.92851C78.3896 1.05061 77.9883 1.95324 77.7073 1.80486L77.7474 1.42156C76.9447 1.5452 76.9446 2.52202 76.0884 2.44783L76.182 2.74459C75.7137 3.70904 75.794 2.20054 75.3257 2.91769L75.1786 1.94088C74.8708 2.17581 74.0948 2.8806 73.5463 3.06607C73.854 2.33655 74.5096 1.97797 74.911 1.5452C74.6032 1.5452 73.8674 1.61939 73.7068 2.10162C73.8272 2.0027 73.9878 1.76777 74.1082 1.91615C73.7336 2.68276 73.2385 3.06607 72.6231 3.04134C72.7301 1.14953 71.0309 2.55911 70.5894 1.10007C69.5057 1.80486 68.4487 0.803319 67.191 0.914601C67.6325 2.38601 66.8298 0.951696 66.8967 2.47256C66.6023 2.57148 66.4953 2.54675 66.4685 2.44783L65.5855 1.5452C65.3714 1.10007 65.8664 1.21136 65.8397 0.877507C65.1975 0.766224 65.5721 0.23454 65.1439 -0.161133C65.2242 0.382917 64.9165 0.617847 64.5552 0.407646L65.0637 1.10007C64.1672 1.90378 64.2877 -0.173498 63.3912 0.630212L63.6722 0.160351C63.2039 0.444741 61.9596 0.160351 61.5047 1.35973C61.4244 1.18663 61.3174 0.766224 61.5181 0.667306C60.4076 0.481835 59.0563 1.96561 58.2 1.21136L58.2803 0.840413C58.0796 0.951696 57.919 1.53284 57.6648 1.1619C57.6782 1.01352 57.7451 0.790954 57.6648 0.766224C57.5578 0.889872 57.1162 1.40919 56.8487 1.19899L57.0761 0.778589C55.9924 0.296363 55.4171 1.7925 54.5072 2.03979C54.5072 0.951696 53.6643 0.593118 53.2362 0.420011V0.271634C51.9919 0.135621 51.1089 1.17426 49.9448 1.60703C49.2224 0.420011 47.4964 1.11244 46.3324 0.444741C46.5063 0.642577 46.3056 1.29791 46.0915 1.39683C45.824 1.17426 45.3423 2.15108 45.3824 1.14953L45.4761 1.17426C45.2754 0.197445 44.7135 0.457105 44.2719 0.432376L44.205 1.74304C43.0544 -0.161133 41.208 2.43547 40.5792 0.741495C40.2982 1.06298 39.9637 1.06298 39.6828 1.38446V0.679671C38.9335 0.506564 38.5455 0.407646 37.6089 0.580753L37.7963 0.0861624C37.2611 0.0367034 37.1273 2.10162 36.6322 2.15108L36.4851 1.10007C35.5485 1.11244 34.6119 0.197445 33.6888 1.14953C33.7021 1.00115 33.7289 0.692036 33.8761 0.654941C33.4345 0.630212 32.1769 -0.0498499 32.3374 1.38446C32.3374 0.444741 31.3741 1.29791 30.8791 1.70595L30.9593 1.01352C30.5312 1.89142 30.5178 2.13871 29.9291 2.37364C29.7953 2.28709 29.8087 1.81723 29.996 2.0027C29.5277 1.64412 29.6348 2.65803 29.0595 2.28709L29.2735 1.84196C28.7919 1.7925 28.832 2.02743 28.5644 2.53438C28.2567 2.80641 27.6546 2.36128 27.5743 1.74304C27.5074 2.12635 27.2398 2.6333 26.9589 2.44783C26.9187 2.2129 27.0258 2.06452 27.0793 1.99034C26.2765 1.52047 25.8885 2.79405 25.3266 2.11398C25.3266 1.89142 25.2731 1.76777 25.2329 1.70595C25.8751 1.71831 26.3836 1.75541 26.3434 1.80486C26.3434 1.17426 25.8216 1.06298 26.2364 0.185081C25.8216 0.667306 25.1125 1.70595 24.6041 1.40919C24.5773 1.34737 24.5506 1.28554 24.5372 1.18663L24.5907 1.11244C24.4703 1.05061 24.3766 1.11244 24.2696 1.21136C24.109 1.11244 24.002 1.02588 23.8548 1.02588C23.8013 0.506564 23.2661 0.741495 22.9985 0.716765C23.0253 1.40919 22.6774 1.29791 22.9985 1.87905C22.9584 1.82959 23.0521 1.7925 23.2126 1.76777C23.2528 1.74304 23.2929 1.74304 23.3197 1.69358C23.3197 1.71831 23.3197 1.73068 23.3063 1.75541C23.4802 1.73068 23.6943 1.71831 23.9485 1.70595C23.7478 2.06452 23.5337 2.36128 23.2528 1.96561C23.119 2.41074 22.9718 2.86823 22.8915 3.0908C22.5436 2.12635 21.8613 1.59466 21.7676 1.00115C20.9782 1.39683 19.9213 1.26081 19.4262 2.55911C19.1988 2.73222 19.172 2.18817 19.0917 1.97797C19.2255 1.84196 19.3727 1.86669 19.4396 1.68122C18.9981 2.01507 18.115 1.81723 18.008 2.71986C17.4461 2.31182 18.3291 1.87905 17.5531 2.02743L17.6601 1.74304C16.1349 0.283999 15.1849 4.06762 13.4991 2.20054C13.6195 2.31182 13.673 2.37364 13.6998 2.52202C11.7732 1.69358 9.73947 3.301 7.83958 1.99034C7.3044 1.73068 7.23751 2.31182 6.9164 2.75695L6.79598 2.01507L6.23404 2.8806C5.43127 3.5112 4.85596 1.05061 3.83911 2.23763L3.97291 2.74459C3.61166 2.64567 2.82227 3.04134 2.88917 2.4602C2.84903 2.54675 2.76876 2.97952 2.62158 2.71986V2.32418L1.71178 2.99188C1.01604 2.70749 1.81881 1.44629 0.81535 1.35973C0.587899 1.69358 -0.107834 2.68276 0.0259605 2.94242C0.173135 2.96715 0.413966 3.18972 0.427345 3.57303L0.0794784 3.77086C0.012581 4.92078 -0.241629 6.09544 0.601279 6.91151L1.18998 6.20672L1.37729 6.76313L0.882248 6.80023C1.16322 7.31955 1.33715 6.86205 1.53784 6.54057C1.59136 6.83732 1.67164 7.04752 1.77867 7.15881L2.35399 6.05834C2.42089 6.50347 2.09978 6.94861 2.48779 7.1959C2.75538 6.68895 2.23358 6.18199 2.6751 5.84814C2.95607 6.36746 2.87579 6.80023 3.1969 6.3551C3.23704 6.65185 3.17014 6.83732 3.03635 6.97333C3.33069 6.61476 3.81236 6.82496 3.95953 6.20672C4.25388 6.84969 4.94961 6.03361 4.92285 7.13408C5.01651 6.87442 5.44465 6.28091 5.71224 6.23145C5.2172 7.54211 6.71571 6.30564 6.59529 7.70286C6.95654 6.5282 7.90648 7.18354 8.56208 6.5282C8.52194 6.62712 8.45504 6.81259 8.40152 6.75077C8.76277 6.84969 8.8698 7.1959 9.09726 7.41847C9.13739 6.45401 9.71271 6.23145 10.0204 5.62558C10.462 6.5653 9.75285 6.76313 9.88665 7.66576C9.85989 6.87442 10.6627 6.88678 10.5021 6.23145C10.8366 6.81259 10.7964 6.51584 10.9704 7.31955C11.0239 6.1078 11.2915 7.10935 11.5725 6.36746C12.0675 6.96097 11.6929 7.50502 12.2414 7.13408C12.4956 7.50502 12.014 7.93779 12.014 7.93779L12.0274 7.95015ZM24.8984 5.84814C24.7914 5.87287 24.6977 5.8976 24.6308 5.8976C24.6844 5.8976 24.7646 5.87287 24.8984 5.84814ZM25.9822 5.83578C25.8484 5.81105 25.6878 5.79868 25.5139 5.81105C25.4738 5.57612 25.5139 5.32882 25.6209 5.34119C25.5674 5.50193 25.8216 5.63794 25.9822 5.84814V5.83578ZM23.6943 1.02588C23.8682 0.926966 23.9217 1.06298 23.9485 1.21136C23.8682 1.21136 23.7746 1.24845 23.6541 1.29791C23.6541 1.32264 23.6408 1.34737 23.6274 1.38446C23.6408 1.24845 23.6675 1.1248 23.6943 1.03825V1.02588Z" fill="#DEA147"/>
<path id="Vector_28" d="M23.3872 1.94108C23.3872 1.94108 23.3471 1.99053 23.3203 1.99053C23.3605 2.05236 23.3872 2.10182 23.4273 2.15128C23.4541 2.07709 23.4675 2.0029 23.4942 1.92871C23.4675 1.92871 23.4273 1.92871 23.4006 1.92871L23.3872 1.94108Z" fill="#DEA147"/>
<path id="Vector_29" d="M121.46 2.96777H121.433C121.433 2.96777 121.474 3.00487 121.488 3.05433C121.474 3.01723 121.474 3.00487 121.46 2.96777Z" fill="#DEA147"/>
<path id="Vector_30" d="M40.9287 7.17115V6.99805L40.8213 7.14642L40.9287 7.17115Z" fill="#DEA147"/>
<path id="Vector_31" d="M127.413 5.35352C127.413 5.35352 127.453 5.47716 127.494 5.52662C127.494 5.47716 127.453 5.41534 127.413 5.35352Z" fill="#DEA147"/>
<path id="Vector_32" d="M129.981 5.51465L130.343 5.76194C130.182 5.62593 130.075 5.55174 129.981 5.51465Z" fill="#DEA147"/>
<path id="Vector_33" d="M131.962 5.84851C131.989 5.72486 131.989 5.63831 132.003 5.55176L131.962 5.84851Z" fill="#DEA147"/>
<path id="Vector_34" d="M100.507 6.66504C100.507 6.66504 100.453 6.6774 100.426 6.70213C100.252 6.83815 100.373 6.78869 100.507 6.66504Z" fill="#DEA147"/>
<path id="Vector_35" d="M109.859 5.04492C109.765 5.16857 109.658 5.29222 109.564 5.37877C109.725 5.42823 109.859 5.44059 109.859 5.04492Z" fill="#DEA147"/>
<path id="Vector_36" d="M109.123 5.36649C109.284 5.50251 109.431 5.47778 109.565 5.36649C109.431 5.31704 109.27 5.24285 109.123 5.36649Z" fill="#DEA147"/>
<path id="Vector_37" d="M140.538 6.16956L140.632 6.19429C140.632 6.19429 140.632 6.10774 140.632 6.08301L140.524 6.16956H140.538Z" fill="#DEA147"/>
<path id="Vector_38" d="M140.646 6.08362L140.753 5.99707C140.753 5.99707 140.659 5.99707 140.646 6.08362Z" fill="#DEA147"/>
<path id="Vector_39" d="M140.979 5.82422L140.752 5.99733C140.832 5.99733 140.926 6.02205 140.979 5.82422Z" fill="#DEA147"/>
<path id="Vector_40" d="M137.917 5.84863L137.889 6.09593C137.889 6.09593 137.917 5.95992 137.917 5.84863Z" fill="#DEA147"/>
<path id="Vector_41" d="M137.126 5.92284C137.313 5.98467 137.608 6.45453 137.862 6.30615L137.889 6.10831C137.768 6.47926 137.3 5.50244 137.126 5.93521V5.92284Z" fill="#DEA147"/>
<path id="Vector_42" d="M133.809 2.80697L134.478 3.0048C134.357 2.73278 134.21 2.3742 134.504 2.31238C133.661 1.50867 134.678 2.91825 133.809 2.80697Z" fill="#DEA147"/>
<path id="Vector_43" d="M131.734 2.41124C132.096 2.28759 131.734 2.01556 131.748 1.86719C131.52 2.11448 131.467 2.17631 131.734 2.41124Z" fill="#DEA147"/>
<path id="Vector_44" d="M116.79 2.41088L116.83 1.78027C116.548 1.86683 116.83 2.02757 116.79 2.41088Z" fill="#DEA147"/>
<path id="Vector_45" d="M113.927 5.68807L114.194 6.07138L114.328 5.49023L113.927 5.68807Z" fill="#DEA147"/>
<path id="Vector_46" d="M112.241 1.17444L112.361 1.08789L111.906 1.31046L112.241 1.17444Z" fill="#DEA147"/>
<path id="Vector_47" d="M87.1406 1.39715L87.2209 2.17613C87.4082 2.04012 87.4484 1.16222 87.1406 1.39715Z" fill="#DEA147"/>
<path id="Vector_48" d="M76.303 2.18836C76.1825 1.80505 75.8748 1.54539 75.6875 1.9287C75.9283 1.97816 76.1692 2.28728 76.303 2.18836Z" fill="#DEA147"/>
<path id="Vector_49" d="M43.7908 0.927629L44.0183 0.667969L43.6035 0.87817L43.7908 0.927629Z" fill="#DEA147"/>
</g>
<defs>
<clipPath id="clip0_134_883">
<rect width="143" height="8" fill="white"/>
</clipPath>
</defs>
</svg>
