<svg width="70" height="55" viewBox="0 0 70 55" fill="none" xmlns="http://www.w3.org/2000/svg">
<g id="Layer_1" clip-path="url(#clip0_123_926)">
<path id="Vector" d="M29.3365 10.9053C29.2701 10.9269 29.1887 10.9552 29.0957 10.9885L29.3365 10.9053Z" fill="#D9932C"/>
<path id="Vector_2" d="M5.44106 17.1319C5.62208 17.0853 5.69515 17.0604 5.70346 17.0537C5.53738 17.1003 5.39954 17.1369 5.44106 17.1319Z" fill="#D9932C"/>
<path id="Vector_3" d="M1.61806 18.0371C1.52505 18.0554 1.43371 18.0754 1.37891 18.0937C1.46693 18.0737 1.54 18.0554 1.61806 18.0371Z" fill="#D9932C"/>
<path id="Vector_4" d="M29.0953 10.9883L28.4792 11.2013C28.4426 11.2345 28.7964 11.0981 29.0953 10.9883Z" fill="#D9932C"/>
<path id="Vector_5" d="M39.1621 7.1312L39.3481 7.06131C39.3996 7.03303 39.4494 7.0064 39.4959 6.98145L39.1621 7.1312Z" fill="#D9932C"/>
<path id="Vector_6" d="M47.1776 5.03223C46.9949 5.07383 46.9434 5.13539 46.877 5.172C46.9749 5.12874 47.1078 5.08714 47.2656 5.04554C47.2656 5.03555 47.2407 5.03223 47.1759 5.03223H47.1776Z" fill="#D9932C"/>
<path id="Vector_7" d="M59.9512 2.04688C59.9993 2.03357 60.0608 2.01693 60.1139 2.00195L59.9512 2.04688Z" fill="#D9932C"/>
<path id="Vector_8" d="M60.1152 2.00229L60.1776 1.98535C60.1607 1.99043 60.1388 1.99552 60.1152 2.00229Z" fill="#D9932C"/>
<path id="Vector_9" d="M33.6213 9.21777C33.6064 9.21777 33.5765 9.2211 33.5449 9.22942C33.5466 9.23441 33.5765 9.22942 33.6213 9.21777Z" fill="#D9932C"/>
<path id="Vector_10" d="M69.6914 0.206055C69.7246 0.23767 69.7512 0.27594 69.7711 0.315875C69.7861 0.324195 69.7994 0.335842 69.8077 0.332514C69.7761 0.28426 69.7362 0.239334 69.6914 0.206055Z" fill="#D9932C"/>
<path id="Vector_11" d="M4.98685 22.1742C4.97356 22.1675 4.96858 22.1658 4.9553 22.1592C4.76929 22.0843 4.87392 22.1292 4.98685 22.1742Z" fill="#D9932C"/>
<path id="Vector_12" d="M43.563 20.4732C44.224 20.0322 42.5599 21.2902 43.5447 20.6113C43.4451 20.6629 44.3718 19.9025 43.563 20.4732Z" fill="#D9932C"/>
<path id="Vector_13" d="M21.0547 26.5487C21.0547 26.5487 21.1012 26.5354 21.2224 26.4805C21.1875 26.4905 21.1228 26.5187 21.0547 26.5487Z" fill="#D9932C"/>
<path id="Vector_14" d="M9.14648 23.8711L9.4421 24.0059C9.32419 23.9526 9.22952 23.9094 9.14648 23.8711Z" fill="#D9932C"/>
<path id="Vector_15" d="M27.2961 23.0908C27.2579 23.1091 27.2197 23.1291 27.1699 23.1557C27.2181 23.1324 27.2596 23.1108 27.2961 23.0908Z" fill="#D9932C"/>
<path id="Vector_16" d="M27.5908 22.9287C27.5709 22.9387 27.5493 22.947 27.5244 22.9587C27.4696 22.9936 27.4015 23.0352 27.2969 23.0901C27.3783 23.0485 27.4497 23.0119 27.5908 22.9287Z" fill="#D9932C"/>
<path id="Vector_17" d="M33.3953 19.7656C33.3605 19.7806 33.3156 19.8006 33.2758 19.8172C33.2143 19.8505 33.1412 19.8888 33.0781 19.9237L33.3953 19.7656Z" fill="#D9932C"/>
<path id="Vector_18" d="M28.2109 22.5517C28.2109 22.5517 28.2185 22.5458 28.226 22.5381C28.2166 22.5439 28.2109 22.5497 28.2109 22.5517Z" fill="#D9932C"/>
<path id="Vector_19" d="M55.2344 42.8132C55.2344 42.8132 55.2376 42.8018 55.2408 42.7969C55.2408 42.7985 55.2376 42.8051 55.2344 42.8132Z" fill="#D9932C"/>
<path id="Vector_20" d="M50.3594 54.9814C50.4059 54.9997 50.4524 55.0031 50.4922 54.9998C50.4524 55.0031 50.4042 54.9997 50.3594 54.9814Z" fill="#D9932C"/>
<path id="Vector_21" d="M53.4151 49.0479C53.4127 49.0577 53.4151 49.0552 53.4151 49.0479V49.0479Z" fill="#D9932C"/>
<path id="Vector_22" d="M4.56738 21.9724C4.47438 21.9325 4.38636 21.8959 4.30664 21.8643C4.41625 21.9108 4.50095 21.9458 4.56738 21.9724Z" fill="#D9932C"/>
<path id="Vector_23" d="M69.991 0.69388C69.9445 0.495871 69.8897 0.329476 69.815 0.234631C69.7403 0.141451 69.7037 0.131467 69.7569 0.188041C69.8781 0.336132 69.903 0.547453 69.9296 0.7022C69.9512 0.790389 69.9014 0.86693 69.8848 0.903537C69.8632 0.945136 69.8482 0.971759 69.8399 0.973423L69.8831 0.848627C69.9014 0.8037 69.9063 0.753782 69.8931 0.707192C69.8632 0.574076 69.8366 0.439297 69.7735 0.316165C69.7652 0.309509 69.7552 0.302853 69.7453 0.297861C69.727 0.26791 69.7087 0.237959 69.6838 0.214664C69.4895 0.0199827 68.9547 -0.0116323 68.6674 0.00167929C68.6558 0.00167929 68.6458 0.00334323 68.6358 0.00667112L62.021 1.5974L62.0957 1.56579L61.8682 1.63401L60.8751 1.87362C60.9033 1.85698 60.9946 1.82536 61.1906 1.77544C60.4615 1.91522 60.5578 1.95349 59.9301 2.06497C59.8603 2.07495 59.8902 2.06497 59.9533 2.04667L59.2541 2.23636C59.3887 2.18977 59.1263 2.21639 59.5614 2.12321C58.2876 2.38778 57.5352 2.66399 57.047 2.72722L57.1516 2.69727C55.8446 3.03006 56.4042 2.91525 56.2249 2.99345L55.4045 3.19146L54.7783 3.25303L54.6172 3.34454C54.4362 3.38614 54.0775 3.46934 54.139 3.43273C53.473 3.62908 54.2585 3.42608 53.8749 3.55254C52.993 3.71727 51.4784 4.15156 51.2625 4.11994C50.9586 4.23309 52.1028 3.94855 51.1794 4.19815C50.8938 4.17652 50.1082 4.47103 49.3028 4.62412C49.5369 4.52095 50.2959 4.36288 49.4904 4.51596C49.0287 4.70565 47.9376 4.87204 47.27 5.04842C47.2534 5.11498 45.8168 5.42447 44.6958 5.714C44.729 5.6957 44.1976 5.8155 43.5249 5.96692C42.854 6.12 42.0402 6.30304 41.5154 6.43116L41.5436 6.41286C41.3576 6.52767 40.2748 6.78724 39.5125 7.07677C39.5291 7.03184 39.6636 6.96196 40.0805 6.81719C39.838 6.89207 39.5906 6.97361 39.3531 7.06512C39.192 7.14666 38.9744 7.23984 38.5144 7.42121L38.6771 7.31139C37.7305 7.67246 36.7888 8.08346 35.5599 8.51608C35.5233 8.56101 36 8.42789 35.9136 8.49778L35.2543 8.74737C35.2709 8.72574 35.3373 8.68747 35.51 8.61592C35.4004 8.66084 35.1231 8.78231 34.8972 8.85719L35.3988 8.6259C34.8374 8.82058 35.1198 8.76567 34.6747 8.9304C34.6713 8.89712 34.3375 9.03357 34.3923 8.98365C34.5053 8.93706 34.7843 8.85053 34.9504 8.77399C34.4471 8.95703 33.836 9.16835 33.6267 9.22159C33.6765 9.22159 33.6417 9.26319 33.278 9.40629C32.3313 9.76737 32.9392 9.49282 32.3811 9.68583C32.1603 9.79399 31.5474 10.0003 31.5491 10.0519C31.2717 10.1567 31.2119 10.1551 31.1007 10.1834C30.6174 10.3897 28.8138 11.0553 29.3834 10.8955L29.5097 10.8506C29.4864 10.8606 29.4582 10.8706 29.4299 10.8822C28.6361 11.2133 27.7991 11.5162 26.9404 11.7491C26.512 11.8689 26.0802 11.9704 25.6533 12.0736C25.2265 12.1784 24.803 12.2833 24.3911 12.3931V12.3764C23.408 12.6443 22.1973 12.9405 21.5014 13.1535C21.2091 13.2267 20.8055 13.2983 20.9251 13.2483C20.1744 13.4513 20.0947 13.4896 18.9986 13.7375C19.7493 13.5179 18.7312 13.7791 19.7709 13.5212C18.7877 13.7542 18.5585 13.7858 17.5189 14.0936C17.866 13.9622 16.7682 14.2284 16.3048 14.3582L16.999 14.2134C16.4776 14.3515 16.0175 14.463 15.5525 14.5778L15.79 14.4614C13.7688 14.9023 12.2027 15.4847 10.6482 15.7609C10.1267 15.9323 11.7443 15.513 11.281 15.676C10.3576 15.9007 9.37608 16.0671 9.0871 16.1403C7.81661 16.4298 7.92788 16.5163 6.60092 16.8291C6.77531 16.8059 6.94803 16.8158 5.96319 17.0837C5.03814 17.31 4.80895 17.2901 5.3869 17.127C5.60778 17.0688 5.71573 17.0488 5.70909 17.0571C6.00637 16.9756 6.39499 16.8674 6.02464 16.939L5.91004 16.9889C5.44669 17.0854 4.17785 17.4065 4.46849 17.3C3.87559 17.4664 4.08651 17.4265 4.4851 17.335C3.42386 17.5812 2.77284 17.7693 1.62524 18.0405C1.82121 18.0022 2.00556 17.9789 1.81291 18.0288C1.22998 18.1686 0.942665 18.2418 0.779909 18.2884C0.698531 18.3117 0.648707 18.3284 0.607188 18.3433C0.59058 18.35 0.562347 18.3583 0.535775 18.37C0.509202 18.3816 0.484291 18.3966 0.46104 18.4199C0.41952 18.4631 0.369697 18.5014 0.294962 18.5913C0.223549 18.6795 0.115599 18.8092 0.060793 19.0488C0.0375422 19.1454 0.0325598 19.2152 0.0308991 19.2652C0.0259167 19.3151 0.0308991 19.3434 0.0292383 19.3617C0.0275775 19.3949 0.0176129 19.38 0.0126305 19.385C0.00930899 19.3883 0.00266589 19.4133 0.0358814 19.5231C0.0740792 19.6246 0.150475 19.8342 0.424503 20.0505C0.459379 20.0838 0.494255 20.1055 0.524149 20.1287C0.539096 20.1404 0.554043 20.1504 0.565669 20.1604C0.582276 20.1703 0.602206 20.1803 0.617153 20.1903C0.862947 20.3101 0.771605 20.2868 0.600545 20.2269C0.582276 20.2186 0.559025 20.207 0.540757 20.1986C0.527471 20.1903 0.512524 20.182 0.497577 20.172C0.469344 20.1537 0.44111 20.1354 0.411217 20.1171C0.356411 20.0738 0.299945 20.0356 0.258425 19.9906C0.304927 20.0406 0.361393 20.0788 0.411217 20.1221L0.492594 20.177L0.534114 20.2053C0.550722 20.2153 0.575633 20.2269 0.595563 20.2386C1.52394 20.6213 2.29287 21.0106 2.8293 21.2486L2.26962 21.0239C2.6051 21.1587 2.87581 21.2769 3.15149 21.395L2.85089 21.222C3.17309 21.3684 3.44877 21.4882 3.43549 21.4998C3.78093 21.6213 3.20464 21.3285 3.8839 21.583C4.30906 21.7894 5.21252 22.1338 5.34206 22.2469C4.11308 21.6978 5.2175 22.237 4.57478 21.9774C4.74086 22.0489 4.9252 22.1288 5.1328 22.2237C5.1793 22.2503 5.08298 22.2137 4.99163 22.1787C6.27707 22.7861 5.61442 22.3834 6.96629 22.9691C6.78361 22.9225 7.25693 23.1555 7.48114 23.2453C6.9364 23.009 7.24032 23.0872 7.74852 23.2836C8.60714 23.6796 8.69682 23.6763 9.15021 23.8743L8.63703 23.6397C8.8247 23.6879 9.2565 23.8793 9.86435 24.1322C9.90753 24.1755 9.30965 23.9092 9.52057 24.0124C10.2114 24.2553 11.0153 24.7179 11.9652 25.0906C12.3904 25.297 11.9852 25.1605 12.3605 25.3369C13.425 25.7562 13.4799 25.866 14.5959 26.3136C14.2936 26.1406 14.2338 26.1239 15.026 26.4251L13.2025 25.6664L14.3883 26.1173C13.8419 25.881 13.2241 25.6414 12.8986 25.4933C13.4649 25.703 13.4051 25.688 13.156 25.5449C13.8801 25.9226 14.654 26.1556 15.5027 26.5665L15.4379 26.6448C16.079 26.9459 16.6619 27.1839 17.2947 27.4418C17.6102 27.5716 17.939 27.7064 18.2944 27.8528C18.3625 27.8861 18.4373 27.906 18.512 27.8927C18.5834 27.8844 18.6648 27.8278 18.698 27.8112C18.786 27.7629 18.8757 27.713 18.9671 27.6631C19.1514 27.5633 19.3441 27.4601 19.5467 27.3519L19.0202 27.6198C19.2178 27.4667 20.015 27.0707 20.5298 26.7712C20.4966 26.8261 20.8288 26.6581 21.063 26.5549C21.0248 26.5482 22.2454 25.911 22.3617 25.7728L23.104 25.4168C24.4161 24.7196 24.5473 24.5216 25.8061 23.846C25.4457 24.0839 26.027 23.7928 25.1983 24.2736C25.6168 24.0457 25.9955 23.8443 25.9921 23.821C26.2462 23.7062 27.1314 23.1488 27.5317 22.9658C27.7011 22.856 27.7426 22.7944 28.2143 22.5415C28.2475 22.5282 28.2425 22.5365 28.2342 22.5448C28.3272 22.4782 28.9118 22.1504 28.5182 22.3268C29.8568 21.7162 32.1154 20.3434 33.2846 19.8242C34.198 19.3334 35.329 18.7943 36.1959 18.4282C36.1445 18.4615 36.1993 18.4448 36.0348 18.5114C37.2455 18.0388 36.739 18.1204 38.1241 17.5929C38.8465 17.3583 37.405 17.914 37.8501 17.756C38.0809 17.7793 39.5042 17.0721 40.4525 16.7559L40.2316 16.8524C40.9524 16.6012 41.9422 16.117 43.0998 15.6577C43.0998 15.6577 43.0466 15.6893 43.0998 15.676C43.8687 15.305 45.3584 14.6843 46.4645 14.2201C46.134 14.3998 45.9679 14.4447 46.1955 14.3998C46.692 14.1935 46.0244 14.3948 47.0142 13.9821C47.3464 13.8723 48.0721 13.6011 48.1834 13.6061L47.2467 13.9871C47.75 13.8474 48.4608 13.4946 48.959 13.3049L48.9058 13.3548C50.3408 12.7658 50.3358 12.6976 51.8836 12.0769L51.7159 12.1235C52.5363 11.7225 52.4367 11.8706 53.2621 11.4862L53.5411 11.4446C53.7437 11.3564 54.0559 11.22 54.418 11.0603C54.4777 11.0336 54.5392 11.0053 54.6023 10.9771C54.6355 10.9621 54.6704 10.9471 54.7053 10.9305C54.7402 10.9155 54.7767 10.8922 54.8165 10.8955C54.8979 10.8955 54.961 10.9887 54.9262 11.0603C54.8863 11.1218 54.8232 11.1701 54.7684 11.2283C54.6638 11.3298 54.5608 11.4296 54.4628 11.5245C54.3482 11.6343 54.2386 11.7391 54.1356 11.8373C54.2153 11.7508 54.315 11.6476 54.4263 11.5328C54.4827 11.4762 54.5409 11.4163 54.604 11.3531C54.6422 11.3132 54.6837 11.2699 54.7252 11.2266C54.7534 11.1967 54.7817 11.1667 54.8116 11.1368C54.8415 11.1118 54.8647 11.0719 54.8481 11.0303C54.8348 10.9904 54.7916 10.9588 54.7451 10.9621C54.6986 10.9654 54.6604 10.9954 54.6222 11.0103C54.5458 11.0469 54.4711 11.0819 54.398 11.1152C54.2718 11.1717 54.1522 11.225 54.0426 11.2732C54.1771 11.2183 54.3764 11.1368 54.5874 11.0503C54.6189 11.0386 54.6505 11.0187 54.687 11.0137C54.7235 11.0103 54.7584 11.037 54.7684 11.0702C54.78 11.1052 54.7584 11.1385 54.7335 11.1584C54.7103 11.1817 54.687 11.205 54.6654 11.2266C54.6089 11.2865 54.3814 11.5095 54.325 11.5761C54.393 11.5079 54.4678 11.4346 54.5442 11.3581L54.6189 11.2832C54.6388 11.2649 54.6588 11.245 54.677 11.2283C54.697 11.21 54.7186 11.1917 54.7402 11.1751C54.7285 11.19 54.7152 11.2083 54.6953 11.23C54.6671 11.2649 54.6339 11.3015 54.5923 11.3464C54.5259 11.4147 54.4578 11.4846 54.3864 11.5561C54.2436 11.6992 54.0908 11.849 53.928 12.0104C53.6042 12.3298 53.2305 12.6726 52.8186 13.0453C52.895 12.8157 50.4919 15.0853 49.7611 15.5562C48.1917 16.9506 46.5475 18.2019 44.6127 19.6945C45.3618 19.2469 44.0481 20.1304 44.2274 20.1204C43.784 20.4699 43.6047 20.5947 43.5598 20.6229L43.6578 20.5547C43.6163 20.583 43.5914 20.5996 43.5565 20.6246C43.0832 20.9507 42.6132 21.2835 42.1349 21.603C41.7878 21.821 42.5584 21.2652 42.5036 21.2785C41.4921 22.0073 42.0551 21.5514 41.3742 22.0173C41.532 21.9474 41.0554 22.3168 40.4674 22.7162L41.3078 22.1704C39.9227 23.2303 40.0373 22.9824 38.6306 24.0374L39.0674 23.6913C38.345 24.2304 36.3388 25.5931 35.6562 26.1589C35.5183 26.2388 35.329 26.3353 35.6512 26.1056C34.7594 26.7113 33.7795 27.4035 32.8462 28.0574C32.3795 28.3819 31.9244 28.7097 31.4976 28.9876C31.0641 29.2688 30.6589 29.5267 30.3002 29.743L30.4247 29.6332C30.0909 29.8578 29.8617 30.0525 29.4266 30.3071C29.4432 30.2838 29.5495 30.1973 29.3917 30.2988C29.2174 30.4219 28.5198 30.9211 28.0698 31.2073L28.4335 30.9311C27.8456 31.3088 27.3573 31.6432 26.9172 31.966C26.698 32.1291 26.4904 32.2855 26.2894 32.4486C26.1881 32.5268 26.0901 32.6166 25.9938 32.6998C25.944 32.7414 25.8975 32.7964 25.8443 32.8513C25.7779 32.9078 25.7297 33.0143 25.7364 33.1125C25.7447 33.3704 25.7546 33.6333 25.7629 33.9045C25.7696 34.1724 25.7746 34.452 25.7829 34.7482C25.7098 34.7432 25.6949 36.4005 25.6882 37.2274L25.6782 37.1992C25.6816 39.6518 25.7613 41.364 25.8011 43.6353C25.7746 44.1661 25.7663 44.9748 25.7646 45.8982C25.7646 46.3592 25.7646 46.85 25.7663 47.3475C25.7663 47.5971 25.7663 47.8467 25.7679 48.098C25.7679 48.2228 25.7679 48.3476 25.7679 48.4724V48.6587C25.7679 48.6787 25.7646 48.7502 25.7762 48.8002C25.7879 48.8534 25.8111 48.9033 25.8427 48.9483L25.934 49.0647C25.9606 49.0997 25.9955 49.133 26.027 49.1662C26.0918 49.2311 26.1615 49.296 26.2462 49.3476C26.4073 49.4558 26.6282 49.519 26.8292 49.4924C27.0285 49.4674 27.1945 49.3892 27.3374 49.3043C27.4802 49.2195 27.5998 49.123 27.7127 49.0281C27.6147 49.108 27.5815 49.1196 27.6014 49.093C27.6097 49.0797 27.633 49.0564 27.6612 49.0248C27.6944 48.9899 27.7343 48.9466 27.7824 48.8967C27.8439 48.8151 27.9186 48.722 27.9967 48.6288C28.3571 48.2378 28.9234 47.489 28.9184 47.5955L28.7922 47.7369C29.1044 47.479 29.8086 46.6437 30.3699 46.0031L30.3965 45.84C31.114 45.1062 31.9759 44.1095 32.783 43.1661C33.1866 42.6952 33.5786 42.2376 33.929 41.8299C34.1067 41.6286 34.2728 41.4389 34.4239 41.2658C34.4621 41.2226 34.5003 41.181 34.5368 41.141L34.57 41.1044C34.57 41.1044 34.5833 41.0911 34.59 41.0861C34.6199 41.0628 34.6597 41.0828 34.6747 41.1078L34.6846 41.1194L34.7178 41.1527C34.7394 41.1743 34.761 41.1959 34.781 41.2159C34.8208 41.2575 34.8573 41.2958 34.8922 41.3307C35.3074 41.6718 35.8057 42.1161 36.2175 42.4556L36.1644 42.4722C37.2688 43.4739 37.8202 43.9731 39.2019 45.1911L38.8997 44.9664C39.6736 45.6603 39.9692 45.7385 40.6867 46.3741L40.8544 46.6187C42.2079 47.8251 43.5366 49.093 44.915 50.2378C44.8868 50.2262 44.8336 50.2062 44.6127 50.0115C45.2272 50.5623 46.9279 52.1364 46.8863 51.9866C47.0043 52.1547 48.308 53.2495 49.0171 53.8469L48.8726 53.7803C49.1998 54.0333 49.3725 54.1614 49.5702 54.3195C49.6698 54.3993 49.7761 54.4859 49.9106 54.6007C49.9787 54.6589 50.0534 54.7221 50.1398 54.7954C50.1846 54.8336 50.2328 54.8752 50.2843 54.9202C50.3474 54.9801 50.4454 55.01 50.5401 54.9834C50.5401 54.9834 50.54 54.9834 50.5434 54.9834C50.6779 54.9584 50.7261 54.9568 50.731 54.9618C50.731 54.9651 50.7178 54.9701 50.6879 54.9784C50.6729 54.9817 50.6546 54.9867 50.6331 54.9917C50.6081 54.9967 50.5782 55.0034 50.5434 55.01C50.5301 55.0133 50.5185 55.015 50.5035 55.0167C50.5168 55.0167 50.5301 55.0133 50.5434 55.0117C50.6264 54.995 50.6995 54.9817 50.7643 54.9684C50.8257 54.9551 50.8805 54.9435 50.9303 54.9335C51.0283 54.9118 51.108 54.8919 51.1844 54.8719C51.2608 54.8519 51.3372 54.8336 51.4286 54.8087C51.4518 54.8037 51.4751 54.797 51.5016 54.792C51.5332 54.7837 51.5731 54.7771 51.6079 54.7637C51.681 54.7355 51.7491 54.6672 51.7723 54.5691C51.8056 54.4576 51.8504 54.3145 51.9052 54.1348L51.8172 54.5391C52.0846 53.6389 52.048 53.7071 52.161 53.2013C52.3088 52.6306 52.6725 51.4958 52.7522 51.3743C52.7638 51.2462 52.8751 50.7437 53.0428 50.2162C53.0794 50.1496 53.0312 50.3443 53.008 50.4441C53.4796 48.9466 53.6125 48.1895 53.9596 47.1662C53.9812 47.1495 54.0077 47.083 54.0376 46.9998C53.7138 48.0996 53.4481 48.9998 53.4248 49.0664C53.468 49.0664 53.7536 48.1196 53.5859 48.9C53.7819 48.1146 54.1041 46.7685 54.3997 45.8334C54.4163 45.7884 54.4346 45.7452 54.4495 45.7136L54.4263 45.8117C54.4944 45.5954 54.5475 45.3991 54.594 45.2144C54.6887 44.9165 54.7501 44.7268 54.8348 44.4373C54.9012 44.3358 55.1769 43.3341 55.3198 42.8532C55.2633 42.8799 55.451 42.2675 55.2517 42.815C55.2583 42.8016 55.2118 42.9647 55.1321 43.2459C55.1122 43.3191 55.0889 43.404 55.0773 43.4523C55.0773 43.4423 55.0806 43.4306 55.0823 43.419C54.9909 43.7351 54.8697 44.1478 54.7335 44.617C54.8215 44.2293 54.9195 43.8266 55.1005 43.3008C55.1437 43.0446 55.1935 42.765 55.2251 42.607C55.4809 41.9663 55.8877 40.7051 55.9774 40.5387C56.3827 39.0594 56.9772 37.0677 57.1632 36.1176C57.2745 35.6966 57.3276 35.6434 57.3874 35.4919C57.3243 35.7365 57.2396 36.0227 57.213 36.1575C57.4372 35.3156 57.9305 33.6766 57.9305 33.4603C58.2759 32.4186 57.8026 34.0659 58.2361 32.6216L58.1929 32.8213C58.6795 31.4219 59.0449 30.2771 59.4518 29.0974C59.8537 27.916 60.2738 26.6997 60.9083 25.1788C60.8219 25.3901 60.7787 25.495 60.7522 25.5349C62.1157 22.0373 63.4061 18.2701 64.7829 14.8324C65.1682 13.8523 65.1698 13.7325 65.3674 13.1202L65.4937 12.9239L65.8242 11.8739C66.329 10.3997 66.8821 9.38965 67.4966 7.51439L67.3753 7.74068C67.6294 7.0801 68.1409 5.63247 68.136 5.7556C68.1559 5.68571 68.1841 5.52597 68.2971 5.27305L68.3286 5.26141L68.8949 3.61577C69.3849 2.35949 68.9182 3.85038 69.6107 2.0084C69.6738 1.83368 69.7469 1.6207 69.8183 1.40272C69.8549 1.29456 69.8897 1.18474 69.9246 1.07992C69.9412 1.02667 69.9578 0.975087 69.9744 0.925168C69.9994 0.86693 70.016 0.780405 69.9927 0.712183L69.991 0.69388ZM55.0225 43.7268C55.0225 43.7168 55.0275 43.6968 55.0275 43.6869C55.0275 43.7201 55.0241 43.7568 55.0125 43.82C54.9245 44.1428 54.8846 44.2476 54.863 44.2876C54.9062 44.1361 54.956 43.9581 55.0225 43.7251V43.7268ZM59.656 2.15981C59.6992 2.15149 59.7291 2.1465 59.7524 2.14484L59.3355 2.24468C59.4368 2.21805 59.5415 2.18977 59.6544 2.15981H59.656Z" fill="#D9932C"/>
<path id="Vector_24" d="M55.1237 43.2259C55.1354 43.1793 55.1437 43.1527 55.1586 43.0928C55.1354 43.1577 55.1138 43.2192 55.0922 43.2808C55.0856 43.3207 55.0789 43.3623 55.0723 43.3989C55.0889 43.3407 55.1071 43.2808 55.1221 43.2259H55.1237Z" fill="#D9932C"/>
<path id="Vector_25" d="M29.3359 10.9055C29.3708 10.8939 29.404 10.8839 29.4256 10.8789C29.3974 10.8856 29.3974 10.8856 29.3775 10.8906L29.3359 10.9055Z" fill="#D9932C"/>
<path id="Vector_26" d="M53.5956 3.55404C53.3714 3.58899 53.0741 3.63558 53.6487 3.49414C52.0444 3.8236 53.9859 3.45421 52.3301 3.84523L53.5956 3.55571V3.55404Z" fill="#D9932C"/>
<path id="Vector_27" d="M48.4291 4.71686C48.0023 4.83666 47.8993 4.86495 48.4092 4.75846C49.0851 4.58707 48.3959 4.73516 48.4291 4.71686Z" fill="#D9932C"/>
<path id="Vector_28" d="M20.6322 13.2985L20.6903 13.2402C20.1705 13.3783 20.6903 13.2569 20.6322 13.2985Z" fill="#D9932C"/>
<path id="Vector_29" d="M12.2575 15.3203L11.3906 15.5549L12.03 15.3835L12.2575 15.3203Z" fill="#D9932C"/>
<path id="Vector_30" d="M32.1355 20.4281C31.8217 20.6111 31.7818 20.6993 32.3033 20.3965L32.1355 20.4281Z" fill="#D9932C"/>
<path id="Vector_31" d="M51.707 12.1686C51.9296 12.107 52.4859 11.9007 52.8164 11.7393C52.3747 11.914 51.9296 12.072 51.707 12.1686Z" fill="#D9932C"/>
<path id="Vector_32" d="M30.8691 45.3992L31.384 44.7852L31.1349 45.0664L30.8691 45.3992Z" fill="#D9932C"/>
</g>
<defs>
<clipPath id="clip0_123_926">
<rect width="70" height="55" fill="white"/>
</clipPath>
</defs>
</svg>
