<svg width="176" height="158" viewBox="0 0 176 158" fill="none" xmlns="http://www.w3.org/2000/svg">
<g clip-path="url(#clip0_123_796)">
<path d="M98.4789 74.3147C108.661 67.982 132.4 55.9796 143.183 65.3939C147.499 69.1601 140.629 85.1286 137.962 89.1114L117.61 104.063C174.284 116.784 136.404 142.681 99.8344 131.334C94.9933 129.833 89.3228 124.865 88.796 125.209C87.9288 125.773 87.4642 131.035 84.3987 131.774C79.8005 132.883 44.5988 114.548 59.8017 106.084C46.7742 104.094 30.1979 93.5888 33.2136 78.7919C35.0887 81.6131 42.4372 88.9696 45.9879 85.8162C42.875 84.3714 40.1734 82.0887 38.0522 79.4227C31.5838 71.2869 25.1742 57.4573 25.2515 46.9697C25.4165 24.3886 41.9893 49.7016 44.5779 48.6395C46.2638 43.4925 50.0737 15.8377 59.0778 22.5162C67.8915 29.0572 66.5911 52.4935 66.3921 62.3833C66.3382 65.0099 63.043 66.3271 68.1799 67.4202C72.0652 54.0652 83.0985 34.5406 97.2374 29.9671C114.543 24.3658 103.875 67.9958 98.4789 74.3147ZM75.7659 83.7155C65.1521 81.8445 63.4978 94.7822 70.793 99.5322C89.8444 111.94 92.3461 86.6357 75.7659 83.7155Z" fill="#D9932C"/>
</g>
<defs>
<clipPath id="clip0_123_796">
<rect width="145.324" height="99.7561" fill="white" transform="translate(48.3721) rotate(29.006)"/>
</clipPath>
</defs>
</svg>
