<svg width="64" height="75" viewBox="0 0 64 75" fill="none" xmlns="http://www.w3.org/2000/svg">
<path d="M46.5137 20.9628C43.56 19.7009 41.3661 4.80749 47.1283 2.07523C65.2305 -6.50124 56.5295 25.2436 46.5137 20.9628Z" fill="#92262A"/>
<path d="M24.8726 39.3921C15.1772 43.5984 21.3081 19.3952 28.9214 19.719C35.3428 19.9908 29.2157 37.5085 24.8726 39.3921Z" fill="#92262A"/>
<path d="M54.5405 46.2303C56.8163 44.41 61.8707 47.6113 62.9248 49.8559C68.2549 61.2317 48.931 62.367 51.8512 52.0038C51.9555 51.6315 54.2946 46.4313 54.5442 46.234L54.5405 46.2303Z" fill="#92262A"/>
<path d="M22.8546 62.3369C28.0692 56.4071 34.7067 63.2564 32.7028 68.3598C32.5464 68.7544 27.0598 73.5786 26.2292 73.8169C19.5247 75.7302 19.5806 66.0593 22.8546 62.3406V62.3369Z" fill="#92262A"/>
<path d="M41.0832 43.018C40.7852 42.724 40.4165 42.4857 39.9993 42.2736C39.1612 41.8455 38.7404 40.8851 38.9378 39.9657C39.8466 35.7295 41.9585 25.3961 46.9273 29.3493C52.5666 33.8348 47.7616 39.1653 44.0444 42.9473C43.2398 43.7662 41.9026 43.8295 41.0869 43.018H41.0832Z" fill="#92262A"/>
<path d="M15.152 14.9583C13.8558 13.6778 20.5082 -0.173311 23.1416 0.00164322C29.1905 0.403665 24.0914 19.6933 15.152 14.9583Z" fill="#92262A"/>
<path d="M1.30652 14.344C-5.04415 0.906047 14.1717 -6.35641 7.59387 8.83853C6.21944 12.0138 5.48194 14.3626 1.30652 14.344Z" fill="#92262A"/>
</svg>
