<svg width="239" height="62" viewBox="0 0 239 62" fill="none" xmlns="http://www.w3.org/2000/svg">
<path d="M14.9975 10.5377L14.1993 11.922L13.8127 12.3585L13.476 13.1567L12.7277 14.0546C12.7277 14.0546 11.9545 14.8278 11.5679 15.3391C11.2062 15.7756 11.0316 16.5488 10.7198 16.5488C10.3831 16.5488 9.65977 15.9377 9.65977 15.9377L9.2981 15.6758L9.27316 15.1895L9.09856 14.1294L8.63713 13.0694L8.48747 12.371C8.41265 12.0342 8.12581 11.8347 7.78909 11.8347C7.50225 11.8347 7.20294 11.9594 6.89116 12.2463C6.21771 12.8948 5.55674 13.8426 4.70869 14.8777C3.88559 15.9003 3.32439 17.5216 2.52623 17.5216C2.37658 17.5216 2.26433 17.0851 2.26433 17.0851L2.05232 16.7733L1.95255 15.9752L1.39135 14.0671L0.717904 9.95156L0.543306 8.3303C0.543306 8.3303 0.181641 7.29519 0.181641 6.73398C0.181641 6.49703 0.181641 6.22266 0.717904 6.22266C0.954857 6.22266 1.56595 7.50719 1.56595 7.50719L1.85278 8.04345L1.90267 8.6296L2.67588 12.0717C2.8879 13.1068 3.29945 13.9548 3.42416 13.9548C3.76088 13.9548 5.89346 11.3608 7.178 9.42776C7.66437 8.67949 7.90133 8.01852 8.48747 7.93122L9.11104 7.88133L9.18586 8.36771L9.6473 9.86426L10.1836 12.4832C10.1836 12.4832 10.4205 13.3063 10.8321 13.3063C11.069 13.3063 11.4556 12.3834 11.4556 12.3834C11.4556 12.3834 11.8422 12.0966 12.2039 11.71C12.7651 11.0989 13.9249 9.55248 14.5485 8.51737C14.8852 7.9811 15.2219 7.74415 15.4714 7.74415C15.833 7.74415 16.0949 8.15569 16.0949 8.66701C16.0949 9.15339 15.3965 9.77696 15.0099 10.4878L14.9975 10.5377Z" fill="#D9932C"/>
<path d="M30.1003 17.4094C30.1003 18.2824 29.5641 19.2926 28.8407 19.2926C28.5539 19.2926 28.2546 18.9558 28.2546 18.644C28.2546 17.5341 28.6412 15.2519 28.6412 15.2519L28.4915 14.4537L28.4417 13.456L28.3419 12.8449C28.1299 11.8597 27.0324 10.9618 25.9225 10.9618C25.7978 10.9618 25.6107 10.9368 25.4111 10.9368C24.9996 10.9368 24.4633 11.0117 24.0767 11.3484C23.3035 12.0468 22.7922 12.8449 22.7922 12.8449V13.668L22.4305 15.2394L22.2185 18.457C22.1936 18.8187 21.9317 19.1304 21.57 19.1304C21.0088 19.1304 20.8467 18.8436 20.8467 18.0205V17.0228L20.9714 16.5115L20.9464 15.0648L21.0712 13.8302L20.9714 13.269L21.1834 8.84167C21.2333 8.06845 21.2832 7.29524 21.2832 6.47214C21.2832 5.64904 21.1335 4.801 21.1335 3.74094V3.40422C21.1335 2.40653 21.1834 1.17188 22.0065 1.17188C22.3682 1.17188 22.7298 1.82037 22.7797 2.16957L22.8296 2.70583L22.7049 3.21715L22.8296 3.96543L22.8047 4.61392C22.8047 4.61392 22.6301 6.26013 22.6301 7.54467C22.6301 8.19317 22.7049 9.19087 22.7049 9.19087L22.8296 9.91419L23.5779 9.98903L24.401 9.45276L25.1493 9.24076L26.122 8.92898L26.8204 9.19087C26.8204 9.19087 28.4417 9.21581 29.2648 11.4232C29.6763 12.608 29.9631 14.2791 30.0629 16.0251L30.1128 17.3595V17.4094H30.1003Z" fill="#D9932C"/>
<path d="M42.0853 13.1311C40.6761 13.1311 38.9675 12.6198 37.895 12.6198C36.8225 12.6198 36.2488 13.1311 36.2488 13.7048C36.2488 13.9043 36.3236 14.1413 36.4857 14.3533C37.259 15.5381 39.192 16.5108 39.192 16.5108L40.04 16.7727L40.7135 16.8226L41.0502 17.1593L41.4867 17.521L41.5366 18.369L41.2747 18.6309L41.0627 18.9676C41.0627 18.9676 40.726 19.1173 40.5763 19.1173C39.4165 19.1173 37.7952 18.0573 37.7952 18.0573L36.8973 17.521L36.6853 17.0845L35.2386 15.3136C35.2386 15.3136 34.877 14.6152 34.877 14.1538C34.877 13.6923 35.089 12.9191 35.089 12.9191L35.1388 11.3727C35.1388 11.0609 35.4506 9.8013 35.4506 9.8013C35.4506 9.8013 36.6354 8.44194 37.4336 7.86826C38.0197 7.48165 38.6931 7.28211 38.6931 7.28211L39.2544 7.02022L40.5638 6.89551C42.5218 6.89551 43.6567 8.61654 43.6567 11.3727C43.6567 12.2956 42.9832 13.1436 42.0853 13.1436V13.1311ZM40.8507 8.55418C40.6761 8.47936 40.4142 8.45441 40.2022 8.45441C39.9902 8.45441 39.8156 8.47936 39.8156 8.47936L39.192 8.91585L38.4188 8.96573C38.4188 8.96573 37.3338 9.68906 37.3338 10.2004C37.3338 10.4872 37.5458 10.8239 37.8451 11.0484C37.9449 11.1233 38.0197 11.1482 38.1319 11.1482C38.3689 11.1482 38.5934 10.9985 38.8802 10.9985C38.955 10.9985 39.0049 10.9985 39.0922 11.0235L39.8156 11.2604L40.5139 11.1856C41.9232 10.9736 42.21 10.8239 42.21 10.0258C42.21 9.27751 41.5615 8.81608 40.8507 8.55418Z" fill="#D9932C"/>
<path d="M54.681 8.53053C52.4986 8.99197 51.7004 10.2516 51.7004 10.2516L51.5757 11.0248L51.0394 12.3093C51.0394 12.3093 50.9397 12.6211 50.9397 13.3694C50.9397 14.6789 51.3761 15.7888 51.3761 16.2752C51.3761 16.8488 51.0893 17.8715 50.4533 17.8715C50.1914 17.8715 50.0417 17.4599 49.917 17.1482L49.6801 16.4747L49.3932 15.9384L49.4431 14.392L49.3433 13.9056L49.3683 12.9329L49.2935 12.2844L49.5055 11.0747L49.3808 9.14163L49.0939 7.67003L48.9941 5.97394V5.92405C48.9941 5.53744 49.281 5.17578 49.7674 5.17578C50.0293 5.17578 50.4408 5.48756 50.4408 5.73698V5.97394L50.6154 6.5975V7.05894L50.6902 7.32083C50.8648 7.75733 51.2015 8.14393 51.5882 8.14393H51.6879C52.9475 7.96933 53.2842 6.49773 54.6187 6.49773C55.5166 6.49773 56.2898 6.83446 56.2898 7.32083C56.2898 7.83215 55.5665 8.35594 54.6935 8.53053H54.681Z" fill="#D9932C"/>
<path d="M66.516 13.1311C65.1067 13.1311 63.3982 12.6198 62.3257 12.6198C61.2531 12.6198 60.6795 13.1311 60.6795 13.7048C60.6795 13.9043 60.7543 14.1413 60.9164 14.3533C61.6896 15.5381 63.6227 16.5108 63.6227 16.5108L64.4707 16.7727L65.1441 16.8226L65.4809 17.1593L65.9174 17.521L65.9672 18.369L65.7054 18.6309L65.4933 18.9676C65.4933 18.9676 65.1566 19.1173 65.007 19.1173C63.8471 19.1173 62.2259 18.0573 62.2259 18.0573L61.328 17.521L61.1159 17.0845L59.6693 15.3136C59.6693 15.3136 59.3076 14.6152 59.3076 14.1538C59.3076 13.6923 59.5196 12.9191 59.5196 12.9191L59.5695 11.3727C59.5695 11.0609 59.8813 9.8013 59.8813 9.8013C59.8813 9.8013 61.0661 8.44194 61.8642 7.86826C62.4504 7.48165 63.1238 7.28211 63.1238 7.28211L63.685 7.02022L64.9945 6.89551C66.9525 6.89551 68.0874 8.61654 68.0874 11.3727C68.0874 12.2956 67.4139 13.1436 66.516 13.1436V13.1311ZM65.2813 8.55418C65.1067 8.47936 64.8448 8.45441 64.6328 8.45441C64.4208 8.45441 64.2462 8.47936 64.2462 8.47936L63.6227 8.91585L62.8494 8.96573C62.8494 8.96573 61.7644 9.68906 61.7644 10.2004C61.7644 10.4872 61.9765 10.8239 62.2758 11.0484C62.3755 11.1233 62.4504 11.1482 62.5626 11.1482C62.7996 11.1482 63.024 10.9985 63.3109 10.9985C63.3857 10.9985 63.4356 10.9985 63.5229 11.0235L64.2462 11.2604L64.9446 11.1856C66.3539 10.9736 66.6407 10.8239 66.6407 10.0258C66.6407 9.27751 65.9922 8.81608 65.2813 8.55418Z" fill="#D9932C"/>
<path d="M91.9826 13.9555L91.9078 15.1652V15.3149C91.9078 15.7763 91.9826 16.5246 91.9826 16.5246L91.5212 16.9362L91.1845 17.3228C91.1845 17.3228 90.2117 17.2978 90.2117 16.7616V16.7366L90.2616 15.9385L90.1369 15.1403L90.2865 13.756V11.5985C90.2865 11.3116 89.875 9.46589 88.4034 9.46589C87.4306 9.46589 86.2708 10.3638 86.2708 10.3638L85.8593 10.8751L84.9364 11.5985C84.9364 11.5985 84.5997 12.3218 84.3128 12.7832C84.0759 13.1948 84.001 14.0678 84.001 14.629C84.001 15.9135 84.3128 15.7888 84.3128 16.8613C84.3128 17.4225 84.0759 18.3579 83.39 18.3579C83.0033 18.3579 82.5918 17.7094 82.5918 17.7094L82.6916 16.5246L82.5918 15.6267L82.7664 14.2174L82.6417 9.7652L82.8537 8.81739L82.8038 7.99429L83.0408 7.70745L83.2528 7.2959C83.2528 7.2959 84.3627 7.42061 84.3378 7.70745L84.2629 8.70515V8.80491C84.2629 9.01693 84.3877 9.24142 84.8241 9.24142C85.2357 9.24142 85.959 8.49313 85.959 8.49313L86.5826 8.2063C86.5826 8.2063 87.4306 7.50791 88.5406 7.50791C89.4385 7.50791 90.2367 8.01923 91.0847 9.20399C91.621 9.92732 91.9078 10.4885 91.9078 10.8253V11.4114L92.0824 12.3343L92.0076 13.9306L91.9826 13.9555Z" fill="#D9932C"/>
<path d="M105.85 17.584C105.775 17.609 105.7 17.6339 105.588 17.6339C105.351 17.6339 105.152 17.5591 105.152 17.5591L104.117 16.7859L102.059 17.2223C101.261 17.3969 100.512 17.4593 99.9014 17.4593C98.9535 17.4593 98.5171 16.6362 97.9434 15.863C97.4321 15.2145 97.0205 14.4787 97.0205 14.0422C97.0205 11.6727 98.7166 9.63985 98.7166 9.63985L99.3402 8.71698L99.8016 8.50497C99.8016 8.50497 100.45 8.04353 101.086 8.04353C101.548 8.04353 102.221 8.4052 102.657 8.4052C102.782 8.4052 102.894 8.38026 102.969 8.30543L103.456 7.79411C103.456 7.79411 103.693 7.69434 103.892 7.69434C104.354 7.69434 104.977 9.10358 105.102 10.1886L105.227 11.2985L105.763 13.7179V14.8528L106.149 15.7757C106.149 15.7757 106.149 17.4718 105.838 17.5965L105.85 17.584ZM103.742 12.2837L103.206 11.4108L102.969 10.9244C102.969 10.9244 102.046 10.2759 101.086 10.2759C99.8016 10.2759 98.33 11.6602 98.33 13.2066C98.33 13.668 98.7166 14.4912 98.7166 14.4912L99.415 15.0274L99.8515 15.414C99.8515 15.414 100.5 15.7507 100.774 15.7507C102.658 15.7507 103.917 14.778 103.917 13.1318C103.917 12.7701 103.742 12.2837 103.742 12.2837Z" fill="#D9932C"/>
<path d="M117.074 7.39535C116.899 7.56995 116.812 7.90666 116.588 7.90666H116.563L116.026 7.85679L115.378 7.9815L114.792 7.85679L114.43 8.00644L114.305 10.7127L113.994 12.0721L114.118 13.8929L114.043 15.1774L114.193 16.8485L114.019 17.6467L114.093 18.1081L113.831 18.5696L113.42 19.1308L113.083 18.9811H112.647C112.647 18.9811 112.435 18.395 112.435 17.946C112.435 17.4846 112.609 16.7612 112.609 16.7612L112.559 14.3169L112.684 13.394L112.609 12.8203L112.846 11.5358L112.871 9.91453L113.083 8.63L112.697 8.19351L110.489 7.83184C110.252 7.8069 110.103 7.59489 110.103 7.29558C110.103 6.99627 110.439 6.13575 110.439 6.13575C110.439 6.13575 111.025 6.34776 111.474 6.34776H111.549C112.273 6.29788 113.121 5.91127 113.121 5.42489L113.046 4.04059L113.195 3.39209L113.245 2.90571L113.42 2.2572C113.42 2.2572 113.395 2.15743 113.395 1.99531C113.395 1.58376 113.52 0.810547 114.43 0.810547C114.792 0.810547 114.966 1.07244 114.966 1.45905C114.966 1.58376 114.704 2.6937 114.704 2.6937L114.754 3.9034L114.655 5.37501L115.353 5.81151L116.588 5.91127C116.949 5.96116 117.51 6.47247 117.51 6.97132C117.51 7.12098 117.224 7.23322 117.074 7.38288V7.39535Z" fill="#D9932C"/>
<path d="M128.435 11.4366L128.46 12.1101V12.1599C128.46 12.7461 127.999 12.9581 127.463 14.2925C126.951 15.5272 126.328 16.4002 126.328 16.4002L125.629 16.8366L124.931 17.3978C124.931 17.3978 124.395 17.348 124.233 17.348C122.437 17.348 120.117 14.4921 120.117 11.8107V11.7359L120.142 10.5512L120.117 9.77793L120.379 9.29156C120.379 9.29156 120.404 8.34375 121.227 8.34375C121.539 8.34375 121.813 8.4934 121.813 8.80518L121.738 12.3844C121.738 12.5964 122.362 14.0057 122.362 14.0057L122.699 14.3923L123.185 15.0657C123.185 15.0657 123.647 15.4523 124.22 15.4523C125.48 15.4523 125.767 13.9558 125.767 13.9558L126.54 13.1826L126.902 11.8482L126.926 9.47863C126.926 9.32897 127.263 8.63058 127.675 8.63058C127.7 8.63058 127.75 8.65553 127.775 8.65553C128.086 8.70542 128.111 8.99225 128.286 9.21673C128.435 9.42874 128.648 9.72806 128.648 9.72806L128.722 10.5262L128.435 11.4241V11.4366Z" fill="#D9932C"/>
<path d="M139.66 8.53053C137.477 8.99197 136.679 10.2516 136.679 10.2516L136.554 11.0248L136.018 12.3093C136.018 12.3093 135.918 12.6211 135.918 13.3694C135.918 14.6789 136.355 15.7888 136.355 16.2752C136.355 16.8488 136.068 17.8715 135.432 17.8715C135.17 17.8715 135.02 17.4599 134.896 17.1482L134.659 16.4747L134.372 15.9384L134.422 14.392L134.322 13.9056L134.347 12.9329L134.272 12.2844L134.484 11.0747L134.359 9.14163L134.072 7.67003L133.973 5.97394V5.92405C133.973 5.53744 134.259 5.17578 134.746 5.17578C135.008 5.17578 135.419 5.48756 135.419 5.73698V5.97394L135.594 6.5975V7.05894L135.669 7.32083C135.843 7.75733 136.18 8.14393 136.567 8.14393H136.666C137.926 7.96933 138.263 6.49773 139.597 6.49773C140.495 6.49773 141.268 6.83446 141.268 7.32083C141.268 7.83215 140.545 8.35594 139.672 8.53053H139.66Z" fill="#D9932C"/>
<path d="M151.494 13.1311C150.085 13.1311 148.377 12.6198 147.304 12.6198C146.232 12.6198 145.658 13.1311 145.658 13.7048C145.658 13.9043 145.733 14.1413 145.895 14.3533C146.668 15.5381 148.601 16.5108 148.601 16.5108L149.449 16.7727L150.123 16.8226L150.459 17.1593L150.896 17.521L150.946 18.369L150.684 18.6309L150.472 18.9676C150.472 18.9676 150.135 19.1173 149.985 19.1173C148.826 19.1173 147.204 18.0573 147.204 18.0573L146.306 17.521L146.094 17.0845L144.648 15.3136C144.648 15.3136 144.286 14.6152 144.286 14.1538C144.286 13.6923 144.498 12.9191 144.498 12.9191L144.548 11.3727C144.548 11.0609 144.86 9.8013 144.86 9.8013C144.86 9.8013 146.045 8.44194 146.843 7.86826C147.429 7.48165 148.102 7.28211 148.102 7.28211L148.664 7.02022L149.973 6.89551C151.931 6.89551 153.066 8.61654 153.066 11.3727C153.066 12.2956 152.392 13.1436 151.494 13.1436V13.1311ZM150.26 8.55418C150.085 8.47936 149.823 8.45441 149.611 8.45441C149.399 8.45441 149.225 8.47936 149.225 8.47936L148.601 8.91585L147.828 8.96573C147.828 8.96573 146.743 9.68906 146.743 10.2004C146.743 10.4872 146.955 10.8239 147.254 11.0484C147.354 11.1233 147.429 11.1482 147.541 11.1482C147.778 11.1482 148.003 10.9985 148.289 10.9985C148.364 10.9985 148.414 10.9985 148.501 11.0235L149.225 11.2604L149.923 11.1856C151.332 10.9736 151.619 10.8239 151.619 10.0258C151.619 9.27751 150.971 8.81608 150.26 8.55418Z" fill="#D9932C"/>
<path d="M175.14 18.407L174.604 18.6938L173.37 18.7687C173.37 18.7687 172.983 18.8185 172.596 18.8185C172.359 18.8185 172.135 18.8185 171.948 18.7437L170.738 18.3072C170.526 18.2324 170.401 18.1326 170.227 18.1326C170.127 18.1326 170.015 18.1576 169.89 18.2324C169.678 18.3322 169.628 18.7687 169.628 19.1054C169.628 19.3922 169.653 19.6167 169.653 19.6167C169.653 19.6167 169.291 20.0033 169.005 20.0033C168.793 20.0033 168.543 19.6666 168.543 19.6666L168.206 19.3049L168.256 17.8583C168.256 17.8583 168.082 17.4467 168.019 16.7234L167.945 15.8005L167.683 15.0023L167.446 11.8097L167.134 10.8868L167.009 7.98105L166.835 7.20783L166.86 4.95055L166.76 2.31912V2.26923C166.76 1.78285 167.196 1.5459 167.583 1.5459C167.87 1.5459 168.094 1.67061 168.094 1.90756L168.144 5.05032L168.294 5.72376L168.369 7.03324L168.493 9.0411L168.78 9.57737L169.017 10.3007L169.229 10.4254C169.229 10.4254 169.641 9.81432 169.952 9.60231C170.576 9.19076 172.185 8.6545 172.185 8.6545C172.185 8.6545 173.394 8.50484 173.881 8.50484C175.14 8.50484 175.864 9.32795 175.864 9.32795L176.25 9.50254L176.637 10.2009L176.974 10.4379L177.285 11.2111C177.285 11.2111 177.747 12.7825 177.747 13.6804C177.747 17.771 175.128 18.4195 175.128 18.4195L175.14 18.407ZM174.055 10.1012C171.511 10.1012 169.578 11.6476 169.578 13.4933C169.578 15.5012 171.736 17.3844 173.569 17.3844C173.931 17.3844 174.679 16.898 174.679 16.898L175.303 16.025L175.789 15.5636C175.789 15.5636 176.275 14.5908 176.275 14.092C176.275 13.3437 175.939 10.1012 174.068 10.1012H174.055Z" fill="#D9932C"/>
<path d="M188.584 8.53053C186.402 8.99197 185.604 10.2516 185.604 10.2516L185.479 11.0248L184.943 12.3093C184.943 12.3093 184.843 12.6211 184.843 13.3694C184.843 14.6789 185.279 15.7888 185.279 16.2752C185.279 16.8488 184.993 17.8715 184.357 17.8715C184.095 17.8715 183.945 17.4599 183.82 17.1482L183.583 16.4747L183.297 15.9384L183.346 14.392L183.247 13.9056L183.272 12.9329L183.197 12.2844L183.409 11.0747L183.284 9.14163L182.997 7.67003L182.897 5.97394V5.92405C182.897 5.53744 183.184 5.17578 183.671 5.17578C183.933 5.17578 184.344 5.48756 184.344 5.73698V5.97394L184.519 6.5975V7.05894L184.594 7.32083C184.768 7.75733 185.105 8.14393 185.491 8.14393H185.591C186.851 7.96933 187.188 6.49773 188.522 6.49773C189.42 6.49773 190.193 6.83446 190.193 7.32083C190.193 7.83215 189.47 8.35594 188.597 8.53053H188.584Z" fill="#D9932C"/>
<path d="M194.844 3.76672H194.72C194.383 3.76672 194.046 3.6919 193.947 3.47989L193.635 2.96856L193.759 2.24524L194.383 1.62168L194.72 1.11035L195.256 1.16024C195.693 1.23506 195.929 1.47201 195.929 2.03322C195.929 3.00597 195.368 3.72931 194.844 3.75425V3.76672ZM195.929 9.32889L196.079 12.2846L195.954 12.8707C195.954 12.8707 195.693 13.7936 195.693 14.4171C195.693 15.0906 195.929 16.1382 195.929 16.1382L195.805 16.6744C195.68 17.1858 195.318 17.6597 194.907 17.6597C194.396 17.6597 194.258 17.3229 194.258 16.6246C194.258 16.45 194.408 15.976 194.408 15.6019L194.333 13.9308C194.333 13.9308 194.184 12.4592 194.184 11.0499C194.184 10.2019 194.233 9.37877 194.42 8.89239L194.657 8.19401L194.919 7.44573C195.019 7.18384 195.331 6.90947 195.593 6.90947C196.004 6.90947 196.029 7.58292 196.029 7.58292L196.154 7.99447L195.942 9.32889H195.929Z" fill="#D9932C"/>
<path d="M211.668 13.9555L211.594 15.1652V15.3149C211.594 15.7763 211.668 16.5246 211.668 16.5246L211.207 16.9362L210.87 17.3228C210.87 17.3228 209.897 17.2978 209.897 16.7616V16.7366L209.947 15.9385L209.823 15.1403L209.972 13.756V11.5985C209.972 11.3116 209.561 9.46589 208.089 9.46589C207.116 9.46589 205.957 10.3638 205.957 10.3638L205.545 10.8751L204.622 11.5985C204.622 11.5985 204.285 12.3218 204.011 12.7832C203.774 13.1948 203.699 14.0678 203.699 14.629C203.699 15.9135 204.011 15.7888 204.011 16.8613C204.011 17.4225 203.774 18.3579 203.088 18.3579C202.702 18.3579 202.29 17.7094 202.29 17.7094L202.39 16.5246L202.29 15.6267L202.465 14.2174L202.34 9.7652L202.552 8.81739L202.502 7.99429L202.739 7.70745L202.951 7.2959C202.951 7.2959 204.061 7.42061 204.036 7.70745L203.961 8.70515V8.80491C203.961 9.01693 204.086 9.24142 204.522 9.24142C204.934 9.24142 205.657 8.49313 205.657 8.49313L206.281 8.2063C206.281 8.2063 207.129 7.50791 208.239 7.50791C209.137 7.50791 209.935 8.01923 210.783 9.20399C211.319 9.92732 211.606 10.4885 211.606 10.8253V11.4114L211.781 12.3343L211.706 13.9306L211.668 13.9555Z" fill="#D9932C"/>
<path d="M226.572 13.3944C226.572 13.6812 226.547 13.8309 226.397 14.0678L225.574 15.2027C225.574 15.2027 225.188 15.4396 224.651 15.6142C224.389 15.7389 223.828 16.0757 223.541 16.0757H223.516L221.434 15.9011H221.384C220.71 15.9011 220.486 16.8988 220.486 17.884V18.1459L220.586 19.7921C220.611 20.3783 220.897 20.5653 221.234 20.715L221.746 20.9145C221.82 21.0143 222.057 21.2762 222.444 21.6628C224.938 23.7205 225.562 24.4189 225.562 26.3894C225.562 29.2203 223.479 30.7917 220.049 30.7917C217.655 30.7917 216.084 29.3825 216.084 29.3825L214.487 27.9483L214.313 27.0753C214.313 27.0753 214.051 26.2023 214.051 25.4291C214.051 23.2092 215.048 21.775 216.907 21.1515L218.865 20.1538L218.964 19.2558L218.939 18.5574L219.114 17.5598L219.089 16.9362L219.264 15.8263V15.7764C219.264 15.265 218.129 14.2798 217.979 14.1551L216.919 12.6586L216.657 11.1371L216.894 9.90242L217.231 9.5657L217.381 9.22898L218.204 8.35599C218.977 7.43312 219.775 6.97168 220.96 6.97168C221.272 6.97168 223.018 7.71996 223.018 7.71996L224.589 8.18139C225.674 8.49317 226.572 10.8502 226.572 13.1449V13.4068V13.3944ZM223.641 26.0028V25.2794C223.616 24.5312 220.399 22.0369 219.551 22.0369C218.703 22.0369 217.106 23.0346 216.957 23.1718L216.595 23.5335C216.595 23.5335 215.946 24.0947 215.797 24.2817L215.585 25.1547C215.66 25.5912 215.971 27.4993 217.106 28.1353C218.316 28.9086 219.526 29.133 220.498 29.133C222.02 29.133 223.866 28.1104 223.866 27.0753C223.866 27.0005 223.866 26.9506 223.841 26.8758L223.629 26.0028H223.641ZM222.918 9.14168L222.506 9.01697L221.858 9.09179L221.297 8.8299L220.885 8.70519C220.81 8.68025 220.71 8.6553 220.623 8.6553C219.75 8.6553 218.64 10.2766 218.64 11.1994C218.64 12.7209 220.436 14.3172 222.681 14.3172C224.128 14.3172 224.863 13.4692 224.863 12.2345C224.863 10.8378 223.965 9.42852 222.905 9.14168H222.918Z" fill="#D9932C"/>
<path d="M238.046 10.1016L236.985 8.81711L236.424 8.55522C236.424 8.55522 234.416 8.70487 234.416 10.0518C234.416 10.4633 234.628 10.7751 235.003 10.9746L236.499 11.673L236.861 12.1594L237.447 12.4462L237.883 13.6061C237.883 13.6061 238.12 14.6911 238.12 14.9904C238.12 16.2998 237.634 16.9982 237.634 16.9982L237.397 17.6467L236.013 18.4199C236.013 18.4199 235.264 19.031 234.055 19.031C232.97 19.031 231.411 18.5447 230.089 17.9211C229.677 17.6842 229.166 17.1479 229.166 16.5617C229.166 16.2998 229.727 16.0255 229.727 16.0255L230.313 16.1502H230.9L232.034 16.7737L232.658 16.7987C232.658 16.7987 233.768 17.2102 234.204 17.2102C235.102 17.2102 236.724 16.0754 236.724 14.9155C236.724 14.4292 236.337 13.9428 235.614 13.3192C233.868 11.7977 232.907 11.8476 232.907 10.588C232.907 9.04159 233.419 8.21849 233.419 8.21849L234.242 7.44528L234.915 7.29562C234.915 7.29562 236.05 7.00879 236.561 7.00879C237.646 7.00879 238.981 8.14366 238.981 8.75475C238.981 10.0892 238.033 10.0892 238.033 10.0892L238.046 10.1016Z" fill="#D9932C"/>
<path d="M33.0934 36.9152V37.4764L32.9438 38.5364L32.8689 42.0658L32.632 43.8741L32.5322 46.2437L32.5572 47.5282L32.3451 48.1767L32.2204 49.2617C32.1207 49.985 31.7091 50.883 31.0856 50.883C30.6989 50.883 30.4121 49.9601 30.4121 49.2617C30.4121 48.5633 30.8735 47.3785 30.9234 46.7425L30.9983 44.7346L30.9484 43.9864L31.3849 41.9785L31.4597 38.5863L31.6966 37.3766L31.7465 36.2667C31.7465 36.2667 32.0084 35.5434 32.0583 35.032C32.0833 34.7951 32.0833 34.3835 32.0833 34.0842V33.523L32.3202 32.6999L32.395 32.1387C32.4699 31.7771 32.8066 31.6523 33.1433 31.6523C33.48 31.6523 33.5299 32.3258 33.5299 32.887C33.5299 33.2985 33.505 33.6353 33.505 33.6353L33.0934 36.9526V36.9152Z" fill="#D9932C"/>
<path d="M45.3773 44.01C43.9681 44.01 42.2595 43.4987 41.187 43.4987C40.1145 43.4987 39.5408 44.01 39.5408 44.5837C39.5408 44.7957 39.6156 45.0202 39.7777 45.2322C40.5509 46.417 42.484 47.3897 42.484 47.3897L43.332 47.6516L44.0055 47.7015L44.3422 48.0382L44.7787 48.3999L44.8286 49.248L44.5667 49.5098L44.3547 49.8466C44.3547 49.8466 44.0179 49.9962 43.8683 49.9962C42.7085 49.9962 41.0872 48.9362 41.0872 48.9362L40.1893 48.3999L39.9773 47.9634L38.5306 46.1925C38.5306 46.1925 38.1689 45.4941 38.1689 45.0327C38.1689 44.5463 38.381 43.798 38.381 43.798L38.4308 42.2516C38.4308 41.9398 38.7426 40.6802 38.7426 40.6802C38.7426 40.6802 39.9274 39.3209 40.7255 38.7472C41.3117 38.3606 41.9851 38.161 41.9851 38.161L42.5463 37.8991L43.8558 37.7744C45.8138 37.7744 46.9487 39.4955 46.9487 42.2516C46.9487 43.1745 46.2752 44.0225 45.3773 44.0225V44.01ZM44.1427 39.4331C43.9681 39.3583 43.7062 39.3333 43.4942 39.3333C43.2821 39.3333 43.1076 39.3583 43.1076 39.3583L42.484 39.7948L41.7108 39.8446C41.7108 39.8446 40.6258 40.568 40.6258 41.0793C40.6258 41.3661 40.8378 41.6904 41.1371 41.9273C41.2369 42.0022 41.3117 42.0271 41.4239 42.0271C41.6609 42.0271 41.8854 41.8775 42.1722 41.8775C42.247 41.8775 42.2969 41.8775 42.3842 41.9024L43.1076 42.1393L43.8059 42.0645C45.2152 41.865 45.502 41.7029 45.502 40.9047C45.502 40.1564 44.8535 39.695 44.1427 39.4331Z" fill="#D9932C"/>
<path d="M60.106 48.4631C60.0312 48.4881 59.9563 48.513 59.8441 48.513C59.6071 48.513 59.4076 48.4382 59.4076 48.4382L58.3725 47.665L56.3147 48.1015C55.5166 48.2761 54.7683 48.3384 54.1572 48.3384C53.2094 48.3384 52.7729 47.5153 52.1992 46.7421C51.6879 46.0936 51.2764 45.3453 51.2764 44.9213C51.2764 42.5518 52.9725 40.519 52.9725 40.519L53.596 39.5961L54.0574 39.3966C54.0574 39.3966 54.706 38.9351 55.342 38.9351C55.8034 38.9351 56.4769 39.2968 56.9134 39.2968C57.0381 39.2968 57.1503 39.2718 57.2251 39.197L57.7115 38.6857C57.7115 38.6857 57.9485 38.5859 58.148 38.5859C58.6094 38.5859 59.233 39.9952 59.3577 41.0802L59.4824 42.1901L60.0187 44.6095V45.7444L60.4053 46.6673C60.4053 46.6673 60.4053 48.3634 60.0935 48.4881L60.106 48.4631ZM57.9984 43.1629L57.4621 42.2899L57.2251 41.8035C57.2251 41.8035 56.3023 41.155 55.342 41.155C54.0574 41.155 52.5858 42.5393 52.5858 44.0857C52.5858 44.5472 52.9725 45.3703 52.9725 45.3703L53.6708 45.9065L54.1073 46.2931C54.1073 46.2931 54.7558 46.6299 55.0302 46.6299C56.9134 46.6299 58.173 45.6571 58.173 44.0109C58.173 43.6492 57.9984 43.1629 57.9984 43.1629Z" fill="#D9932C"/>
<path d="M71.5795 39.4094C69.397 39.8709 68.5988 41.1305 68.5988 41.1305L68.4741 41.9037L67.9379 43.1882C67.9379 43.1882 67.8381 43.5 67.8381 44.2483C67.8381 45.5577 68.2746 46.6677 68.2746 47.1541C68.2746 47.7153 67.9877 48.7504 67.3517 48.7504C67.0898 48.7504 66.9402 48.3388 66.8155 48.027L66.5785 47.3536L66.2917 46.8173L66.3415 45.2709L66.2418 44.7845L66.2667 43.8118L66.1919 43.1633L66.4039 41.9536L66.2792 40.0205L65.9924 38.5489L65.8926 36.8528V36.8029C65.8926 36.4163 66.1794 36.0547 66.6658 36.0547C66.9277 36.0547 67.3392 36.3665 67.3392 36.6284V36.8653L67.5138 37.4764V37.9378L67.5887 38.1997C67.7633 38.6362 68.1 39.0228 68.4866 39.0228H68.5864C69.846 38.8482 70.1827 37.3766 71.5171 37.3766C72.415 37.3766 73.1882 37.7134 73.1882 38.1997C73.1882 38.7111 72.4649 39.2224 71.5919 39.4094H71.5795Z" fill="#D9932C"/>
<path d="M86.3947 44.8335L86.3199 46.0432V46.1928C86.3199 46.6542 86.3947 47.4025 86.3947 47.4025L85.9333 47.8141L85.5966 48.2007C85.5966 48.2007 84.6238 48.1757 84.6238 47.627V47.6021L84.6737 46.8039L84.549 46.0058L84.6986 44.6214V42.4639C84.6986 42.1771 84.2871 40.3313 82.8155 40.3313C81.8427 40.3313 80.6829 41.2293 80.6829 41.2293L80.2714 41.7406L79.3485 42.4639C79.3485 42.4639 79.0118 43.1873 78.7249 43.6487C78.488 44.0602 78.4132 44.9332 78.4132 45.5069C78.4132 46.7914 78.7249 46.6667 78.7249 47.7393C78.7249 48.3005 78.488 49.2358 77.8021 49.2358C77.4155 49.2358 77.0039 48.5873 77.0039 48.5873L77.1037 47.4025L77.0039 46.5046L77.1785 45.0954L77.0538 40.6431L77.2658 39.6953L77.2159 38.8722L77.4529 38.5854L77.6649 38.1738C77.6649 38.1738 78.7748 38.2985 78.7499 38.5854L78.6751 39.5831V39.6829C78.6751 39.8824 78.7998 40.1193 79.2363 40.1193C79.6478 40.1193 80.3711 39.3711 80.3711 39.3711L80.9947 39.0842C80.9947 39.0842 81.8427 38.3858 82.9527 38.3858C83.8506 38.3858 84.6488 38.8972 85.4968 40.0819C86.0331 40.8053 86.3199 41.3665 86.3199 41.7032V42.2893L86.4945 43.2122L86.4197 44.8085L86.3947 44.8335Z" fill="#D9932C"/>
<path d="M93.2546 34.6449H93.1299C92.7932 34.6449 92.4565 34.57 92.3567 34.358L92.0449 33.8467L92.1696 33.1234L92.7932 32.5123L93.1299 32.001L93.6662 32.0509C94.1027 32.1257 94.3396 32.3626 94.3396 32.9238C94.3396 33.8966 93.7784 34.6199 93.2546 34.6449ZM94.3271 40.207L94.4768 43.1627L94.3521 43.7489C94.3521 43.7489 94.0902 44.6717 94.0902 45.2953C94.0902 45.9687 94.3271 47.0163 94.3271 47.0163L94.2024 47.5526C94.0777 48.0639 93.7161 48.5253 93.3045 48.5253C92.7932 48.5253 92.656 48.1886 92.656 47.5027C92.656 47.3281 92.8057 46.8542 92.8057 46.4676L92.7308 44.7964C92.7308 44.7964 92.5812 43.3248 92.5812 41.9156C92.5812 41.0676 92.6311 40.2445 92.8181 39.7581L93.0551 39.0597L93.317 38.3114C93.4168 38.0495 93.7285 37.7751 93.9904 37.7751C94.402 37.7751 94.4269 38.4486 94.4269 38.4486L94.5516 38.8601L94.3396 40.1946L94.3271 40.207Z" fill="#D9932C"/>
<path d="M110.066 44.8335L109.991 46.0432V46.1928C109.991 46.6542 110.066 47.4025 110.066 47.4025L109.604 47.8141L109.268 48.2007C109.268 48.2007 108.295 48.1757 108.295 47.627V47.6021L108.345 46.8039L108.22 46.0058L108.37 44.6214V42.4639C108.37 42.1771 107.958 40.3313 106.487 40.3313C105.514 40.3313 104.354 41.2293 104.354 41.2293L103.942 41.7406L103.02 42.4639C103.02 42.4639 102.683 43.1873 102.409 43.6487C102.172 44.0602 102.097 44.9332 102.097 45.5069C102.097 46.7914 102.409 46.6667 102.409 47.7393C102.409 48.3005 102.172 49.2358 101.486 49.2358C101.099 49.2358 100.688 48.5873 100.688 48.5873L100.787 47.4025L100.688 46.5046L100.862 45.0954L100.737 40.6431L100.949 39.6953L100.9 38.8722L101.136 38.5854L101.348 38.1738C101.348 38.1738 102.458 38.2985 102.433 38.5854L102.359 39.5831V39.6829C102.359 39.8824 102.483 40.1193 102.92 40.1193C103.331 40.1193 104.055 39.3711 104.055 39.3711L104.678 39.0842C104.678 39.0842 105.526 38.3858 106.636 38.3858C107.534 38.3858 108.332 38.8972 109.18 40.0819C109.717 40.8053 110.003 41.3665 110.003 41.7032V42.2893L110.178 43.2122L110.103 44.8085L110.066 44.8335Z" fill="#D9932C"/>
<path d="M124.968 44.2739C124.968 44.5608 124.943 44.7104 124.794 44.9474L123.971 46.0823C123.971 46.0823 123.584 46.3192 123.048 46.4938C122.786 46.6185 122.225 46.9552 121.938 46.9552H121.913L119.83 46.7806H119.78C119.107 46.7806 118.882 47.7784 118.882 48.7636V49.0255L118.982 50.6717C119.007 51.2578 119.294 51.4449 119.631 51.5945L120.142 51.8065C120.217 51.9063 120.454 52.1682 120.84 52.5548C123.335 54.6126 123.958 55.311 123.958 57.2939C123.958 60.1249 121.876 61.6962 118.446 61.6962C116.051 61.6962 114.48 60.287 114.48 60.287L112.884 58.8403L112.709 57.9673C112.709 57.9673 112.447 57.0944 112.447 56.3211C112.447 54.1137 113.445 52.6671 115.303 52.056L117.261 51.0583L117.361 50.1603L117.336 49.462L117.511 48.4643L117.486 47.8532L117.66 46.7432V46.6934C117.66 46.182 116.525 45.1968 116.376 45.0721L115.316 43.5755L115.054 42.0541L115.291 40.8194L115.627 40.4827L115.777 40.146L116.6 39.273C117.373 38.3501 118.172 37.8887 119.356 37.8887C119.668 37.8887 121.414 38.6369 121.414 38.6369L122.985 39.0984C124.07 39.4102 124.968 41.7797 124.968 44.0619V44.3238V44.2739ZM122.038 56.8823V56.159C122.013 55.4107 118.795 52.9165 117.947 52.9165C117.099 52.9165 115.503 53.9142 115.353 54.0514L114.991 54.413C114.991 54.413 114.343 54.9867 114.193 55.1613L113.981 56.0343C114.056 56.4708 114.368 58.3789 115.503 59.0149C116.712 59.7881 117.922 60.0126 118.895 60.0126C120.416 60.0126 122.262 58.9775 122.262 57.9549C122.262 57.88 122.262 57.8302 122.237 57.7429L122.025 56.8699L122.038 56.8823ZM121.314 40.0337L120.903 39.909L120.254 39.9838L119.693 39.7219L119.281 39.5972C119.207 39.5723 119.107 39.5473 119.02 39.5473C118.147 39.5473 117.037 41.1686 117.037 42.0915C117.037 43.613 118.833 45.2093 121.077 45.2093C122.524 45.2093 123.26 44.3612 123.26 43.1266C123.26 41.7423 122.362 40.3206 121.302 40.0462L121.314 40.0337Z" fill="#D9932C"/>
<path d="M145.346 38.2735C145.172 38.4481 145.085 38.7848 144.86 38.7848H144.835L144.299 38.7349L143.65 38.8597L143.064 38.7349L142.703 38.8846L142.578 41.5909L142.266 42.9502L142.391 44.771L142.316 46.0555L142.466 47.7267L142.291 48.5249L142.366 48.9863L142.104 49.4477L141.692 50.0214L141.356 49.8717H140.919C140.919 49.8717 140.707 49.2856 140.707 48.8491C140.707 48.3877 140.882 47.6643 140.882 47.6643L140.832 45.22L140.957 44.2971L140.882 43.7359L141.119 42.4514L141.144 40.8301L141.356 39.5456L140.969 39.1091L138.762 38.7474C138.525 38.7225 138.375 38.5105 138.375 38.2112C138.375 37.9118 138.712 37.0513 138.712 37.0513C138.712 37.0513 139.298 37.2509 139.747 37.2509H139.822C140.545 37.201 141.393 36.8144 141.393 36.328L141.318 34.9312L141.468 34.2827L141.518 33.7963L141.692 33.1478C141.692 33.1478 141.667 33.0481 141.667 32.8859C141.667 32.4744 141.792 31.7012 142.703 31.7012C143.064 31.7012 143.239 31.9631 143.239 32.3497C143.239 32.4744 142.977 33.5843 142.977 33.5843L143.027 34.794L142.927 36.2656L143.625 36.7021L144.86 36.8019C145.222 36.8518 145.783 37.3631 145.783 37.862C145.783 38.0116 145.496 38.1239 145.346 38.2735Z" fill="#D9932C"/>
<path d="M153.927 48.3131C151.844 48.3131 150.223 47.2281 150.223 47.2281L149.549 46.9163L148.926 45.7814C148.926 45.7814 148.277 44.4719 148.277 43.362C148.277 41.3292 150.435 38.3984 153.141 38.3984C153.453 38.3984 154.089 38.5481 154.089 38.5481L154.6 38.8848L155.473 39.2964L155.76 39.7329C155.76 39.7329 158.254 41.8904 158.254 43.5366C158.254 45.6442 155.137 48.3006 153.902 48.3006L153.927 48.3131ZM156.583 42.6013L156.122 42.1149L155.71 41.9153L154.837 40.8303L153.752 40.5435L153.079 40.2816C153.079 40.2816 149.712 40.8553 149.712 43.6239C149.712 45.295 152.056 46.3301 153.54 46.3301C154.575 46.3301 156.808 45.3324 156.808 43.8359C156.808 43.7361 156.808 43.6613 156.783 43.5491L156.571 42.6013H156.583Z" fill="#D9932C"/>
<path d="M174.879 36.9152V37.4764L174.729 38.5364L174.654 42.0658L174.417 43.8741L174.317 46.2437L174.342 47.5282L174.13 48.1767L174.006 49.2617C173.906 49.985 173.494 50.883 172.871 50.883C172.484 50.883 172.197 49.9601 172.197 49.2617C172.197 48.5633 172.659 47.3785 172.709 46.7425L172.783 44.7346L172.734 43.9864L173.17 41.9785L173.245 38.5863L173.482 37.3766L173.532 36.2667C173.532 36.2667 173.794 35.5434 173.843 35.032C173.868 34.7951 173.868 34.3835 173.868 34.0842V33.523L174.105 32.6999L174.18 32.1387C174.255 31.7771 174.592 31.6523 174.928 31.6523C175.265 31.6523 175.315 32.3258 175.315 32.887C175.315 33.2985 175.29 33.6353 175.29 33.6353L174.879 36.9526V36.9152Z" fill="#D9932C"/>
<path d="M181.451 34.6449H181.326C180.989 34.6449 180.653 34.57 180.553 34.358L180.241 33.8467L180.366 33.1234L180.989 32.5123L181.326 32.001L181.862 32.0509C182.299 32.1257 182.536 32.3626 182.536 32.9238C182.536 33.8966 181.975 34.6199 181.451 34.6449ZM182.536 40.207L182.686 43.1627L182.561 43.7489C182.561 43.7489 182.299 44.6717 182.299 45.2953C182.299 45.9687 182.536 47.0163 182.536 47.0163L182.411 47.5526C182.286 48.0639 181.925 48.5253 181.513 48.5253C181.002 48.5253 180.865 48.1886 180.865 47.5027C180.865 47.3281 181.014 46.8542 181.014 46.4676L180.94 44.7964C180.94 44.7964 180.79 43.3248 180.79 41.9156C180.79 41.0676 180.84 40.2445 181.027 39.7581L181.264 39.0597L181.526 38.3114C181.626 38.0495 181.937 37.7751 182.199 37.7751C182.611 37.7751 182.636 38.4486 182.636 38.4486L182.76 38.8601L182.548 40.1946L182.536 40.207Z" fill="#D9932C"/>
<path d="M197.464 35.0057C197.152 35.0057 196.79 34.5942 196.79 34.5942L196.354 34.3946L195.892 33.6962C195.892 33.6962 195.581 33.3595 195.381 33.3595C193.972 33.3595 192.575 36.7766 192.575 40.4806C192.575 41.0667 192.65 41.3286 193.224 41.5656L194.221 41.9272L195.892 42.0021C196.229 42.0021 196.516 42.3139 196.516 42.6506C196.516 43.2991 195.718 43.4737 195.718 43.4737C195.718 43.4737 195.281 44.0099 194.994 44.0099C194.533 44.0099 193.884 43.8852 193.373 43.8852C192.238 43.8852 191.902 44.0598 191.902 45.8931V46.3296L191.976 49.2105L192.051 50.2331L191.714 50.4451L191.378 50.8068L190.916 50.7569H190.505L190.405 50.1957L190.193 49.6843L190.48 48.3749V47.4271L190.654 46.816L190.555 46.2298L190.654 44.8954C190.679 44.7707 190.679 44.6086 190.679 44.5088C190.679 43.7605 190.393 43.6109 189.981 43.6109H188.746L187.562 43.0497C187.25 42.9 187.075 42.5633 187.075 42.2764C187.075 42.0395 187.175 41.603 187.387 41.603H187.412L188.135 41.7277L188.572 41.6529L189.395 41.8025L190.48 41.7776C190.742 41.7776 190.966 41.5157 190.966 41.2663L190.941 40.3933V40.3434C190.941 39.8071 191.253 38.8469 191.253 38.8469C191.253 38.8469 191.328 36.9388 191.64 35.7665C191.814 35.093 192.413 34.0704 192.413 34.0704L192.899 32.9854L193.336 32.6985C193.336 32.6985 194.471 31.9004 195.194 31.9004C196.454 31.9004 198.075 32.8482 198.075 34.033C198.075 34.4695 197.925 35.0307 197.451 35.0307L197.464 35.0057Z" fill="#D9932C"/>
<path d="M208.002 44.01C206.593 44.01 204.885 43.4987 203.812 43.4987C202.739 43.4987 202.166 44.01 202.166 44.5837C202.166 44.7957 202.241 45.0202 202.403 45.2322C203.176 46.417 205.109 47.3897 205.109 47.3897L205.957 47.6516L206.63 47.7015L206.967 48.0382L207.404 48.3999L207.454 49.248L207.192 49.5098L206.98 49.8466C206.98 49.8466 206.643 49.9962 206.493 49.9962C205.333 49.9962 203.712 48.9362 203.712 48.9362L202.814 48.3999L202.602 47.9634L201.156 46.1925C201.156 46.1925 200.794 45.4941 200.794 45.0327C200.794 44.5463 201.006 43.798 201.006 43.798L201.056 42.2516C201.056 41.9398 201.368 40.6802 201.368 40.6802C201.368 40.6802 202.552 39.3209 203.351 38.7472C203.937 38.3606 204.61 38.161 204.61 38.161L205.171 37.8991L206.481 37.7744C208.439 37.7744 209.574 39.4955 209.574 42.2516C209.574 43.1745 208.9 44.0225 208.002 44.0225V44.01ZM206.768 39.4331C206.593 39.3583 206.331 39.3333 206.119 39.3333C205.907 39.3333 205.733 39.3583 205.733 39.3583L205.109 39.7948L204.336 39.8446C204.336 39.8446 203.251 40.568 203.251 41.0793C203.251 41.3661 203.463 41.6904 203.762 41.9273C203.862 42.0022 203.937 42.0271 204.049 42.0271C204.286 42.0271 204.51 41.8775 204.797 41.8775C204.872 41.8775 204.922 41.8775 205.009 41.9024L205.733 42.1393L206.431 42.0645C207.84 41.865 208.127 41.7029 208.127 40.9047C208.127 40.1564 207.479 39.695 206.768 39.4331Z" fill="#D9932C"/>
</svg>
