<svg width="21" height="23" viewBox="0 0 21 23" fill="none" xmlns="http://www.w3.org/2000/svg">
<g id="lIBA7m">
<path id="Vector" d="M13.2238 23.0001C11.7373 23.0001 10.1444 22.3443 8.47413 21.043C6.46866 19.48 5.05417 17.5317 4.53968 16.7664C2.94895 14.4034 1.12947 10.3554 0.395982 7.5499C0.0112372 6.07803 0.338233 4.39148 1.29222 2.92181C2.26946 1.41612 3.78819 0.3442 5.35492 0.054531C6.6914 -0.193231 8.59413 0.422131 9.87886 1.51758C10.8096 2.31086 11.2963 3.2703 11.2506 4.2187C11.2041 5.17373 10.7399 6.07288 9.90661 6.81837C9.35387 7.31316 8.63613 7.73958 7.85689 8.04027C7.95289 8.49095 9.17312 10.1797 9.63362 10.8179C9.85036 11.1178 10.0379 11.3766 10.1616 11.5611C10.3049 11.7736 10.4631 12.0309 10.6469 12.3294C11.1523 13.1514 12.1536 14.7791 12.9051 15.1739C12.9321 15.1445 12.9583 15.1158 12.9831 15.0886C13.2703 14.7747 13.4173 14.6166 13.5238 14.5262C14.3556 13.8182 15.3508 13.3617 16.3258 13.2403C17.522 13.0918 18.5848 13.4477 19.3985 14.2704C20.5287 15.4129 20.3615 17.7346 19.814 18.9029C19.3617 19.8674 18.0463 20.8658 17.3023 21.3746C16.1165 22.1863 14.9383 22.7612 14.1523 22.9126C13.8478 22.9715 13.5381 23.0001 13.2238 23.0001ZM5.99091 1.46906C5.86341 1.46906 5.74341 1.47861 5.63242 1.4992C4.46618 1.71535 3.31645 2.54171 2.55746 3.71068C1.82471 4.83921 1.56672 6.10523 1.84871 7.1845C2.54696 9.85622 4.27793 13.7094 5.79066 15.9562C7.24715 18.1206 10.8096 22.0576 13.8621 21.4687C15.065 21.2371 17.963 19.3278 18.4505 18.2875C18.848 17.4383 18.857 15.8334 18.3215 15.2923C17.2498 14.2093 15.593 14.7107 14.5063 15.6349C14.4478 15.6871 14.2296 15.926 14.0983 16.0687C13.7121 16.4907 13.6431 16.5664 13.4706 16.6429C13.2126 16.7568 13.0026 16.7311 12.8668 16.7009L12.8586 16.6995C11.5386 16.4679 10.4511 14.8585 9.36137 13.0874C9.18662 12.8029 9.03587 12.5573 8.90912 12.3706C8.79813 12.2059 8.61738 11.9559 8.40813 11.6663C7.1114 9.87166 6.43941 8.84238 6.36366 8.19834C6.33141 7.92558 6.36816 7.70796 6.39816 7.53225L6.40791 7.47196C6.46116 7.14554 6.6929 6.87866 7.0124 6.775C8.23638 6.37578 9.68836 5.44869 9.75136 4.14812C9.78361 3.48718 9.22787 2.91078 8.89337 2.62626C8.09014 1.94105 6.8714 1.46906 5.99091 1.46906Z" fill="#FFFCFA"/>
</g>
</svg>
