<svg width="158" height="158" viewBox="0 0 158 158" fill="none" xmlns="http://www.w3.org/2000/svg">
<g clip-path="url(#clip0_1_26)">
<path d="M67.073 24.1921C74.3898 20.2098 70.4074 4.84837 78.4021 1.24445C91.6851 -4.74881 96.0463 12.3101 96.1958 22.5394C100.941 19.1844 108.636 5.09228 114.862 5.87379C129.381 7.68571 117.852 28.1743 118.944 28.9608C125.189 28.5526 134.569 22.7087 140.535 25.4514C142.753 26.4719 147.479 33.4707 149.323 36.2532C150.18 37.5524 152.861 39.6132 153.29 40.8129C158.269 54.8552 142.624 64.6714 130.697 65.9955L131.345 71.3964C168.901 68.3351 165.561 103.209 128.982 97.3158C128.254 103.249 132.631 99.3368 134.395 100.681C135.442 101.482 135.796 104.633 137.321 106.375C141.826 111.517 144.822 109.984 144.443 120.039C143.74 138.691 120.703 124.335 119.587 125.888C125.578 139.06 117.962 149.13 104.654 139.642C100.183 136.456 99.2362 130.891 94.3068 128.905C92.5723 136.745 92.2234 156.318 84.0193 157.761C72.1419 159.857 74.5693 147.238 69.7246 146.71C68.0698 146.531 65.1939 149.06 62.8214 149.135C38.314 149.901 58.0715 121.971 54.6074 119.024C47.6096 121.528 43.044 128.815 36.086 131.424C28.0465 134.44 19.5234 136.008 16.9615 126.092C13.5224 112.787 35.7421 106.002 38.8274 94.3938C37.1078 89.7097 1.58521 92.6068 0.12483 78.9627C-0.792268 70.361 3.58887 67.0956 11.5586 65.5923C13.4227 62.8247 1.38085 57.5482 5.90653 50.5793C9.26092 45.4223 20.0119 47.0102 25.6391 45.6115C26.1126 40.8975 21.2729 41.8931 19.354 39.5834C14.5542 33.8042 13.6969 25.0433 16.7622 18.154L27.8022 18.9903L55.699 36.527C42.6403 10.5081 52.9327 -14.56 67.073 24.197V24.1921ZM102.89 73.9301C103.597 71.1127 102.496 68.2654 100.004 66.7721C96.2955 64.547 96.1709 57.9315 90.8378 55.3132C69.8093 44.9893 52.1552 76.9566 66.8587 92.0144C74.9481 100.297 84.3483 97.6393 94.1323 93.6571C107.091 88.3806 101.649 84.951 102.815 74.3333C102.83 74.1989 102.855 74.0645 102.885 73.9351L102.89 73.9301Z" fill="#FFFCFA"/>
<path d="M100.004 66.7721C102.496 68.2704 103.597 71.1127 102.889 73.9301C102.854 74.0596 102.835 74.194 102.82 74.3284C101.653 84.946 107.096 88.3757 94.1371 93.6521C84.348 97.6344 74.9478 100.297 66.8634 92.0095C52.1549 76.9467 69.814 44.9793 90.8425 55.3082C96.1756 57.9265 96.3002 64.542 100.008 66.7671L100.004 66.7721Z" fill="#D9932C"/>
</g>
<defs>
<clipPath id="clip0_1_26">
<rect width="158" height="158" fill="white"/>
</clipPath>
</defs>
</svg>
